<svg width="9127" height="2670" viewBox="0 0 9127 2670" fill="none" xmlns="http://www.w3.org/2000/svg">
<path d="M945.005 2669.35C926.757 2668.21 908.509 2667.08 890.261 2665.92C878.164 2665.15 866.03 2664.71 853.977 2663.44C830.063 2660.94 806.085 2658.71 782.333 2655C750.232 2649.99 717.924 2645.37 686.407 2637.6C620.11 2621.25 555.904 2599.27 496.817 2562.71C465.567 2543.38 435.336 2523.27 408.624 2497.81C391.37 2481.37 373.116 2465.81 357.393 2447.94C326.67 2413.01 299.94 2375.11 276.901 2334.1C241.601 2271.27 220.405 2203.59 205.944 2133.4C199.305 2101.18 195.468 2068.34 190.637 2035.74C187.032 2011.42 183.791 1987.04 180.532 1962.66C176.099 1929.5 172.127 1896.28 167.373 1863.17C160.081 1812.4 150.045 1762.24 135.15 1713.12C113.657 1642.25 80.8958 1577.29 38.4125 1517.41C26.0413 1499.97 12.2771 1483.57 0 1464.74C13.6254 1469.85 27.5611 1474.24 40.819 1480.21C84.3901 1499.82 123.791 1525.83 159.544 1558.4C213.599 1607.65 245.811 1669.73 263.658 1739.97C277.287 1793.61 288.086 1848.02 299.408 1902.25C316.365 1983.47 329.98 2065.46 353.801 2145.07C371.112 2202.92 392.063 2259.12 425.17 2309.75C465.105 2370.82 518.078 2417.14 580.097 2453.36C632.983 2484.25 689.388 2505.72 748.615 2519.1C773.387 2524.7 798.796 2528.23 824.103 2530.23C866.905 2533.59 909.841 2536.39 952.745 2536.74C982.741 2536.98 1012.76 2532.65 1042.79 2530.55C1098.45 2526.65 1153.15 2516.56 1207.11 2502.58C1260.55 2488.72 1312.99 2471.75 1360.04 2440.96C1419.82 2401.83 1459.81 2347.82 1474.35 2276.32C1482.65 2235.53 1476.18 2195.31 1459.48 2157.33C1435.7 2103.28 1400.93 2057.06 1358.35 2017.46C1314.91 1977.05 1263.21 1951.49 1205.99 1938.93C1177.54 1932.68 1148.44 1928.79 1119.43 1926.08C1088.39 1923.17 1057.01 1920.63 1025.96 1922.07C988.555 1923.82 951.352 1930 914.044 1934.09C903.756 1935.22 893.413 1936.03 883.076 1936.33C880.04 1936.41 876.94 1934.21 873.868 1933.06C875.244 1929.31 875.546 1923.71 878.173 1922.11C892.346 1913.49 906.519 1904.38 921.76 1898.19C960.505 1882.47 1001.27 1875.53 1042.51 1869.74C1093.39 1862.59 1144.44 1860.39 1195.54 1860.18C1234.99 1860.01 1274.54 1862.59 1313.91 1865.8C1347.81 1868.57 1381.5 1874.09 1415.31 1878.14C1468.43 1884.49 1521.84 1887.65 1575.16 1884.35C1618.74 1881.65 1662.03 1874.18 1701.14 1852.23C1726.58 1837.95 1745 1816.5 1748.29 1786.27C1752.66 1746.27 1736.13 1713.7 1695.2 1696.86C1672.04 1687.33 1647.73 1682.95 1622.86 1681.99C1597.54 1681.02 1572.2 1679.45 1546.9 1679.84C1508.74 1680.43 1470.61 1683.5 1432.45 1683.71C1365.18 1684.08 1302.42 1667.29 1246.08 1628.35C1238.67 1623.23 1230.82 1618.76 1223.46 1613.55C1221.31 1612.02 1220.16 1609 1218.55 1606.66C1221.15 1605.27 1223.76 1602.7 1226.35 1602.72C1233.17 1602.78 1240.21 1603.11 1246.78 1604.84C1286.37 1615.26 1326.38 1617.72 1366.98 1613.35C1397.48 1610.07 1428.11 1607.99 1458.58 1604.42C1480.03 1601.91 1501.26 1597.49 1522.67 1594.53C1535.38 1592.78 1548.31 1592.7 1561.02 1590.97C1575.61 1588.98 1590.01 1585.6 1604.59 1583.58C1615.17 1582.11 1625.91 1581.38 1636.6 1581.19C1657.3 1580.83 1678.03 1581.73 1698.71 1580.95C1748.14 1579.07 1795.97 1586.75 1841.47 1606.51C1889.96 1627.56 1926.24 1661.93 1946.06 1712.87C1963.23 1757.02 1956.79 1798.47 1930.66 1836.67C1899.78 1881.8 1857.58 1913.23 1807.48 1931.4C1762.73 1947.64 1716.26 1958.85 1670.74 1972.93C1644.56 1981.03 1618.06 1988.73 1593.01 1999.74C1568.49 2010.53 1564.76 2031.87 1581.07 2053.39C1585.7 2059.5 1591.63 2064.72 1597.5 2069.68C1621.51 2089.9 1647.12 2108.36 1669.51 2130.3C1698.81 2159.01 1713.77 2195.78 1717.64 2237.37C1724.92 2315.64 1701.79 2384.69 1655.14 2445.34C1633.72 2473.2 1607.17 2496.53 1575.88 2513.46C1542.85 2531.32 1511.11 2551.92 1477.32 2568.06C1405.59 2602.31 1330.57 2627.13 1252.69 2642.08C1214.98 2649.31 1177.1 2655.71 1139.12 2661.2C1119.01 2664.12 1098.52 2664.26 1078.2 2665.7C1059.26 2667.04 1040.32 2668.43 1019.79 2669.1C993.799 2668.73 969.402 2669.04 945.005 2669.35Z" fill="#8F6F24"/>
<path d="M1128.41 941.838C1118.18 936.684 1108.04 932.688 1099.52 926.385C1088.56 918.279 1089.81 907.387 1102.53 903.236C1116.43 898.699 1131.15 895.645 1145.7 894.645C1160.76 893.606 1176.03 896.023 1191.22 896.524C1201.79 896.873 1212.4 896.154 1222.96 896.582C1252.67 897.789 1282.37 899.557 1312.09 900.54C1316.92 900.7 1322.14 898.606 1326.58 896.332C1328.54 895.328 1330.52 890.817 1329.9 888.688C1326.54 877.115 1330.37 867.703 1339.24 861.726C1350 854.47 1361.6 847.824 1373.72 843.566C1384.8 839.671 1393.98 844.624 1399.81 858.818C1409.47 882.31 1418.61 906.346 1424.61 931.013C1431.04 957.486 1434.7 984.831 1437.49 1012.02C1439.81 1034.58 1439.26 1057.46 1439.72 1080.2C1442.19 1200.98 1402.09 1306.74 1335.11 1404.68C1276.86 1489.87 1205.39 1562.26 1133.66 1634.64C1104.76 1663.8 1074.02 1691.1 1043.54 1718.58C1010.28 1748.56 976.164 1777.54 942.766 1807.37C911.138 1835.6 879.284 1863.64 848.735 1893.07C803.671 1936.48 758.515 1979.91 715.53 2025.44C668.057 2075.73 625.002 2129.96 596.571 2194.49C583.817 2223.44 576.164 2253.77 572.817 2285.7C568.471 2327.14 578.526 2365.89 588.831 2404.92C591.458 2414.87 593.88 2424.88 595.515 2435.18C562.558 2397.73 540.529 2354.43 526.996 2306.33C516.723 2269.82 513.869 2232.36 516.769 2194.93C521.138 2138.61 541.332 2087.61 573.111 2041.54C605.215 1995 642.238 1952.81 683.027 1914.14C711.758 1886.9 740.468 1859.58 770.216 1833.54C808.345 1800.16 847.825 1768.42 886.128 1735.25C920.254 1705.7 954.429 1676.11 987.01 1644.81C1022.24 1610.98 1056.96 1576.37 1089.54 1539.89C1130.61 1493.91 1169.6 1446.01 1203.65 1394.07C1238.18 1341.38 1267.52 1286.26 1285.5 1225.23C1293.55 1197.91 1297.89 1169.85 1295 1141.67C1292.95 1121.69 1286.96 1101.94 1281.08 1082.62C1276.43 1067.37 1262.24 1065.84 1249.4 1065.94C1196.52 1066.35 1145.71 1055.21 1096.06 1037.8C1086.77 1034.54 1077.89 1029.33 1069.69 1023.7C1061.86 1018.31 1061.8 1011.06 1070.66 1006.74C1080.93 1001.73 1092.62 998.685 1103.98 997.384C1125.91 994.874 1148.04 994.194 1170.09 992.754C1170.43 992.731 1170.86 992.841 1171.12 992.679C1176.98 988.906 1185.77 986.396 1188.03 981.015C1191.66 972.354 1182.5 966.764 1176.27 963.48C1161.03 955.432 1144.95 949.031 1128.41 941.838Z" fill="#8F6F24"/>
<path d="M705.289 158.674C716.443 181.888 708.605 202.108 696.916 220.824C683.935 241.61 668.237 260.648 655.725 281.696C648.416 293.991 643.329 308.347 640.292 322.465C636.278 341.109 646.918 354.674 661.341 364.196C690.636 383.538 722.455 386.315 755.319 375.821C761.415 373.873 766.494 368.585 774.446 363.219C766.06 356.931 760.389 351.899 754.025 348.08C743.909 342.01 733.202 336.978 722.967 331.1C701.162 318.571 699.769 294.206 713.163 274.836C728.177 253.126 750.121 242.053 774.239 235.937C814.042 225.842 851.909 231.575 884.81 257.628C911.612 278.853 926.277 306.913 924.218 342.926C921.17 396.178 889.836 426.816 844.917 444.814C795.884 464.461 744.47 467.596 692.25 463.091C666.806 460.895 641.874 457.015 618.059 447.67C584.111 434.346 557.308 413.434 547.149 375.269C538.002 340.899 547.341 311.011 568.207 284.366C580.536 268.622 594.692 254.39 607.702 239.187C613.368 232.568 619.345 225.781 623.042 218.005C625.531 212.764 626.887 202.783 624.06 200.093C620.278 196.498 611.122 195.601 605.753 197.636C592.958 202.486 581.223 210.179 568.693 215.881C558.105 220.7 547.184 224.969 536.07 228.289C527.624 230.813 517.613 228.872 514.32 220.782C511.804 214.602 513.299 204.308 516.929 198.346C528.997 178.521 548.865 167.367 568.082 156.29C585.981 145.973 604.116 135.237 623.423 128.526C653.25 118.157 690.61 131.926 705.289 158.674Z" fill="#8F6F24"/>
<path d="M1297.28 667.608C1304.28 668.833 1310.45 669.563 1316.32 671.369C1347.98 681.124 1355.85 712.861 1333.42 737.592C1317.1 755.593 1297.33 768.332 1276.11 778.753C1223.3 804.697 1167.53 821.93 1110.51 834.698C1079.47 841.647 1048.1 847.545 1016.6 851.623C987.202 855.427 957.457 856.602 927.827 858.176C902.872 859.499 877.8 861.203 852.889 860.124C808.222 858.19 763.216 857.504 720 843.293C707.209 839.087 694.429 834.317 686.462 821.968C680.959 813.44 682.018 805.666 691.308 802.12C705.263 796.792 719.794 792.278 734.462 789.852C754.824 786.481 775.527 785.216 796.108 783.337C807.835 782.267 819.615 781.807 831.366 781.002C861.643 778.928 891.959 777.319 922.185 774.626C1026.15 765.366 1125.06 737.485 1218.65 689.893C1243.03 677.497 1268.29 667.189 1297.28 667.608Z" fill="#8F6F24"/>
<path d="M944.627 614.169C1014.17 598.074 1078.52 569.928 1142.59 540.826C1163.79 531.193 1186.05 525.478 1209.72 526.371C1228.71 527.089 1243.69 537.65 1249.89 555.694C1256.7 575.527 1245.72 589.363 1233.96 601.59C1216.4 619.858 1194.63 632.324 1171.69 642.46C1110.99 669.268 1047.78 687.711 982.892 699.711C953.891 705.074 924.39 708.251 894.973 710.426C859.718 713.035 824.321 714.227 788.968 714.699C758.658 715.103 728.191 715.219 698.041 712.526C669.537 709.978 640.612 706.965 614.168 693.746C604.75 689.04 593.459 683.805 594.212 671.891C594.93 660.545 606.626 655.717 616.113 653.559C634.795 649.316 653.875 646.663 672.906 644.339C694.801 641.666 716.816 639.994 738.793 638.025C748.804 637.129 758.844 636.544 768.876 635.852C790.594 634.354 812.457 633.994 834.007 631.143C870.686 626.295 907.171 619.888 944.627 614.169Z" fill="#8F6F24"/>
<path d="M671.265 579.844C650.562 578.628 629.743 578.416 609.179 575.955C581.295 572.622 553.367 568.704 525.969 562.628C516.493 560.525 507.069 552.594 500.246 544.889C491.18 534.654 494.411 526.019 507.453 522.34C520.274 518.722 533.345 515.423 546.518 513.856C576.278 510.313 606.146 507.663 636.01 505.156C657.711 503.333 679.505 502.687 701.2 500.834C721.05 499.139 740.948 497.33 760.601 494.124C790.684 489.221 820.645 483.441 850.53 477.377C909.387 465.435 965.374 444.732 1019.52 418.466C1050.43 403.469 1081.93 390.111 1117.14 391.798C1131.5 392.484 1145.18 395.878 1154.64 408.647C1163.01 419.949 1161.16 437.589 1151.1 451.684C1138.71 469.042 1121.57 480.318 1103.81 490.268C1048.9 521.034 989.776 540.433 929.029 554.429C895.028 562.262 860.561 568.291 826.06 573.401C804.284 576.627 782.054 576.612 760.031 578.151C753.865 578.584 747.725 579.378 740.023 579.34C724.25 578.459 710.021 577.988 695.801 578.116C687.617 578.192 679.444 579.236 671.265 579.844Z" fill="#8F6F24"/>
<path d="M669.692 1094.93C691.674 1110.86 713.122 1126.24 734.523 1141.69C766.624 1164.86 799.276 1187.3 830.572 1211.57C852.127 1228.29 865.509 1252.32 878.042 1276.54C881.183 1282.61 881.977 1291.99 892.314 1289.86C900.918 1288.09 905.315 1280.52 904.766 1268.34C903.675 1244.15 894.068 1223.63 879.048 1205.21C845.082 1163.55 801.472 1135.39 755.06 1110.95C729.709 1097.61 704.449 1084.08 679.365 1070.22C673.371 1066.91 667.624 1062.55 662.976 1057.5C660.355 1054.66 660.204 1049.43 658.942 1045.27C662.731 1044.6 667.213 1042.23 670.198 1043.52C688.786 1051.54 708.003 1058.74 725.207 1069.3C760.371 1090.88 795.233 1113.2 828.637 1137.5C858.825 1159.46 886.727 1184.79 907.424 1216.87C922.196 1239.78 924.834 1265.5 920.347 1292.13C918.375 1303.84 916.429 1315.61 913.375 1327.05C907.441 1349.28 889.603 1360.42 867.978 1353.98C810.445 1336.84 757.288 1311.08 713.994 1267.28C687.893 1240.86 674.078 1207.67 664.741 1172.12C656.283 1139.92 643.648 1109.81 625.453 1081.91C612.12 1061.46 603.112 1038.88 604.084 1013.44C604.226 1009.71 605.2 1006.01 608.467 1001.08C611.279 1004.57 614.743 1007.71 616.794 1011.62C626.398 1029.97 634.719 1049.09 645.315 1066.8C651.487 1077.12 661.079 1085.28 669.692 1094.93Z" fill="#8F6F24"/>
<path d="M995.992 1349.11C987.034 1366.84 978.718 1384 969.748 1400.8C968.111 1403.87 963.794 1405.44 960.717 1407.7C959.525 1404.34 957.047 1400.85 957.346 1397.63C959.275 1377.01 960.694 1356.23 964.35 1335.89C977.878 1260.61 967.782 1191.64 917.869 1131.25C879.22 1084.49 830.447 1052.29 777.782 1025.68C747.908 1010.58 716.641 998.402 686.221 984.412C675.075 979.288 664.561 972.726 653.756 966.822C654.003 965.251 654.25 963.684 654.497 962.113C659.296 961.924 664.447 960.467 668.842 961.744C705.711 972.459 742.783 982.618 779.134 994.985C835.359 1014.11 888.367 1040.42 935.605 1077.47C973.494 1107.19 1004.93 1142.32 1018.31 1191.01C1031.45 1238.86 1022.7 1284.44 1004.74 1329.06C1002.12 1335.58 999.197 1341.97 995.992 1349.11Z" fill="#8F6F24"/>
<path d="M588.816 1594.78C587.894 1594.18 587.458 1594.15 587.26 1593.91C583.692 1589.62 580.149 1585.29 576.601 1580.98C581.824 1578.85 586.876 1575.75 592.298 1574.74C629.664 1567.79 667.318 1562.15 702.689 1546.92C712.703 1542.61 721.606 1543.53 728.563 1552.94C750.613 1582.75 772.939 1612.37 794.453 1642.58C799.619 1649.84 802.853 1658.86 805.596 1667.53C812.262 1688.62 797.653 1704.17 776.147 1700.72C718.337 1691.45 669.034 1664.68 625.333 1625.77C613.597 1615.32 601.399 1605.41 588.816 1594.78Z" fill="#8F6F24"/>
<path d="M713.477 1474.79C706.804 1483.54 703.617 1492.54 704.629 1503C706.383 1521.15 698.175 1533.04 682.632 1541.13C662.001 1551.88 640.097 1556.77 617.248 1557.67C604.261 1558.19 591.175 1558.56 578.259 1557.46C572.081 1556.93 564.286 1554.49 560.517 1550C545.866 1532.6 525.646 1530.1 505.862 1525.69C496.613 1523.62 487.521 1520.79 478.574 1516.67C488.676 1505.46 501.339 1505.23 513.279 1504.13C571.488 1498.74 629.039 1490.33 683.437 1466.97C690.627 1463.88 696.933 1458.64 703.631 1454.37C708.276 1451.41 713.32 1444.05 718.247 1451.1C720.844 1454.82 718.677 1462.34 717.933 1468.04C717.65 1470.22 715.327 1472.11 713.477 1474.79Z" fill="#8F6F24"/>
<path d="M945.956 2669.46C969.399 2669.04 993.799 2668.73 1018.88 2668.89C995.349 2669.43 971.127 2669.5 945.956 2669.46Z" fill="#8F6F24"/>
<path d="M672.228 579.969C679.444 579.236 687.617 578.192 695.801 578.119C710.024 577.989 724.25 578.46 739.133 579.222C717.589 579.873 695.388 579.984 672.228 579.969Z" fill="#8F6F24"/>
<path d="M2670.08 2384.68C2705.56 2384.68 2736.1 2378.86 2761.7 2367.23C2787.29 2355.01 2814.05 2335.81 2841.98 2309.64L2908.29 2377.7C2843.72 2449.24 2765.19 2485.02 2672.7 2485.02C2580.79 2485.02 2504.29 2455.35 2443.21 2396.02C2382.72 2336.69 2352.47 2261.65 2352.47 2170.9C2352.47 2080.16 2383.3 2004.54 2444.96 1944.04C2507.2 1883.54 2585.44 1853.29 2679.68 1853.29C2774.5 1853.29 2853.61 1888.2 2917 1958L2851.57 2029.55C2822.49 2001.63 2794.86 1982.14 2768.68 1971.09C2743.09 1960.04 2712.84 1954.51 2677.93 1954.51C2616.27 1954.51 2564.5 1974.58 2522.62 2014.72C2480.73 2054.27 2459.79 2105.17 2459.79 2167.41C2459.79 2229.07 2480.44 2280.84 2521.75 2322.73C2563.63 2364.03 2613.07 2384.68 2670.08 2384.68ZM3704.35 2066.2C3704.35 2166.83 3660.43 2230.24 3572.59 2256.41L3732.27 2478.04H3601.38L3455.67 2272.99H3320.42V2478.04H3217.46V1868.13H3444.32C3537.4 1868.13 3604 1883.83 3644.14 1915.24C3684.28 1946.66 3704.35 1996.97 3704.35 2066.2ZM3448.69 2179.63C3506.86 2179.63 3546.41 2170.61 3567.35 2152.58C3588.3 2134.55 3598.77 2105.75 3598.77 2066.2C3598.77 2026.06 3588 1998.72 3566.48 1984.18C3544.96 1969.05 3506.57 1961.49 3451.3 1961.49H3320.42V2179.63H3448.69ZM4463.94 1868.13V1964.98H4138.47V2126.4H4430.78V2218.02H4138.47V2381.19H4474.41V2478.04H4035.51V1868.13H4463.94ZM4876.05 2339.3L4814.97 2478.04H4705.03L4973.78 1868.13H5083.72L5352.47 2478.04H5242.53L5181.45 2339.3H4876.05ZM5139.57 2244.2L5028.75 1992.9L4917.93 2244.2H5139.57ZM5850.88 1962.36V2478.04H5747.92V1962.36H5562.93V1868.13H6035.86V1962.36H5850.88ZM6330.35 1868.13H6433.31V2478.04H6330.35V1868.13ZM7219.96 2012.1C7178.66 1969.05 7127.76 1947.53 7067.26 1947.53C7006.76 1947.53 6955.57 1969.05 6913.69 2012.1C6872.39 2055.14 6851.74 2107.5 6851.74 2169.16C6851.74 2230.24 6872.39 2282.3 6913.69 2325.34C6955.57 2368.39 7006.76 2389.91 7067.26 2389.91C7127.76 2389.91 7178.66 2368.39 7219.96 2325.34C7261.84 2282.3 7282.78 2230.24 7282.78 2169.16C7282.78 2107.5 7261.84 2055.14 7219.96 2012.1ZM7295.87 2394.27C7234.21 2454.19 7158.01 2484.15 7067.26 2484.15C6976.51 2484.15 6900.31 2454.19 6838.65 2394.27C6776.99 2333.78 6746.16 2258.74 6746.16 2169.16C6746.16 2078.99 6776.99 2003.95 6838.65 1944.04C6900.31 1883.54 6976.51 1853.29 7067.26 1853.29C7158.01 1853.29 7234.21 1883.54 7295.87 1944.04C7357.53 2003.95 7388.36 2078.99 7388.36 2169.16C7388.36 2258.74 7357.53 2333.78 7295.87 2394.27ZM8158.69 1868.13H8261.65V2478.04H8149.96L7804.43 2033.04V2478.04H7701.47V1868.13H7804.43L8158.69 2323.6V1868.13ZM8798.25 1948.4C8768.58 1948.4 8744.15 1954.51 8724.95 1966.73C8705.76 1978.94 8696.16 1997.56 8696.16 2022.57C8696.16 2047 8705.76 2065.91 8724.95 2079.28C8744.15 2092.08 8784.87 2106.04 8847.11 2121.17C8909.94 2136.29 8957.05 2157.52 8988.47 2184.86C9020.46 2212.2 9036.46 2252.63 9036.46 2306.15C9036.46 2359.08 9016.39 2402.13 8976.25 2435.28C8936.11 2468.44 8883.47 2485.02 8818.32 2485.02C8722.92 2485.02 8638.28 2452.15 8564.4 2386.42L8628.97 2308.76C8690.63 2362.28 8754.62 2389.04 8820.93 2389.04C8854.09 2389.04 8880.27 2382.06 8899.47 2368.1C8919.24 2353.56 8929.13 2334.65 8929.13 2311.38C8929.13 2287.53 8919.83 2269.21 8901.21 2256.41C8883.18 2243.03 8851.76 2231.11 8806.97 2220.64C8762.18 2209.58 8728.15 2199.7 8704.88 2190.97C8681.62 2181.66 8660.96 2169.74 8642.93 2155.2C8606.87 2127.86 8588.83 2085.97 8588.83 2029.55C8588.83 1973.12 8609.19 1929.79 8649.91 1899.54C8691.21 1868.71 8742.11 1853.29 8802.61 1853.29C8841.58 1853.29 8880.27 1859.69 8918.66 1872.49C8957.05 1885.29 8990.21 1903.32 9018.13 1926.59L8963.16 2004.24C8945.13 1987.96 8920.7 1974.58 8889.87 1964.11C8859.04 1953.64 8828.5 1948.4 8798.25 1948.4Z" fill="black"/>
<mask id="mask0_50_214" style="mask-type:luminance" maskUnits="userSpaceOnUse" x="2261" y="0" width="6865" height="1440">
<path d="M9125.17 0H2261.02V1439.71H9125.17V0Z" fill="white"/>
</mask>
<g mask="url(#mask0_50_214)">
<path d="M3405.52 105.209V142.125C3372.57 143.355 3347.35 148.277 3329.9 156.891C3313.41 164.274 3302.27 179.04 3296.45 201.19C3290.64 222.108 3287.73 255.332 3287.73 300.861V1216.37C3287.73 1260.66 3290.64 1293.89 3296.45 1316.04C3302.27 1338.19 3313.41 1352.95 3329.9 1360.34C3347.35 1367.72 3372.57 1372.64 3405.52 1375.1V1412.02C3383.21 1409.56 3355.12 1408.33 3321.18 1408.33C3288.22 1407.1 3254.77 1406.48 3220.83 1406.48C3183.02 1406.48 3147.62 1407.1 3114.67 1408.33C3081.72 1408.33 3055.04 1409.56 3034.68 1412.02V1375.1C3067.64 1372.64 3092.36 1367.72 3108.85 1360.34C3126.3 1352.95 3137.94 1338.19 3143.75 1316.04C3149.57 1293.89 3152.48 1260.66 3152.48 1216.37V201.19L3158.3 206.727L2802.01 1421.25H2778.74L2412.26 223.339V1197.91C2412.26 1242.21 2415.17 1277.28 2420.99 1303.12C2427.77 1327.73 2440.38 1345.57 2458.8 1356.65C2478.19 1366.49 2506.79 1372.64 2544.6 1375.1V1412.02C2527.15 1409.56 2504.36 1408.33 2476.25 1408.33C2448.13 1407.1 2421.47 1406.48 2396.27 1406.48C2372.03 1406.48 2347.3 1407.1 2322.1 1408.33C2297.86 1408.33 2277.5 1409.56 2261.02 1412.02V1375.1C2293.98 1372.64 2318.7 1366.49 2335.19 1356.65C2352.64 1345.57 2364.27 1327.73 2370.09 1303.12C2375.91 1277.28 2378.81 1242.21 2378.81 1197.91V300.861C2378.81 255.332 2375.91 222.108 2370.09 201.19C2364.27 179.04 2352.64 164.274 2335.19 156.891C2318.7 148.277 2293.98 143.355 2261.02 142.125V105.209C2277.5 106.44 2297.86 107.671 2322.1 108.901C2347.3 110.131 2372.03 110.747 2396.27 110.747C2417.59 110.747 2439.41 110.131 2461.71 108.901C2484.98 107.671 2504.36 106.44 2519.88 105.209L2850 1208.98L2825.27 1223.75L3152.48 110.747C3164.11 110.747 3175.25 110.747 3185.93 110.747C3197.56 110.747 3209.2 110.747 3220.83 110.747C3254.77 110.747 3288.22 110.131 3321.18 108.901C3355.12 107.671 3383.21 106.44 3405.52 105.209ZM3650.16 1424.94C3610.4 1424.94 3575.99 1415.71 3546.91 1397.25C3517.82 1377.57 3495.51 1350.49 3480.01 1316.04C3465.47 1281.59 3458.2 1241.59 3458.2 1196.06C3458.2 1141.92 3467.88 1097.62 3487.28 1063.17C3507.64 1028.71 3533.32 1001.03 3564.36 980.108C3595.36 959.187 3627.85 941.963 3661.79 928.427C3696.7 913.661 3729.65 900.122 3760.68 887.819C3791.69 874.283 3816.91 858.902 3836.31 841.675C3856.67 824.445 3866.85 801.684 3866.85 773.381V658.943C3866.85 607.259 3860.53 567.884 3847.94 540.812C3836.31 513.742 3820.31 495.899 3799.95 487.284C3779.59 477.438 3756.79 472.52 3731.6 472.52C3707.34 472.52 3681.17 476.828 3653.07 485.44C3625.9 494.052 3604.09 511.895 3587.63 538.968C3606.04 543.889 3622.03 556.195 3635.62 575.882C3649.17 595.57 3655.98 620.798 3655.98 651.559C3655.98 682.322 3648.21 706.933 3632.71 725.391C3617.18 742.618 3597.31 751.23 3573.08 751.23C3544.96 751.23 3524.1 740.157 3510.55 718.006C3497.93 694.628 3491.64 668.789 3491.64 640.486C3491.64 608.49 3497.93 582.65 3510.55 562.963C3523.14 543.275 3539.14 524.818 3558.54 507.588C3580.82 487.9 3609.44 471.29 3644.34 457.754C3680.21 442.987 3720.43 435.603 3765.05 435.603C3804.78 435.603 3838.72 441.757 3866.85 454.06C3894.94 465.136 3918.21 481.749 3936.65 503.897C3961.84 533.43 3978.33 569.728 3986.1 612.797C3993.83 654.636 3997.73 705.086 3997.73 764.152V1277.28C3997.73 1308.04 4001.1 1330.19 4007.91 1343.73C4015.65 1357.26 4027.28 1364.03 4042.81 1364.03C4053.46 1364.03 4063.64 1360.96 4073.35 1354.8C4083.04 1348.65 4094.67 1338.8 4108.26 1325.27L4124.25 1356.65C4103.89 1376.33 4084.49 1392.95 4066.08 1406.48C4047.64 1418.79 4022.92 1424.94 3991.91 1424.94C3963.79 1424.94 3940.52 1418.79 3922.11 1406.48C3903.67 1394.18 3889.62 1376.33 3879.93 1352.95C3871.21 1328.34 3866.85 1297.58 3866.85 1260.66C3840.67 1316.04 3809.14 1357.26 3772.32 1384.33C3736.43 1411.4 3695.71 1424.94 3650.16 1424.94ZM3702.51 1351.11C3734.51 1351.11 3764.06 1339.42 3791.22 1316.04C3819.32 1292.66 3844.54 1257.59 3866.85 1210.83V849.057C3855.21 869.978 3838.23 887.819 3815.95 902.585C3793.64 916.121 3769.41 930.271 3743.23 945.038C3717.06 958.574 3691.84 975.187 3667.61 994.875C3644.34 1013.33 3624.94 1037.94 3609.44 1068.7C3593.91 1099.47 3586.17 1139.46 3586.17 1188.68C3586.17 1237.9 3596.35 1277.28 3616.71 1306.81C3638.03 1336.34 3666.62 1351.11 3702.51 1351.11ZM4316.27 1424.94C4276.51 1424.94 4242.11 1415.71 4213.02 1397.25C4183.94 1377.57 4161.63 1350.49 4146.12 1316.04C4131.58 1281.59 4124.31 1241.59 4124.31 1196.06C4124.31 1141.92 4134 1097.62 4153.4 1063.17C4173.76 1028.71 4199.44 1001.03 4230.47 980.108C4261.51 959.187 4293.97 941.963 4327.91 928.427C4362.81 913.661 4395.76 900.122 4426.8 887.819C4457.83 874.283 4483.02 858.902 4502.42 841.675C4522.78 824.445 4532.96 801.684 4532.96 773.381V658.943C4532.96 607.259 4526.65 567.884 4514.05 540.812C4502.42 513.742 4486.42 495.899 4466.06 487.284C4445.7 477.438 4422.93 472.52 4397.71 472.52C4373.49 472.52 4347.31 476.828 4319.18 485.44C4292.05 494.052 4270.23 511.895 4253.74 538.968C4272.15 543.889 4288.15 556.195 4301.73 575.882C4315.31 595.57 4322.09 620.798 4322.09 651.559C4322.09 682.322 4314.33 706.933 4298.82 725.391C4283.32 742.618 4263.43 751.23 4239.2 751.23C4211.07 751.23 4190.25 740.157 4176.66 718.006C4164.07 694.628 4157.76 668.789 4157.76 640.486C4157.76 608.49 4164.07 582.65 4176.66 562.963C4189.26 543.275 4205.26 524.818 4224.66 507.588C4246.96 487.9 4275.55 471.29 4310.46 457.754C4346.32 442.987 4386.57 435.603 4431.16 435.603C4470.92 435.603 4504.83 441.757 4532.96 454.06C4561.09 465.136 4584.35 481.749 4602.77 503.897C4627.98 533.43 4644.44 569.728 4652.21 612.797C4659.98 654.636 4663.84 705.086 4663.84 764.152V1277.28C4663.84 1308.04 4667.25 1330.19 4674.02 1343.73C4681.79 1357.26 4693.42 1364.03 4708.93 1364.03C4719.6 1364.03 4729.78 1360.96 4739.47 1354.8C4749.15 1348.65 4760.79 1338.8 4774.37 1325.27L4790.37 1356.65C4770.01 1376.33 4750.61 1392.95 4732.2 1406.48C4713.78 1418.79 4689.06 1424.94 4658.03 1424.94C4629.9 1424.94 4606.63 1418.79 4588.22 1406.48C4569.81 1394.18 4555.73 1376.33 4546.05 1352.95C4537.32 1328.34 4532.96 1297.58 4532.96 1260.66C4506.78 1316.04 4475.28 1357.26 4438.43 1384.33C4402.57 1411.4 4361.85 1424.94 4316.27 1424.94ZM4368.63 1351.11C4400.62 1351.11 4430.2 1339.42 4457.34 1316.04C4485.46 1292.66 4510.65 1257.59 4532.96 1210.83V849.057C4521.33 869.978 4504.37 887.819 4482.06 902.585C4459.75 916.121 4435.52 930.271 4409.35 945.038C4383.17 958.574 4357.95 975.187 4333.73 994.875C4310.46 1013.33 4291.06 1037.94 4275.55 1068.7C4260.05 1099.47 4252.29 1139.46 4252.29 1188.68C4252.29 1237.9 4262.47 1277.28 4282.83 1306.81C4304.15 1336.34 4332.77 1351.11 4368.63 1351.11ZM5807.4 105.209C5803.53 151.969 5800.62 197.498 5798.67 241.797C5797.71 284.865 5797.22 318.088 5797.22 341.469C5797.22 371.002 5797.71 398.688 5798.67 424.53C5799.66 450.369 5800.62 473.137 5801.58 492.822H5768.13C5761.35 406.686 5752.13 339.009 5740.5 289.787C5728.87 239.336 5708.51 203.035 5679.42 180.886C5650.33 158.737 5605.25 147.662 5544.17 147.662H5452.55C5419.6 147.662 5394.38 151.354 5376.93 158.737C5360.47 164.89 5349.3 179.04 5343.48 201.19C5337.67 222.108 5334.76 255.332 5334.76 300.861V1216.37C5334.76 1260.66 5338.16 1293.89 5344.94 1316.04C5352.7 1338.19 5367.25 1352.95 5388.57 1360.34C5409.91 1367.72 5440.92 1372.64 5481.64 1375.1V1412.02C5456.45 1409.56 5424.46 1408.33 5385.66 1408.33C5346.89 1407.1 5307.62 1406.48 5267.86 1406.48C5230.05 1406.48 5194.68 1407.1 5161.73 1408.33C5128.75 1408.33 5102.1 1409.56 5081.74 1412.02V1375.1C5114.7 1372.64 5139.42 1367.72 5155.91 1360.34C5173.33 1352.95 5184.97 1338.19 5190.79 1316.04C5196.6 1293.89 5199.51 1260.66 5199.51 1216.37V300.861C5199.51 255.332 5196.6 222.108 5190.79 201.19C5184.97 179.04 5173.33 164.274 5155.91 156.891C5139.42 148.277 5114.7 143.355 5081.74 142.125V105.209C5117.61 106.44 5155.42 107.671 5195.15 108.901C5234.91 108.901 5274.17 109.516 5312.94 110.747C5351.74 110.747 5387.61 110.747 5420.56 110.747C5454.5 110.747 5482.13 110.747 5503.45 110.747C5548.07 110.747 5598.48 110.747 5654.7 110.747C5711.91 109.516 5762.81 107.671 5807.4 105.209ZM5581.98 754.924C5581.98 754.924 5581.98 761.078 5581.98 773.381C5581.98 785.684 5581.98 791.838 5581.98 791.838H5291.13C5291.13 791.838 5291.13 785.684 5291.13 773.381C5291.13 761.078 5291.13 754.924 5291.13 754.924H5581.98ZM5609.62 511.279C5605.75 581.42 5603.8 634.948 5603.8 671.863C5604.79 708.777 5605.25 742.618 5605.25 773.381C5605.25 804.141 5605.75 837.982 5606.71 874.899C5607.7 911.814 5610.11 965.342 5613.98 1035.48H5580.53C5576.66 996.102 5571.8 957.957 5565.99 921.042C5561.16 882.898 5549.52 852.131 5531.08 828.753C5513.63 804.141 5483.59 791.838 5440.92 791.838V754.924C5472.91 754.924 5497.17 746.922 5513.63 730.929C5531.08 713.699 5543.71 692.167 5551.44 666.325C5559.21 640.486 5564.53 614.027 5567.44 586.958C5570.35 558.655 5573.26 533.43 5576.17 511.279H5609.62ZM6492.85 441.14V1212.67C6492.85 1268.05 6500.62 1309.27 6516.12 1336.34C6532.61 1362.18 6561.7 1375.1 6603.38 1375.1V1413.86C6573.33 1410.17 6543.29 1408.33 6513.21 1408.33C6485.11 1408.33 6457.95 1410.17 6431.77 1413.86C6406.58 1417.56 6383.32 1424.32 6361.97 1434.17V1216.37C6337.74 1296.35 6303.33 1353.57 6258.71 1388.02C6215.09 1421.25 6170 1437.86 6123.47 1437.86C6089.55 1437.86 6059.97 1431.71 6034.76 1419.4C6009.57 1407.1 5988.71 1389.87 5972.22 1367.72C5953.81 1343.11 5941.22 1311.12 5934.41 1271.74C5927.63 1232.36 5924.23 1183.76 5924.23 1125.92V662.634C5924.23 607.259 5916.5 566.654 5900.96 540.812C5885.46 513.742 5856.38 500.206 5813.71 500.206V461.445C5844.74 465.136 5874.79 466.982 5903.87 466.982C5932 466.982 5958.67 465.136 5983.86 461.445C6010.03 456.524 6033.8 449.753 6055.12 441.14V1166.53C6055.12 1204.68 6057.06 1239.75 6060.93 1271.74C6064.83 1303.73 6074.52 1329.58 6090.02 1349.26C6105.55 1368.95 6130.74 1378.8 6165.64 1378.8C6203.45 1378.8 6236.9 1364.03 6265.99 1334.5C6296.06 1304.96 6319.33 1264.98 6335.79 1214.52C6353.24 1164.07 6361.97 1107.47 6361.97 1044.71V662.634C6361.97 607.259 6354.23 566.654 6338.7 540.812C6323.2 513.742 6294.11 500.206 6251.44 500.206V461.445C6282.48 465.136 6312.52 466.982 6341.61 466.982C6369.73 466.982 6396.4 465.136 6421.59 461.445C6447.77 456.524 6471.53 449.753 6492.85 441.14ZM6879.77 435.603C6918.55 435.603 6951.53 443.604 6978.67 459.598C7005.8 475.594 7025.7 490.361 7038.29 503.897C7070.28 537.121 7089.68 514.973 7096.46 437.45H7129.91C7127.96 471.904 7126.51 513.126 7125.55 561.116C7124.59 607.876 7124.09 671.246 7124.09 751.23H7090.64C7084.83 705.703 7074.65 661.404 7060.1 618.335C7046.52 575.266 7026.16 540.195 6999.02 513.126C6971.89 484.823 6936.49 470.673 6892.86 470.673C6858.92 470.673 6830.33 482.976 6807.06 507.588C6784.75 530.966 6773.61 566.037 6773.61 612.797C6773.61 649.715 6782.34 681.708 6799.79 708.777C6817.24 734.619 6840.01 759.231 6868.14 782.61C6896.27 804.758 6926.81 829.37 6959.76 856.442C6996.61 885.972 7030.06 916.121 7060.1 946.884C7090.15 977.645 7113.91 1011.49 7131.36 1048.4C7149.77 1085.32 7158.99 1129 7158.99 1179.45C7158.99 1236.05 7147.36 1283.43 7124.09 1321.58C7100.82 1359.72 7070.28 1388.64 7032.47 1408.33C6995.62 1428.01 6954.9 1437.86 6910.31 1437.86C6888.99 1437.86 6868.63 1435.4 6849.24 1430.48C6830.82 1426.79 6812.88 1420.63 6795.43 1412.02C6785.74 1405.87 6775.56 1398.48 6764.89 1389.87C6755.2 1381.26 6745.49 1372.03 6735.8 1362.18C6726.12 1352.34 6717.39 1352.95 6709.63 1364.03C6701.86 1373.87 6696.04 1394.18 6692.17 1424.94H6658.73C6660.67 1385.56 6662.13 1337.57 6663.09 1280.97C6664.05 1224.37 6664.54 1149.3 6664.54 1055.78H6697.99C6704.77 1124.7 6714.48 1184.99 6727.08 1236.67C6739.67 1288.35 6759.56 1328.96 6786.7 1358.49C6813.84 1386.79 6851.65 1400.94 6900.13 1400.94C6919.53 1400.94 6938.91 1395.41 6958.31 1384.33C6978.67 1373.26 6995.62 1354.8 7009.2 1328.96C7022.79 1303.12 7029.56 1268.67 7029.56 1225.6C7029.56 1171.45 7014.06 1127.15 6983.03 1092.7C6951.99 1058.25 6912.73 1021.94 6865.23 983.799C6830.33 955.496 6797.38 927.197 6766.34 898.894C6736.3 870.592 6711.57 838.598 6692.17 802.914C6673.76 767.227 6664.54 724.16 6664.54 673.71C6664.54 618.335 6674.23 573.419 6693.63 538.968C6713.99 503.28 6740.66 477.439 6773.61 461.445C6806.57 444.215 6841.96 435.603 6879.77 435.603ZM7377.51 0C7402.73 0 7424.54 11.6899 7442.96 35.0698C7461.4 58.4494 7470.59 86.1363 7470.59 118.13C7470.59 150.124 7461.4 177.81 7442.96 201.19C7424.54 224.569 7402.73 236.26 7377.51 236.26C7352.32 236.26 7330.51 224.569 7312.07 201.19C7293.66 177.81 7284.44 150.124 7284.44 118.13C7284.44 86.1363 7293.66 58.4494 7312.07 35.0698C7330.51 11.6899 7352.32 0 7377.51 0ZM7453.13 441.14V1240.36C7453.13 1292.04 7461.4 1327.11 7477.86 1345.57C7495.31 1364.03 7523.93 1373.26 7563.66 1373.26V1412.02C7547.2 1410.79 7521.98 1409.56 7488.04 1408.33C7455.08 1405.87 7421.64 1404.64 7387.69 1404.64C7354.74 1404.64 7321.29 1405.87 7287.35 1408.33C7253.43 1409.56 7228.22 1410.79 7211.73 1412.02V1373.26C7251.49 1373.26 7279.61 1364.03 7296.07 1345.57C7313.52 1327.11 7322.25 1292.04 7322.25 1240.36V662.634C7322.25 607.259 7314.51 566.654 7298.98 540.812C7283.48 513.742 7254.39 500.206 7211.73 500.206V461.445C7242.76 465.136 7272.81 466.982 7301.89 466.982C7330.02 466.982 7356.69 465.136 7381.88 461.445C7408.05 456.524 7431.82 449.753 7453.13 441.14ZM7935.92 435.603C7997.96 435.603 8053.72 452.833 8103.16 487.284C8152.61 521.738 8191.88 575.882 8220.96 649.715C8251.01 723.544 8266.04 819.524 8266.04 937.656C8266.04 1055.78 8251.01 1151.76 8220.96 1225.6C8191.88 1298.2 8152.61 1351.72 8103.16 1386.18C8053.72 1420.63 7997.96 1437.86 7935.92 1437.86C7874.84 1437.86 7819.09 1420.63 7768.68 1386.18C7719.24 1351.72 7679.48 1298.2 7649.43 1225.6C7620.35 1151.76 7605.8 1055.78 7605.8 937.656C7605.8 819.524 7620.35 723.544 7649.43 649.715C7679.48 575.882 7719.24 521.738 7768.68 487.284C7819.09 452.833 7874.84 435.603 7935.92 435.603ZM7935.92 472.52C7880.66 472.52 7835.08 508.818 7799.22 581.42C7764.32 654.022 7746.87 772.764 7746.87 937.656C7746.87 1102.54 7764.32 1221.29 7799.22 1293.89C7835.08 1365.26 7880.66 1400.94 7935.92 1400.94C7991.19 1400.94 8036.27 1365.26 8071.17 1293.89C8107.03 1221.29 8124.98 1102.54 8124.98 937.656C8124.98 772.764 8107.03 654.022 8071.17 581.42C8036.27 508.818 7991.19 472.52 7935.92 472.52ZM8806.8 435.603C8843.65 435.603 8874.19 441.757 8898.42 454.06C8923.63 466.366 8944.49 483.593 8960.95 505.744C8979.39 530.356 8992.48 561.116 9000.22 598.031C9007.98 634.948 9011.85 684.782 9011.85 747.539V1240.36C9011.85 1292.04 9020.11 1327.11 9036.57 1345.57C9054.02 1364.03 9082.64 1373.26 9122.38 1373.26V1412.02C9105.91 1410.79 9080.7 1409.56 9046.75 1408.33C9012.84 1405.87 8979.86 1404.64 8947.86 1404.64C8915.87 1404.64 8884.37 1405.87 8853.34 1408.33C8823.29 1409.56 8800.52 1410.79 8784.98 1412.02V1373.26C8819.89 1373.26 8844.61 1364.03 8859.15 1345.57C8873.69 1327.11 8880.97 1292.04 8880.97 1240.36V706.933C8880.97 668.788 8878.55 633.718 8873.69 601.724C8868.87 569.728 8857.7 543.889 8840.25 524.201C8823.78 504.514 8798.07 494.668 8763.17 494.668C8722.45 494.668 8686.59 509.435 8655.55 538.968C8625.51 568.501 8601.75 609.106 8584.3 660.787C8567.83 711.241 8559.57 767.843 8559.57 830.6V1240.36C8559.57 1292.04 8566.84 1327.11 8581.39 1345.57C8595.93 1364.03 8620.65 1373.26 8655.55 1373.26V1412.02C8640.05 1410.79 8616.78 1409.56 8585.75 1408.33C8555.7 1405.87 8524.67 1404.64 8492.68 1404.64C8460.68 1404.64 8427.73 1405.87 8393.79 1408.33C8359.87 1409.56 8334.66 1410.79 8318.16 1412.02V1373.26C8357.92 1373.26 8386.05 1364.03 8402.51 1345.57C8419.96 1327.11 8428.69 1292.04 8428.69 1240.36V662.634C8428.69 607.259 8420.95 566.654 8405.42 540.812C8389.92 513.742 8360.83 500.206 8318.16 500.206V461.445C8349.2 465.136 8379.24 466.982 8408.33 466.982C8436.45 466.982 8463.13 465.136 8488.31 461.445C8514.49 456.524 8538.25 449.753 8559.57 441.14V658.943C8584.79 575.266 8619.69 517.433 8664.28 485.44C8709.86 452.216 8757.35 435.603 8806.8 435.603Z" fill="black"/>
</g>
</svg>
