<svg width="9127" height="2670" viewBox="0 0 9127 2670" fill="none" xmlns="http://www.w3.org/2000/svg">
<g clip-path="url(#clip0_50_214)">
<path d="M1036.01 2484.28C1017.76 2483.14 999.509 2482.01 981.261 2480.85C969.164 2480.08 957.03 2479.64 944.977 2478.38C921.062 2475.87 897.085 2473.64 873.333 2469.93C841.232 2464.92 808.924 2460.31 777.407 2452.53C711.11 2436.18 646.904 2414.2 587.817 2377.65C556.567 2358.32 526.336 2338.21 499.624 2312.75C482.37 2296.3 464.116 2280.75 448.393 2262.87C417.67 2227.95 390.94 2190.05 367.901 2149.04C332.601 2086.21 311.405 2018.53 296.944 1948.33C290.305 1916.11 286.468 1883.28 281.637 1850.68C278.032 1826.35 274.791 1801.97 271.532 1777.59C267.099 1744.44 263.127 1711.21 258.373 1678.11C251.081 1627.33 241.045 1577.18 226.15 1528.06C204.657 1457.19 171.896 1392.22 129.413 1332.34C117.041 1314.91 103.277 1298.51 91 1279.67C104.625 1284.79 118.561 1289.18 131.819 1295.14C175.39 1314.76 214.791 1340.76 250.544 1373.34C304.599 1422.58 336.811 1484.66 354.658 1554.9C368.287 1608.54 379.086 1662.96 390.408 1717.19C407.365 1798.41 420.98 1880.39 444.801 1960C462.112 2017.86 483.062 2074.06 516.17 2124.69C556.105 2185.75 609.078 2232.07 671.097 2268.3C723.983 2299.19 780.388 2320.66 839.615 2334.04C864.387 2339.63 889.796 2343.17 915.103 2345.16C957.905 2348.53 1000.84 2351.32 1043.74 2351.67C1073.74 2351.92 1103.76 2347.58 1133.79 2345.48C1189.45 2341.59 1244.15 2331.5 1298.11 2317.51C1351.55 2303.65 1403.99 2286.68 1451.04 2255.89C1510.82 2216.77 1550.81 2162.75 1565.35 2091.26C1573.65 2050.46 1567.18 2010.24 1550.48 1972.27C1526.7 1918.21 1491.93 1871.99 1449.35 1832.39C1405.91 1791.99 1354.21 1766.43 1296.99 1753.86C1268.54 1747.61 1239.44 1743.72 1210.43 1741.01C1179.39 1738.11 1148.01 1735.56 1116.96 1737.01C1079.55 1738.75 1042.35 1744.94 1005.04 1749.03C994.756 1750.15 984.413 1750.97 974.076 1751.26C971.04 1751.34 967.94 1749.15 964.868 1748C966.244 1744.25 966.546 1738.64 969.173 1737.05C983.346 1728.43 997.519 1719.31 1012.76 1713.12C1051.5 1697.4 1092.27 1690.46 1133.51 1684.67C1184.39 1677.53 1235.44 1675.33 1286.54 1675.11C1325.99 1674.94 1365.54 1677.53 1404.91 1680.74C1438.81 1683.5 1472.5 1689.02 1506.31 1693.07C1559.43 1699.43 1612.84 1702.58 1666.16 1699.29C1709.74 1696.59 1753.03 1689.12 1792.14 1667.16C1817.58 1652.88 1836 1631.43 1839.29 1601.21C1843.66 1561.2 1827.13 1528.63 1786.2 1511.79C1763.04 1502.27 1738.73 1497.88 1713.86 1496.93C1688.55 1495.95 1663.2 1494.38 1637.9 1494.78C1599.74 1495.37 1561.61 1498.43 1523.45 1498.65C1456.18 1499.02 1393.42 1482.22 1337.08 1443.29C1329.67 1438.16 1321.82 1433.69 1314.46 1428.48C1312.31 1426.96 1311.16 1423.94 1309.55 1421.6C1312.15 1420.21 1314.76 1417.64 1317.35 1417.66C1324.17 1417.71 1331.21 1418.04 1337.78 1419.77C1377.37 1430.19 1417.38 1432.65 1457.98 1428.29C1488.48 1425.01 1519.11 1422.92 1549.58 1419.35C1571.03 1416.84 1592.26 1412.42 1613.67 1409.47C1626.38 1407.71 1639.31 1407.63 1652.02 1405.9C1666.61 1403.92 1681.01 1400.54 1695.59 1398.51C1706.17 1397.05 1716.91 1396.32 1727.6 1396.13C1748.3 1395.76 1769.03 1396.67 1789.71 1395.88C1839.14 1394.01 1886.97 1401.69 1932.47 1421.45C1980.96 1442.49 2017.24 1476.87 2037.06 1527.81C2054.23 1571.95 2047.79 1613.41 2021.66 1651.6C1990.78 1696.74 1948.58 1728.16 1898.48 1746.34C1853.73 1762.57 1807.26 1773.78 1761.74 1787.86C1735.56 1795.96 1709.06 1803.66 1684.01 1814.68C1659.49 1825.46 1655.76 1846.81 1672.07 1868.32C1676.7 1874.43 1682.63 1879.66 1688.5 1884.61C1712.51 1904.84 1738.12 1923.3 1760.51 1945.23C1789.81 1973.95 1804.77 2010.71 1808.64 2052.3C1815.92 2130.57 1792.79 2199.63 1746.14 2260.27C1724.72 2288.13 1698.17 2311.47 1666.88 2328.39C1633.85 2346.26 1602.11 2366.86 1568.32 2382.99C1496.59 2417.24 1421.57 2442.07 1343.69 2457.01C1305.98 2464.24 1268.1 2470.64 1230.12 2476.14C1210.01 2479.05 1189.52 2479.2 1169.2 2480.64C1150.26 2481.97 1131.32 2483.36 1110.79 2484.04C1084.8 2483.66 1060.4 2483.97 1036.01 2484.28Z" fill="#8F6F24"/>
<path d="M1219.41 756.773C1209.18 751.619 1199.04 747.622 1190.52 741.32C1179.56 733.214 1180.81 722.321 1193.53 718.171C1207.43 713.634 1222.15 710.58 1236.7 709.579C1251.76 708.541 1267.03 710.958 1282.22 711.458C1292.79 711.807 1303.4 711.089 1313.96 711.516C1343.67 712.723 1373.37 714.492 1403.09 715.475C1407.92 715.635 1413.14 713.541 1417.58 711.266C1419.54 710.263 1421.52 705.752 1420.9 703.623C1417.54 692.05 1421.37 682.638 1430.24 676.661C1441 669.404 1452.6 662.758 1464.72 658.5C1475.8 654.606 1484.98 659.559 1490.81 673.752C1500.47 697.244 1509.61 721.28 1515.61 745.947C1522.04 772.42 1525.7 799.766 1528.49 826.955C1530.81 849.51 1530.26 872.391 1530.72 895.133C1533.19 1015.92 1493.09 1121.68 1426.11 1219.62C1367.86 1304.81 1296.39 1377.2 1224.66 1449.57C1195.76 1478.73 1165.02 1506.04 1134.54 1533.51C1101.28 1563.49 1067.16 1592.48 1033.77 1622.3C1002.14 1650.54 970.284 1678.57 939.735 1708C894.671 1751.42 849.515 1794.85 806.53 1840.38C759.057 1890.67 716.002 1944.89 687.571 2009.42C674.817 2038.38 667.164 2068.71 663.817 2100.63C659.471 2142.08 669.526 2180.82 679.831 2219.85C682.458 2229.81 684.88 2239.82 686.515 2250.12C653.558 2212.66 631.529 2169.36 617.996 2121.26C607.723 2084.75 604.869 2047.29 607.769 2009.87C612.138 1953.55 632.332 1902.55 664.111 1856.48C696.215 1809.93 733.238 1767.75 774.027 1729.07C802.758 1701.83 831.468 1674.52 861.216 1648.47C899.345 1615.1 938.825 1583.35 977.128 1550.18C1011.25 1520.63 1045.43 1491.04 1078.01 1459.75C1113.24 1425.91 1147.96 1391.3 1180.54 1354.82C1221.61 1308.84 1260.6 1260.94 1294.65 1209C1329.18 1156.32 1358.52 1101.2 1376.5 1040.16C1384.55 1012.85 1388.89 984.781 1386 956.604C1383.95 936.622 1377.96 916.879 1372.08 897.558C1367.43 882.303 1353.24 880.779 1340.4 880.878C1287.52 881.285 1236.71 870.149 1187.06 852.735C1177.77 849.475 1168.89 844.266 1160.69 838.632C1152.86 833.249 1152.8 825.998 1161.66 821.676C1171.93 816.667 1183.62 813.619 1194.98 812.319C1216.91 809.809 1239.04 809.128 1261.09 807.689C1261.43 807.665 1261.86 807.776 1262.12 807.613C1267.98 803.841 1276.77 801.331 1279.03 795.95C1282.66 787.288 1273.5 781.698 1267.27 778.415C1252.03 770.367 1235.95 763.965 1219.41 756.773Z" fill="#8F6F24"/>
<path d="M796.289 -26.3915C807.443 -3.17729 799.605 17.0426 787.916 35.7588C774.935 56.5446 759.237 75.5828 746.725 96.631C739.416 108.925 734.329 123.282 731.292 137.4C727.278 156.043 737.918 169.608 752.341 179.131C781.636 198.472 813.455 201.25 846.319 190.756C852.415 188.807 857.494 183.52 865.446 178.154C857.06 171.865 851.389 166.834 845.025 163.015C834.909 156.945 824.202 151.913 813.967 146.035C792.162 133.505 790.769 109.141 804.163 89.771C819.177 68.0602 841.121 56.9873 865.239 50.8713C905.042 40.7771 942.909 46.51 975.81 72.5629C1002.61 93.7873 1017.28 121.848 1015.22 157.861C1012.17 211.113 980.836 241.751 935.917 259.749C886.884 279.395 835.47 282.531 783.25 278.025C757.806 275.83 732.874 271.95 709.059 262.605C675.111 249.281 648.308 228.369 638.149 190.203C629.002 155.834 638.341 125.946 659.207 99.3004C671.536 83.557 685.692 69.3246 698.702 54.1215C704.368 47.503 710.345 40.716 714.042 32.9393C716.531 27.699 717.887 17.7176 715.06 15.0273C711.278 11.4324 702.122 10.5357 696.753 12.5708C683.958 17.4207 672.223 25.1137 659.693 30.8161C649.105 35.6349 638.184 39.9037 627.07 43.2234C618.624 45.7471 608.613 43.8066 605.32 35.7169C602.804 29.5366 604.299 19.2423 607.929 13.2801C619.997 -6.54476 639.865 -17.6988 659.082 -28.7758C676.981 -39.0929 695.116 -49.8284 714.423 -56.5395C744.25 -66.9089 781.61 -53.1392 796.289 -26.3915Z" fill="#8F6F24"/>
<path d="M1388.28 482.543C1395.28 483.767 1401.45 484.497 1407.32 486.303C1438.98 496.058 1446.85 527.796 1424.42 552.527C1408.1 570.528 1388.33 583.267 1367.11 593.688C1314.3 619.632 1258.53 636.865 1201.51 649.633C1170.47 656.581 1139.1 662.48 1107.6 666.557C1078.2 670.362 1048.46 671.537 1018.83 673.11C993.872 674.434 968.8 676.138 943.889 675.059C899.222 673.125 854.216 672.438 811 658.227C798.209 654.022 785.429 649.252 777.462 636.902C771.959 628.375 773.018 620.6 782.308 617.055C796.263 611.726 810.794 607.212 825.462 604.787C845.824 601.416 866.527 600.151 887.108 598.272C898.835 597.201 910.615 596.742 922.366 595.936C952.643 593.862 982.959 592.254 1013.18 589.561C1117.15 580.3 1216.06 552.419 1309.65 504.828C1334.03 492.431 1359.29 482.124 1388.28 482.543Z" fill="#8F6F24"/>
<path d="M1035.63 429.104C1105.17 413.008 1169.52 384.863 1233.59 355.76C1254.79 346.127 1277.05 340.412 1300.72 341.305C1319.71 342.024 1334.69 352.584 1340.89 370.629C1347.7 390.462 1336.72 404.297 1324.96 416.525C1307.4 434.793 1285.63 447.259 1262.69 457.395C1201.99 484.203 1138.78 502.645 1073.89 514.646C1044.89 520.009 1015.39 523.185 985.973 525.361C950.718 527.97 915.321 529.162 879.968 529.633C849.658 530.038 819.191 530.154 789.041 527.461C760.537 524.913 731.612 521.9 705.168 508.68C695.75 503.975 684.459 498.739 685.212 486.826C685.93 475.48 697.626 470.652 707.113 468.494C725.795 464.25 744.875 461.598 763.906 459.274C785.801 456.601 807.816 454.929 829.793 452.959C839.804 452.064 849.844 451.479 859.876 450.787C881.594 449.289 903.457 448.928 925.007 446.078C961.686 441.229 998.171 434.822 1035.63 429.104Z" fill="#8F6F24"/>
<path d="M762.265 394.778C741.562 393.562 720.743 393.35 700.179 390.889C672.295 387.556 644.367 383.639 616.969 377.563C607.493 375.46 598.069 367.528 591.246 359.824C582.18 349.589 585.411 340.954 598.453 337.274C611.274 333.656 624.345 330.358 637.518 328.79C667.278 325.248 697.146 322.598 727.01 320.091C748.711 318.267 770.505 317.622 792.2 315.769C812.05 314.073 831.948 312.264 851.601 309.059C881.684 304.155 911.645 298.376 941.53 292.312C1000.39 280.37 1056.37 259.667 1110.52 233.4C1141.43 218.404 1172.93 205.045 1208.14 206.732C1222.5 207.419 1236.18 210.813 1245.64 223.581C1254.01 234.884 1252.16 252.524 1242.1 266.618C1229.71 283.976 1212.57 295.252 1194.81 305.202C1139.9 335.968 1080.78 355.368 1020.03 369.364C986.028 377.196 951.561 383.226 917.06 388.336C895.284 391.561 873.054 391.547 851.031 393.085C844.865 393.519 838.725 394.313 831.023 394.275C815.25 393.394 801.021 392.923 786.801 393.051C778.617 393.126 770.444 394.17 762.265 394.778Z" fill="#8F6F24"/>
<path d="M760.692 909.867C782.674 925.791 804.122 941.171 825.523 956.621C857.624 979.799 890.276 1002.23 921.572 1026.5C943.127 1043.22 956.509 1067.25 969.042 1091.47C972.183 1097.54 972.977 1106.92 983.314 1104.79C991.918 1103.02 996.315 1095.45 995.766 1083.28C994.675 1059.08 985.068 1038.56 970.048 1020.14C936.082 978.487 892.472 950.321 846.06 925.887C820.709 912.54 795.449 899.013 770.365 885.154C764.371 881.841 758.624 877.484 753.976 872.438C751.355 869.593 751.204 864.361 749.942 860.207C753.731 859.53 758.213 857.168 761.198 858.454C779.786 866.478 799.003 873.674 816.207 884.232C851.371 905.813 886.233 928.135 919.637 952.436C949.825 974.398 977.727 999.725 998.424 1031.81C1013.2 1054.71 1015.83 1080.44 1011.35 1107.06C1009.37 1118.77 1007.43 1130.55 1004.37 1141.99C998.441 1164.22 980.603 1175.35 958.978 1168.92C901.445 1151.78 848.288 1126.02 804.994 1082.21C778.893 1055.8 765.078 1022.6 755.741 987.05C747.283 954.853 734.648 924.741 716.453 896.84C703.12 876.396 694.112 853.812 695.084 828.377C695.226 824.645 696.2 820.946 699.467 816.016C702.279 819.509 705.743 822.644 707.794 826.556C717.398 844.903 725.719 864.029 736.315 881.736C742.487 892.052 752.079 900.22 760.692 909.867Z" fill="#8F6F24"/>
<path d="M1086.99 1164.04C1078.03 1181.77 1069.72 1198.94 1060.75 1215.74C1059.11 1218.8 1054.79 1220.38 1051.72 1222.64C1050.52 1219.28 1048.05 1215.79 1048.35 1212.57C1050.27 1191.94 1051.69 1171.17 1055.35 1150.83C1068.88 1075.55 1058.78 1006.57 1008.87 946.188C970.22 899.428 921.447 867.228 868.782 840.613C838.908 825.515 807.641 813.337 777.221 799.347C766.075 794.222 755.561 787.661 744.756 781.756C745.003 780.186 745.25 778.618 745.497 777.048C750.296 776.859 755.447 775.401 759.842 776.678C796.711 787.393 833.783 797.553 870.134 809.919C926.359 829.049 979.367 855.353 1026.6 892.404C1064.49 922.12 1095.93 957.255 1109.31 1005.95C1122.45 1053.79 1113.7 1099.37 1095.74 1144C1093.12 1150.52 1090.2 1156.9 1086.99 1164.04Z" fill="#8F6F24"/>
<path d="M679.816 1409.71C678.894 1409.11 678.458 1409.08 678.26 1408.85C674.692 1404.55 671.149 1400.23 667.601 1395.91C672.824 1393.78 677.876 1390.68 683.298 1389.67C720.664 1382.72 758.318 1377.08 793.689 1361.86C803.703 1357.55 812.606 1358.47 819.563 1367.87C841.613 1397.69 863.939 1427.3 885.453 1457.52C890.619 1464.77 893.853 1473.8 896.596 1482.46C903.262 1503.55 888.653 1519.1 867.147 1515.65C809.337 1506.38 760.034 1479.62 716.333 1440.7C704.597 1430.25 692.399 1420.34 679.816 1409.71Z" fill="#8F6F24"/>
<path d="M804.477 1289.73C797.804 1298.48 794.617 1307.47 795.629 1317.93C797.383 1336.08 789.175 1347.97 773.632 1356.07C753.001 1366.81 731.097 1371.7 708.248 1372.61C695.261 1373.12 682.175 1373.5 669.259 1372.39C663.081 1371.86 655.286 1369.42 651.517 1364.94C636.866 1347.53 616.646 1345.04 596.862 1340.62C587.613 1338.56 578.521 1335.73 569.574 1331.6C579.676 1320.4 592.339 1320.17 604.279 1319.06C662.488 1313.68 720.039 1305.27 774.437 1281.9C781.627 1278.82 787.933 1273.57 794.631 1269.3C799.276 1266.34 804.32 1258.98 809.247 1266.03C811.844 1269.75 809.677 1277.27 808.933 1282.97C808.65 1285.15 806.327 1287.05 804.477 1289.73Z" fill="#8F6F24"/>
<path d="M1036.96 2484.4C1060.4 2483.97 1084.8 2483.66 1109.88 2483.82C1086.35 2484.36 1062.13 2484.43 1036.96 2484.4Z" fill="#8F6F24"/>
<path d="M763.228 394.904C770.444 394.171 778.617 393.127 786.801 393.054C801.024 392.923 815.25 393.394 830.133 394.156C808.589 394.808 786.388 394.918 763.228 394.904Z" fill="#8F6F24"/>
<path d="M2670.08 2384.68C2705.56 2384.68 2736.1 2378.86 2761.7 2367.23C2787.29 2355.01 2814.05 2335.81 2841.98 2309.64L2908.29 2377.7C2843.72 2449.24 2765.19 2485.02 2672.7 2485.02C2580.79 2485.02 2504.29 2455.35 2443.21 2396.02C2382.72 2336.69 2352.47 2261.65 2352.47 2170.9C2352.47 2080.16 2383.3 2004.54 2444.96 1944.04C2507.2 1883.54 2585.44 1853.29 2679.68 1853.29C2774.5 1853.29 2853.61 1888.2 2917 1958L2851.57 2029.55C2822.49 2001.63 2794.86 1982.14 2768.68 1971.09C2743.09 1960.04 2712.84 1954.51 2677.93 1954.51C2616.27 1954.51 2564.5 1974.58 2522.62 2014.72C2480.73 2054.27 2459.79 2105.17 2459.79 2167.41C2459.79 2229.07 2480.44 2280.84 2521.75 2322.73C2563.63 2364.03 2613.07 2384.68 2670.08 2384.68ZM3704.35 2066.2C3704.35 2166.83 3660.43 2230.24 3572.59 2256.41L3732.27 2478.04H3601.38L3455.67 2272.99H3320.42V2478.04H3217.46V1868.13H3444.32C3537.4 1868.13 3604 1883.83 3644.14 1915.24C3684.28 1946.66 3704.35 1996.97 3704.35 2066.2ZM3448.69 2179.63C3506.86 2179.63 3546.41 2170.61 3567.35 2152.58C3588.3 2134.55 3598.77 2105.75 3598.77 2066.2C3598.77 2026.06 3588 1998.72 3566.48 1984.18C3544.96 1969.05 3506.57 1961.49 3451.3 1961.49H3320.42V2179.63H3448.69ZM4463.94 1868.13V1964.98H4138.47V2126.4H4430.78V2218.02H4138.47V2381.19H4474.41V2478.04H4035.51V1868.13H4463.94ZM4876.05 2339.3L4814.97 2478.04H4705.03L4973.78 1868.13H5083.72L5352.47 2478.04H5242.53L5181.45 2339.3H4876.05ZM5139.57 2244.2L5028.75 1992.9L4917.93 2244.2H5139.57ZM5850.88 1962.36V2478.04H5747.92V1962.36H5562.93V1868.13H6035.86V1962.36H5850.88ZM6330.35 1868.13H6433.31V2478.04H6330.35V1868.13ZM7219.96 2012.1C7178.66 1969.05 7127.76 1947.53 7067.26 1947.53C7006.76 1947.53 6955.57 1969.05 6913.69 2012.1C6872.39 2055.14 6851.74 2107.5 6851.74 2169.16C6851.74 2230.24 6872.39 2282.3 6913.69 2325.34C6955.57 2368.39 7006.76 2389.91 7067.26 2389.91C7127.76 2389.91 7178.66 2368.39 7219.96 2325.34C7261.84 2282.3 7282.78 2230.24 7282.78 2169.16C7282.78 2107.5 7261.84 2055.14 7219.96 2012.1ZM7295.87 2394.27C7234.21 2454.19 7158.01 2484.15 7067.26 2484.15C6976.51 2484.15 6900.31 2454.19 6838.65 2394.27C6776.99 2333.78 6746.16 2258.74 6746.16 2169.16C6746.16 2078.99 6776.99 2003.95 6838.65 1944.04C6900.31 1883.54 6976.51 1853.29 7067.26 1853.29C7158.01 1853.29 7234.21 1883.54 7295.87 1944.04C7357.53 2003.95 7388.36 2078.99 7388.36 2169.16C7388.36 2258.74 7357.53 2333.78 7295.87 2394.27ZM8158.69 1868.13H8261.65V2478.04H8149.96L7804.43 2033.04V2478.04H7701.47V1868.13H7804.43L8158.69 2323.6V1868.13ZM8798.25 1948.4C8768.58 1948.4 8744.15 1954.51 8724.95 1966.73C8705.76 1978.94 8696.16 1997.56 8696.16 2022.57C8696.16 2047 8705.76 2065.91 8724.95 2079.28C8744.15 2092.08 8784.87 2106.04 8847.11 2121.17C8909.94 2136.29 8957.05 2157.52 8988.47 2184.86C9020.46 2212.2 9036.46 2252.63 9036.46 2306.15C9036.46 2359.08 9016.39 2402.13 8976.25 2435.28C8936.11 2468.44 8883.47 2485.02 8818.32 2485.02C8722.92 2485.02 8638.28 2452.15 8564.4 2386.42L8628.97 2308.76C8690.63 2362.28 8754.62 2389.04 8820.93 2389.04C8854.09 2389.04 8880.27 2382.06 8899.46 2368.1C8919.24 2353.56 8929.13 2334.65 8929.13 2311.38C8929.13 2287.53 8919.83 2269.21 8901.21 2256.41C8883.18 2243.03 8851.76 2231.11 8806.97 2220.64C8762.18 2209.58 8728.15 2199.7 8704.88 2190.97C8681.62 2181.66 8660.96 2169.74 8642.93 2155.2C8606.87 2127.86 8588.83 2085.97 8588.83 2029.55C8588.83 1973.12 8609.19 1929.79 8649.91 1899.54C8691.21 1868.71 8742.11 1853.29 8802.61 1853.29C8841.58 1853.29 8880.27 1859.69 8918.66 1872.49C8957.05 1885.29 8990.21 1903.32 9018.13 1926.59L8963.16 2004.24C8945.13 1987.96 8920.7 1974.58 8889.87 1964.11C8859.04 1953.64 8828.5 1948.4 8798.25 1948.4Z" fill="black"/>
<mask id="mask0_50_214" style="mask-type:luminance" maskUnits="userSpaceOnUse" x="2261" y="0" width="6865" height="1440">
<path d="M9125.17 0H2261.02V1439.71H9125.17V0Z" fill="white"/>
</mask>
<g mask="url(#mask0_50_214)">
<path d="M3405.52 105.209V142.125C3372.57 143.355 3347.35 148.277 3329.9 156.891C3313.41 164.274 3302.27 179.04 3296.45 201.19C3290.64 222.108 3287.73 255.332 3287.73 300.861V1216.37C3287.73 1260.66 3290.64 1293.89 3296.45 1316.04C3302.27 1338.19 3313.41 1352.95 3329.9 1360.34C3347.35 1367.72 3372.57 1372.64 3405.52 1375.1V1412.02C3383.21 1409.56 3355.12 1408.33 3321.18 1408.33C3288.22 1407.1 3254.77 1406.48 3220.83 1406.48C3183.02 1406.48 3147.62 1407.1 3114.67 1408.33C3081.72 1408.33 3055.04 1409.56 3034.68 1412.02V1375.1C3067.64 1372.64 3092.36 1367.72 3108.85 1360.34C3126.3 1352.95 3137.94 1338.19 3143.75 1316.04C3149.57 1293.89 3152.48 1260.66 3152.48 1216.37V201.19L3158.3 206.727L2802.01 1421.25H2778.74L2412.26 223.339V1197.91C2412.26 1242.21 2415.17 1277.28 2420.99 1303.12C2427.77 1327.73 2440.38 1345.57 2458.8 1356.65C2478.19 1366.49 2506.79 1372.64 2544.6 1375.1V1412.02C2527.15 1409.56 2504.36 1408.33 2476.25 1408.33C2448.13 1407.1 2421.47 1406.48 2396.27 1406.48C2372.03 1406.48 2347.3 1407.1 2322.1 1408.33C2297.86 1408.33 2277.5 1409.56 2261.02 1412.02V1375.1C2293.98 1372.64 2318.7 1366.49 2335.19 1356.65C2352.64 1345.57 2364.27 1327.73 2370.09 1303.12C2375.91 1277.28 2378.81 1242.21 2378.81 1197.91V300.861C2378.81 255.332 2375.91 222.108 2370.09 201.19C2364.27 179.04 2352.64 164.274 2335.19 156.891C2318.7 148.277 2293.98 143.355 2261.02 142.125V105.209C2277.5 106.44 2297.86 107.671 2322.1 108.901C2347.3 110.131 2372.03 110.747 2396.27 110.747C2417.59 110.747 2439.41 110.131 2461.71 108.901C2484.98 107.671 2504.36 106.44 2519.88 105.209L2850 1208.98L2825.27 1223.75L3152.48 110.747C3164.11 110.747 3175.25 110.747 3185.93 110.747C3197.56 110.747 3209.2 110.747 3220.83 110.747C3254.77 110.747 3288.22 110.131 3321.18 108.901C3355.12 107.671 3383.21 106.44 3405.52 105.209ZM3650.16 1424.94C3610.4 1424.94 3575.99 1415.71 3546.91 1397.25C3517.82 1377.57 3495.51 1350.49 3480.01 1316.04C3465.47 1281.59 3458.2 1241.59 3458.2 1196.06C3458.2 1141.92 3467.88 1097.62 3487.28 1063.17C3507.64 1028.71 3533.32 1001.03 3564.36 980.108C3595.36 959.187 3627.85 941.963 3661.79 928.427C3696.7 913.661 3729.65 900.122 3760.68 887.819C3791.69 874.283 3816.91 858.902 3836.31 841.675C3856.67 824.445 3866.85 801.684 3866.85 773.381V658.943C3866.85 607.259 3860.53 567.884 3847.94 540.812C3836.31 513.742 3820.31 495.899 3799.95 487.284C3779.59 477.438 3756.79 472.52 3731.6 472.52C3707.34 472.52 3681.17 476.828 3653.07 485.44C3625.9 494.052 3604.09 511.895 3587.63 538.968C3606.04 543.889 3622.03 556.195 3635.62 575.882C3649.17 595.57 3655.98 620.798 3655.98 651.559C3655.98 682.322 3648.21 706.933 3632.71 725.391C3617.18 742.618 3597.31 751.23 3573.08 751.23C3544.96 751.23 3524.1 740.157 3510.55 718.006C3497.93 694.628 3491.64 668.789 3491.64 640.486C3491.64 608.49 3497.93 582.65 3510.55 562.963C3523.14 543.275 3539.14 524.818 3558.54 507.588C3580.82 487.9 3609.44 471.29 3644.34 457.754C3680.21 442.987 3720.43 435.603 3765.05 435.603C3804.78 435.603 3838.72 441.757 3866.85 454.06C3894.94 465.136 3918.21 481.749 3936.65 503.897C3961.84 533.43 3978.33 569.728 3986.1 612.797C3993.83 654.636 3997.73 705.086 3997.73 764.152V1277.28C3997.73 1308.04 4001.1 1330.19 4007.91 1343.73C4015.65 1357.26 4027.28 1364.03 4042.81 1364.03C4053.46 1364.03 4063.64 1360.96 4073.35 1354.8C4083.04 1348.65 4094.67 1338.8 4108.26 1325.27L4124.25 1356.65C4103.89 1376.33 4084.49 1392.95 4066.08 1406.48C4047.64 1418.79 4022.92 1424.94 3991.91 1424.94C3963.79 1424.94 3940.52 1418.79 3922.11 1406.48C3903.67 1394.18 3889.62 1376.33 3879.93 1352.95C3871.21 1328.34 3866.85 1297.58 3866.85 1260.66C3840.67 1316.04 3809.14 1357.26 3772.32 1384.33C3736.43 1411.4 3695.71 1424.94 3650.16 1424.94ZM3702.51 1351.11C3734.51 1351.11 3764.06 1339.42 3791.22 1316.04C3819.32 1292.66 3844.54 1257.59 3866.85 1210.83V849.057C3855.21 869.978 3838.23 887.819 3815.95 902.585C3793.64 916.121 3769.41 930.271 3743.23 945.038C3717.06 958.574 3691.84 975.187 3667.61 994.875C3644.34 1013.33 3624.94 1037.94 3609.44 1068.7C3593.91 1099.47 3586.17 1139.46 3586.17 1188.68C3586.17 1237.9 3596.35 1277.28 3616.71 1306.81C3638.03 1336.34 3666.62 1351.11 3702.51 1351.11ZM4316.27 1424.94C4276.51 1424.94 4242.11 1415.71 4213.02 1397.25C4183.94 1377.57 4161.63 1350.49 4146.12 1316.04C4131.58 1281.59 4124.31 1241.59 4124.31 1196.06C4124.31 1141.92 4134 1097.62 4153.4 1063.17C4173.76 1028.71 4199.44 1001.03 4230.47 980.108C4261.51 959.187 4293.97 941.963 4327.91 928.427C4362.81 913.661 4395.76 900.122 4426.8 887.819C4457.83 874.283 4483.02 858.902 4502.42 841.675C4522.78 824.445 4532.96 801.684 4532.96 773.381V658.943C4532.96 607.259 4526.65 567.884 4514.05 540.812C4502.42 513.742 4486.42 495.899 4466.06 487.284C4445.7 477.438 4422.93 472.52 4397.71 472.52C4373.49 472.52 4347.31 476.828 4319.18 485.44C4292.05 494.052 4270.23 511.895 4253.74 538.968C4272.15 543.889 4288.15 556.195 4301.73 575.882C4315.31 595.57 4322.09 620.798 4322.09 651.559C4322.09 682.322 4314.33 706.933 4298.82 725.391C4283.32 742.618 4263.43 751.23 4239.2 751.23C4211.07 751.23 4190.25 740.157 4176.66 718.006C4164.07 694.628 4157.76 668.789 4157.76 640.486C4157.76 608.49 4164.07 582.65 4176.66 562.963C4189.26 543.275 4205.26 524.818 4224.66 507.588C4246.96 487.9 4275.55 471.29 4310.46 457.754C4346.32 442.987 4386.57 435.603 4431.16 435.603C4470.92 435.603 4504.83 441.757 4532.96 454.06C4561.09 465.136 4584.35 481.749 4602.77 503.897C4627.98 533.43 4644.44 569.728 4652.21 612.797C4659.98 654.636 4663.84 705.086 4663.84 764.152V1277.28C4663.84 1308.04 4667.25 1330.19 4674.02 1343.73C4681.79 1357.26 4693.42 1364.03 4708.93 1364.03C4719.6 1364.03 4729.78 1360.96 4739.47 1354.8C4749.15 1348.65 4760.79 1338.8 4774.37 1325.27L4790.37 1356.65C4770.01 1376.33 4750.61 1392.95 4732.2 1406.48C4713.78 1418.79 4689.06 1424.94 4658.03 1424.94C4629.9 1424.94 4606.63 1418.79 4588.22 1406.48C4569.81 1394.18 4555.73 1376.33 4546.05 1352.95C4537.32 1328.34 4532.96 1297.58 4532.96 1260.66C4506.78 1316.04 4475.28 1357.26 4438.43 1384.33C4402.57 1411.4 4361.85 1424.94 4316.27 1424.94ZM4368.63 1351.11C4400.62 1351.11 4430.2 1339.42 4457.34 1316.04C4485.46 1292.66 4510.65 1257.59 4532.96 1210.83V849.057C4521.33 869.978 4504.37 887.819 4482.06 902.585C4459.75 916.121 4435.52 930.271 4409.35 945.038C4383.17 958.574 4357.95 975.187 4333.73 994.875C4310.46 1013.33 4291.06 1037.94 4275.55 1068.7C4260.05 1099.47 4252.29 1139.46 4252.29 1188.68C4252.29 1237.9 4262.47 1277.28 4282.83 1306.81C4304.15 1336.34 4332.77 1351.11 4368.63 1351.11ZM5807.4 105.209C5803.53 151.969 5800.62 197.498 5798.67 241.797C5797.71 284.865 5797.22 318.088 5797.22 341.469C5797.22 371.002 5797.71 398.688 5798.67 424.53C5799.66 450.369 5800.62 473.137 5801.58 492.822H5768.13C5761.35 406.686 5752.13 339.009 5740.5 289.787C5728.87 239.336 5708.51 203.035 5679.42 180.886C5650.33 158.737 5605.25 147.662 5544.17 147.662H5452.55C5419.6 147.662 5394.38 151.354 5376.93 158.737C5360.47 164.89 5349.3 179.04 5343.48 201.19C5337.67 222.108 5334.76 255.332 5334.76 300.861V1216.37C5334.76 1260.66 5338.16 1293.89 5344.94 1316.04C5352.7 1338.19 5367.25 1352.95 5388.57 1360.34C5409.91 1367.72 5440.92 1372.64 5481.64 1375.1V1412.02C5456.45 1409.56 5424.46 1408.33 5385.66 1408.33C5346.89 1407.1 5307.62 1406.48 5267.86 1406.48C5230.05 1406.48 5194.68 1407.1 5161.73 1408.33C5128.75 1408.33 5102.1 1409.56 5081.74 1412.02V1375.1C5114.7 1372.64 5139.42 1367.72 5155.91 1360.34C5173.33 1352.95 5184.97 1338.19 5190.79 1316.04C5196.6 1293.89 5199.51 1260.66 5199.51 1216.37V300.861C5199.51 255.332 5196.6 222.108 5190.79 201.19C5184.97 179.04 5173.33 164.274 5155.91 156.891C5139.42 148.277 5114.7 143.355 5081.74 142.125V105.209C5117.61 106.44 5155.42 107.671 5195.15 108.901C5234.91 108.901 5274.17 109.516 5312.94 110.747C5351.74 110.747 5387.61 110.747 5420.56 110.747C5454.5 110.747 5482.13 110.747 5503.45 110.747C5548.07 110.747 5598.48 110.747 5654.7 110.747C5711.91 109.516 5762.81 107.671 5807.4 105.209ZM5581.98 754.924C5581.98 754.924 5581.98 761.078 5581.98 773.381C5581.98 785.684 5581.98 791.838 5581.98 791.838H5291.13C5291.13 791.838 5291.13 785.684 5291.13 773.381C5291.13 761.078 5291.13 754.924 5291.13 754.924H5581.98ZM5609.62 511.279C5605.75 581.42 5603.8 634.948 5603.8 671.863C5604.79 708.777 5605.25 742.618 5605.25 773.381C5605.25 804.141 5605.75 837.982 5606.71 874.899C5607.7 911.814 5610.11 965.342 5613.98 1035.48H5580.53C5576.66 996.102 5571.8 957.957 5565.99 921.042C5561.16 882.898 5549.52 852.131 5531.08 828.753C5513.63 804.141 5483.59 791.838 5440.92 791.838V754.924C5472.91 754.924 5497.17 746.922 5513.63 730.929C5531.08 713.699 5543.71 692.167 5551.44 666.325C5559.21 640.486 5564.53 614.027 5567.44 586.958C5570.35 558.655 5573.26 533.43 5576.17 511.279H5609.62ZM6492.85 441.14V1212.67C6492.85 1268.05 6500.62 1309.27 6516.12 1336.34C6532.61 1362.18 6561.7 1375.1 6603.38 1375.1V1413.86C6573.33 1410.17 6543.29 1408.33 6513.21 1408.33C6485.11 1408.33 6457.95 1410.17 6431.77 1413.86C6406.58 1417.56 6383.32 1424.32 6361.97 1434.17V1216.37C6337.74 1296.35 6303.33 1353.57 6258.71 1388.02C6215.09 1421.25 6170 1437.86 6123.47 1437.86C6089.55 1437.86 6059.97 1431.71 6034.76 1419.4C6009.57 1407.1 5988.71 1389.87 5972.22 1367.72C5953.81 1343.11 5941.22 1311.12 5934.41 1271.74C5927.63 1232.36 5924.23 1183.76 5924.23 1125.92V662.634C5924.23 607.259 5916.5 566.654 5900.96 540.812C5885.46 513.742 5856.38 500.206 5813.71 500.206V461.445C5844.74 465.136 5874.79 466.982 5903.87 466.982C5932 466.982 5958.67 465.136 5983.86 461.445C6010.03 456.523 6033.8 449.753 6055.12 441.14V1166.53C6055.12 1204.68 6057.06 1239.75 6060.93 1271.74C6064.83 1303.73 6074.52 1329.58 6090.02 1349.26C6105.55 1368.95 6130.74 1378.8 6165.64 1378.8C6203.45 1378.8 6236.9 1364.03 6265.99 1334.5C6296.06 1304.96 6319.33 1264.98 6335.79 1214.52C6353.24 1164.07 6361.97 1107.47 6361.97 1044.71V662.634C6361.97 607.259 6354.23 566.654 6338.7 540.812C6323.2 513.742 6294.11 500.206 6251.44 500.206V461.445C6282.48 465.136 6312.52 466.982 6341.61 466.982C6369.73 466.982 6396.4 465.136 6421.59 461.445C6447.77 456.523 6471.53 449.753 6492.85 441.14ZM6879.77 435.603C6918.55 435.603 6951.53 443.604 6978.67 459.598C7005.8 475.594 7025.7 490.361 7038.29 503.897C7070.28 537.121 7089.68 514.973 7096.46 437.45H7129.91C7127.96 471.904 7126.51 513.126 7125.55 561.116C7124.59 607.876 7124.09 671.246 7124.09 751.23H7090.64C7084.83 705.703 7074.65 661.404 7060.1 618.335C7046.52 575.266 7026.16 540.195 6999.02 513.126C6971.89 484.823 6936.49 470.673 6892.86 470.673C6858.92 470.673 6830.33 482.976 6807.06 507.588C6784.75 530.966 6773.61 566.037 6773.61 612.797C6773.61 649.715 6782.34 681.708 6799.79 708.777C6817.24 734.619 6840.02 759.231 6868.14 782.61C6896.27 804.758 6926.81 829.37 6959.76 856.442C6996.61 885.972 7030.06 916.121 7060.1 946.884C7090.15 977.645 7113.91 1011.49 7131.36 1048.4C7149.77 1085.32 7158.99 1129 7158.99 1179.45C7158.99 1236.05 7147.36 1283.43 7124.09 1321.58C7100.82 1359.72 7070.28 1388.64 7032.47 1408.33C6995.62 1428.01 6954.9 1437.86 6910.31 1437.86C6888.99 1437.86 6868.63 1435.4 6849.23 1430.48C6830.82 1426.79 6812.88 1420.63 6795.43 1412.02C6785.74 1405.87 6775.56 1398.48 6764.89 1389.87C6755.2 1381.26 6745.49 1372.03 6735.8 1362.18C6726.12 1352.34 6717.39 1352.95 6709.62 1364.03C6701.86 1373.88 6696.04 1394.18 6692.17 1424.94H6658.73C6660.67 1385.56 6662.13 1337.57 6663.09 1280.97C6664.05 1224.37 6664.54 1149.3 6664.54 1055.78H6697.99C6704.77 1124.7 6714.48 1184.99 6727.08 1236.67C6739.67 1288.35 6759.56 1328.96 6786.7 1358.49C6813.84 1386.79 6851.65 1400.94 6900.13 1400.94C6919.53 1400.94 6938.91 1395.41 6958.31 1384.33C6978.67 1373.26 6995.62 1354.8 7009.2 1328.96C7022.79 1303.12 7029.56 1268.67 7029.56 1225.6C7029.56 1171.45 7014.06 1127.15 6983.03 1092.7C6951.99 1058.25 6912.73 1021.94 6865.23 983.799C6830.33 955.496 6797.38 927.197 6766.34 898.894C6736.3 870.592 6711.57 838.598 6692.17 802.914C6673.76 767.227 6664.54 724.16 6664.54 673.71C6664.54 618.335 6674.23 573.419 6693.63 538.968C6713.99 503.28 6740.66 477.439 6773.61 461.445C6806.57 444.215 6841.96 435.603 6879.77 435.603ZM7377.51 0C7402.73 0 7424.54 11.6899 7442.96 35.0698C7461.4 58.4494 7470.59 86.1363 7470.59 118.13C7470.59 150.124 7461.4 177.81 7442.96 201.19C7424.54 224.569 7402.73 236.26 7377.51 236.26C7352.32 236.26 7330.51 224.569 7312.07 201.19C7293.66 177.81 7284.44 150.124 7284.44 118.13C7284.44 86.1363 7293.66 58.4494 7312.07 35.0698C7330.51 11.6899 7352.32 0 7377.51 0ZM7453.13 441.14V1240.36C7453.13 1292.04 7461.4 1327.11 7477.86 1345.57C7495.31 1364.03 7523.93 1373.26 7563.66 1373.26V1412.02C7547.2 1410.79 7521.98 1409.56 7488.04 1408.33C7455.08 1405.87 7421.64 1404.64 7387.69 1404.64C7354.74 1404.64 7321.29 1405.87 7287.35 1408.33C7253.43 1409.56 7228.22 1410.79 7211.73 1412.02V1373.26C7251.49 1373.26 7279.61 1364.03 7296.07 1345.57C7313.52 1327.11 7322.25 1292.04 7322.25 1240.36V662.634C7322.25 607.259 7314.51 566.654 7298.98 540.812C7283.48 513.742 7254.39 500.206 7211.73 500.206V461.445C7242.76 465.136 7272.81 466.982 7301.89 466.982C7330.02 466.982 7356.69 465.136 7381.88 461.445C7408.05 456.523 7431.82 449.753 7453.13 441.14ZM7935.92 435.603C7997.96 435.603 8053.72 452.833 8103.16 487.284C8152.61 521.738 8191.88 575.882 8220.96 649.715C8251.01 723.544 8266.04 819.524 8266.04 937.656C8266.04 1055.78 8251.01 1151.76 8220.96 1225.6C8191.88 1298.2 8152.61 1351.72 8103.16 1386.18C8053.72 1420.63 7997.96 1437.86 7935.92 1437.86C7874.84 1437.86 7819.09 1420.63 7768.68 1386.18C7719.24 1351.72 7679.48 1298.2 7649.43 1225.6C7620.35 1151.76 7605.8 1055.78 7605.8 937.656C7605.8 819.524 7620.35 723.544 7649.43 649.715C7679.48 575.882 7719.24 521.738 7768.68 487.284C7819.09 452.833 7874.84 435.603 7935.92 435.603ZM7935.92 472.52C7880.66 472.52 7835.08 508.818 7799.22 581.42C7764.32 654.022 7746.87 772.764 7746.87 937.656C7746.87 1102.54 7764.32 1221.29 7799.22 1293.89C7835.08 1365.26 7880.66 1400.94 7935.92 1400.94C7991.19 1400.94 8036.27 1365.26 8071.17 1293.89C8107.03 1221.29 8124.98 1102.54 8124.98 937.656C8124.98 772.764 8107.03 654.022 8071.17 581.42C8036.27 508.818 7991.19 472.52 7935.92 472.52ZM8806.8 435.603C8843.65 435.603 8874.19 441.757 8898.42 454.06C8923.63 466.366 8944.49 483.593 8960.95 505.744C8979.39 530.356 8992.48 561.116 9000.22 598.031C9007.98 634.948 9011.85 684.782 9011.85 747.539V1240.36C9011.85 1292.04 9020.11 1327.11 9036.57 1345.57C9054.02 1364.03 9082.64 1373.26 9122.38 1373.26V1412.02C9105.91 1410.79 9080.7 1409.56 9046.75 1408.33C9012.84 1405.87 8979.86 1404.64 8947.86 1404.64C8915.87 1404.64 8884.37 1405.87 8853.33 1408.33C8823.29 1409.56 8800.52 1410.79 8784.98 1412.02V1373.26C8819.89 1373.26 8844.61 1364.03 8859.15 1345.57C8873.69 1327.11 8880.97 1292.04 8880.97 1240.36V706.933C8880.97 668.789 8878.55 633.718 8873.69 601.724C8868.87 569.728 8857.7 543.889 8840.25 524.201C8823.78 504.514 8798.07 494.668 8763.17 494.668C8722.45 494.668 8686.59 509.435 8655.55 538.968C8625.51 568.501 8601.75 609.106 8584.29 660.787C8567.83 711.241 8559.57 767.843 8559.57 830.6V1240.36C8559.57 1292.04 8566.84 1327.11 8581.39 1345.57C8595.93 1364.03 8620.65 1373.26 8655.55 1373.26V1412.02C8640.05 1410.79 8616.78 1409.56 8585.75 1408.33C8555.7 1405.87 8524.67 1404.64 8492.68 1404.64C8460.68 1404.64 8427.73 1405.87 8393.79 1408.33C8359.87 1409.56 8334.66 1410.79 8318.16 1412.02V1373.26C8357.92 1373.26 8386.05 1364.03 8402.51 1345.57C8419.96 1327.11 8428.69 1292.04 8428.69 1240.36V662.634C8428.69 607.259 8420.95 566.654 8405.42 540.812C8389.92 513.742 8360.83 500.206 8318.16 500.206V461.445C8349.2 465.136 8379.24 466.982 8408.33 466.982C8436.45 466.982 8463.13 465.136 8488.31 461.445C8514.49 456.523 8538.25 449.753 8559.57 441.14V658.943C8584.79 575.266 8619.69 517.433 8664.28 485.44C8709.86 452.216 8757.35 435.603 8806.8 435.603Z" fill="black"/>
</g>
</g>
<defs>
<clipPath id="clip0_50_214">
<rect width="9127" height="2670" fill="white"/>
</clipPath>
</defs>
</svg>
