<svg width="2869" height="1605" viewBox="0 0 2869 1605" fill="none" xmlns="http://www.w3.org/2000/svg">
<path d="M452.463 1189.53C443.726 1188.99 434.989 1188.46 426.253 1187.92C420.46 1187.56 414.65 1187.36 408.881 1186.76C397.43 1185.59 385.949 1184.55 374.577 1182.82C359.207 1180.47 343.739 1178.32 328.649 1174.68C296.906 1167.04 266.165 1156.76 237.874 1139.67C222.912 1130.63 208.436 1121.23 195.647 1109.33C187.386 1101.64 178.647 1094.37 171.118 1086.01C156.407 1069.68 143.61 1051.96 132.579 1032.79C115.678 1003.41 105.529 971.771 98.6049 938.955C95.4265 923.89 93.5889 908.539 91.2758 893.297C89.5499 881.924 87.9984 870.524 86.4379 859.127C84.3155 843.626 82.4138 828.093 80.1374 812.615C76.6461 788.876 71.8411 765.427 64.7091 742.462C54.4185 709.327 38.7326 678.956 18.3917 650.96C12.4684 642.808 5.87822 635.141 0 626.336C6.52376 628.726 13.1961 630.779 19.544 633.569C40.4057 642.74 59.2705 654.896 76.389 670.125C102.27 693.149 117.693 722.174 126.238 755.014C132.764 780.092 137.934 805.532 143.355 830.887C151.473 868.858 157.993 907.189 169.398 944.409C177.686 971.458 187.717 997.734 203.569 1021.4C222.69 1049.95 248.053 1071.61 277.747 1088.54C303.07 1102.99 330.076 1113.03 358.434 1119.28C370.293 1121.9 382.46 1123.55 394.576 1124.48C415.069 1126.06 435.628 1127.36 456.169 1127.53C470.531 1127.64 484.906 1125.61 499.282 1124.63C525.931 1122.81 552.124 1118.09 577.957 1111.55C603.547 1105.08 628.655 1097.14 651.18 1082.74C679.801 1064.45 698.949 1039.2 705.913 1005.77C709.887 986.7 706.788 967.898 698.79 950.143C687.406 924.871 670.757 903.262 650.372 884.747C629.574 865.857 604.818 853.906 577.422 848.031C563.799 845.11 549.867 843.293 535.979 842.025C521.116 840.667 506.091 839.477 491.225 840.153C473.315 840.968 455.503 843.86 437.639 845.771C432.714 846.298 427.762 846.679 422.813 846.816C421.359 846.856 419.874 845.829 418.404 845.291C419.062 843.536 419.208 840.917 420.465 840.17C427.251 836.141 434.037 831.879 441.334 828.987C459.885 821.635 479.401 818.391 499.151 815.683C523.511 812.343 547.953 811.316 572.416 811.214C591.308 811.136 610.245 812.344 629.092 813.845C645.327 815.138 661.456 817.717 677.646 819.61C703.078 822.584 728.647 824.058 754.177 822.516C775.045 821.256 795.774 817.763 814.499 807.499C826.68 800.823 835.496 790.793 837.075 776.662C839.164 757.959 831.253 742.732 811.655 734.859C800.566 730.404 788.925 728.356 777.016 727.908C764.896 727.453 752.764 726.72 740.649 726.903C722.378 727.178 704.12 728.613 685.852 728.712C653.643 728.886 623.59 721.034 596.617 702.829C593.068 700.433 589.31 698.343 585.789 695.909C584.756 695.195 584.207 693.782 583.436 692.689C584.68 692.039 585.93 690.837 587.169 690.847C590.438 690.874 593.805 691.027 596.952 691.836C615.908 696.709 635.067 697.859 654.505 695.818C669.109 694.284 683.773 693.308 698.36 691.64C708.631 690.466 718.798 688.401 729.049 687.018C735.134 686.197 741.323 686.161 747.409 685.351C754.392 684.422 761.288 682.842 768.269 681.898C773.337 681.212 778.48 680.869 783.596 680.782C793.507 680.612 803.434 681.034 813.334 680.667C837 679.791 859.9 683.381 881.689 692.618C904.902 702.459 922.275 718.53 931.763 742.347C939.984 762.986 936.901 782.367 924.391 800.222C909.605 821.326 889.4 836.017 865.415 844.514C843.988 852.104 821.737 857.345 799.943 863.93C787.409 867.716 774.717 871.314 762.727 876.465C750.986 881.509 749.202 891.487 757.01 901.546C759.228 904.403 762.064 906.847 764.878 909.162C776.37 918.618 788.635 927.247 799.351 937.503C813.381 950.93 820.546 968.118 822.398 987.562C825.884 1024.16 814.809 1056.44 792.474 1084.79C782.215 1097.82 769.505 1108.73 754.524 1116.64C738.708 1124.99 723.512 1134.62 707.332 1142.17C672.991 1158.18 637.072 1169.79 599.782 1176.77C581.729 1180.16 563.589 1183.15 545.404 1185.72C535.776 1187.08 525.966 1187.15 516.239 1187.82C507.169 1188.44 498.099 1189.09 488.268 1189.41C475.826 1189.23 464.145 1189.38 452.463 1189.53Z" fill="#C9563F"/>
<path d="M540.276 381.864C535.381 379.455 530.523 377.586 526.443 374.639C521.197 370.849 521.795 365.757 527.884 363.817C534.541 361.696 541.591 360.267 548.555 359.8C555.767 359.315 563.077 360.444 570.35 360.678C575.411 360.841 580.489 360.505 585.547 360.706C599.775 361.27 613.993 362.097 628.223 362.557C630.535 362.632 633.032 361.652 635.159 360.589C636.097 360.12 637.049 358.011 636.752 357.015C635.143 351.604 636.974 347.205 641.221 344.409C646.375 341.017 651.926 337.91 657.731 335.919C663.036 334.099 667.43 336.414 670.224 343.05C674.849 354.033 679.226 365.271 682.096 376.803C685.176 389.18 686.926 401.965 688.263 414.676C689.373 425.222 689.111 435.919 689.333 446.552C690.513 503.021 671.314 552.467 639.246 598.258C611.352 638.087 577.134 671.932 542.79 705.768C528.952 719.403 514.237 732.166 499.644 745.011C483.719 759.029 467.384 772.581 451.391 786.523C436.248 799.726 420.997 812.831 406.37 826.591C384.794 846.889 363.174 867.194 342.593 888.482C319.863 911.992 299.248 937.345 285.636 967.515C279.529 981.05 275.864 995.232 274.262 1010.16C272.181 1029.53 276.996 1047.65 281.929 1065.9C283.188 1070.55 284.347 1075.23 285.13 1080.05C269.35 1062.53 258.803 1042.29 252.323 1019.8C247.404 1002.73 246.038 985.22 247.427 967.722C249.518 941.391 259.187 917.548 274.403 896.008C289.774 874.248 307.501 854.523 327.03 836.441C340.786 823.706 354.532 810.936 368.777 798.76C387.031 783.157 405.935 768.314 424.274 752.807C440.613 738.991 456.976 725.155 472.576 710.526C489.446 694.705 506.067 678.525 521.668 661.469C541.33 639.972 560 617.579 576.301 593.294C592.836 568.662 606.883 542.892 615.492 514.358C619.345 501.586 621.422 488.465 620.039 475.291C619.058 465.95 616.189 456.719 613.373 447.685C611.151 440.553 604.352 439.84 598.207 439.887C572.886 440.077 548.563 434.871 524.787 426.729C520.338 425.206 516.09 422.77 512.165 420.136C508.415 417.62 508.386 414.229 512.628 412.208C517.542 409.866 523.142 408.441 528.58 407.834C539.08 406.661 549.676 406.342 560.231 405.669C560.397 405.658 560.601 405.71 560.724 405.633C563.535 403.87 567.74 402.696 568.822 400.181C570.563 396.131 566.174 393.518 563.195 391.982C555.895 388.219 548.197 385.227 540.276 381.864Z" fill="#C9563F"/>
<path d="M337.689 15.713C343.03 26.5663 339.276 36.0196 333.68 44.77C327.465 54.4879 319.948 63.3888 313.958 73.2294C310.458 78.9779 308.023 85.6894 306.568 92.2894C304.647 101.007 309.74 107.348 316.646 111.8C330.672 120.843 345.907 122.141 361.643 117.235C364.562 116.325 366.993 113.853 370.8 111.344C366.785 108.403 364.071 106.051 361.024 104.266C356.179 101.428 351.053 99.0754 346.153 96.3266C335.713 90.4698 335.045 79.0788 341.459 70.0222C348.647 59.8718 359.154 54.6949 370.701 51.8356C389.76 47.1162 407.889 49.7965 423.642 61.977C436.476 71.8999 443.497 85.0193 442.51 101.856C441.052 126.754 426.049 141.077 404.542 149.492C381.066 158.677 356.448 160.143 331.445 158.036C319.264 157.01 307.326 155.196 295.924 150.827C279.669 144.598 266.836 134.82 261.972 116.978C257.591 100.908 262.063 86.9349 272.054 74.4776C277.958 67.117 284.735 60.463 290.964 53.3552C293.676 50.2607 296.539 47.0876 298.309 43.4517C299.501 41.0019 300.149 36.3352 298.796 35.0774C296.986 33.3966 292.602 32.9774 290.031 33.9289C283.905 36.1963 278.286 39.7931 272.287 42.4591C267.218 44.7121 261.989 46.7078 256.668 48.2599C252.623 49.4398 247.831 48.5326 246.254 44.7504C245.049 41.8609 245.764 37.048 247.502 34.2606C253.28 24.9919 262.793 19.777 271.994 14.5982C280.564 9.77473 289.248 4.75552 298.491 1.61794C312.772 -3.23013 330.661 3.2076 337.689 15.713Z" fill="#C9563F"/>
<path d="M621.134 253.655C624.483 254.226 627.439 254.568 630.245 255.412C645.408 259.973 649.173 274.811 638.435 286.374C630.62 294.789 621.153 300.745 610.996 305.618C585.712 317.748 559.01 325.803 531.706 331.773C516.846 335.022 501.825 337.779 486.741 339.686C472.668 341.465 458.426 342.015 444.24 342.75C432.291 343.369 420.287 344.166 408.359 343.661C386.972 342.756 365.423 342.436 344.732 335.792C338.608 333.826 332.489 331.595 328.675 325.822C326.04 321.835 326.547 318.2 330.994 316.542C337.676 314.051 344.633 311.941 351.657 310.806C361.405 309.23 371.318 308.639 381.172 307.761C386.787 307.26 392.427 307.046 398.054 306.669C412.55 305.7 427.066 304.947 441.537 303.688C491.314 299.359 538.672 286.323 583.484 264.073C595.158 258.277 607.25 253.458 621.134 253.655Z" fill="#C9563F"/>
<path d="M452.282 228.672C485.578 221.146 516.391 207.987 547.065 194.381C557.217 189.878 567.876 187.205 579.209 187.623C588.301 187.959 595.475 192.897 598.441 201.333C601.701 210.606 596.444 217.073 590.814 222.79C582.404 231.331 571.984 237.159 560.998 241.898C531.937 254.432 501.673 263.054 470.603 268.665C456.718 271.173 442.593 272.657 428.509 273.674C411.628 274.894 394.68 275.451 377.754 275.672C363.242 275.861 348.653 275.915 334.219 274.655C320.57 273.464 306.721 272.056 294.061 265.876C289.551 263.676 284.144 261.228 284.505 255.658C284.85 250.354 290.449 248.096 294.992 247.088C303.936 245.103 313.072 243.863 322.183 242.777C332.667 241.528 343.208 240.745 353.729 239.825C358.524 239.405 363.331 239.132 368.133 238.809C378.533 238.108 389 237.94 399.318 236.608C416.88 234.341 434.348 231.344 452.282 228.672Z" fill="#C9563F"/>
<path d="M321.399 212.621C311.486 212.053 301.518 211.953 291.672 210.804C278.322 209.245 264.95 207.413 251.831 204.572C247.294 203.59 242.783 199.882 239.516 196.28C235.175 191.494 236.722 187.457 242.966 185.736C249.105 184.045 255.363 182.503 261.67 181.77C275.919 180.114 290.22 178.875 304.519 177.703C314.909 176.85 325.343 176.549 335.731 175.682C345.235 174.889 354.763 174.044 364.173 172.546C378.576 170.253 392.921 167.551 407.23 164.716C435.411 159.132 462.216 149.453 488.14 137.172C502.939 130.161 518.024 123.916 534.88 124.704C541.758 125.025 548.308 126.612 552.837 132.581C556.846 137.865 555.958 146.113 551.141 152.702C545.206 160.819 537.001 166.09 528.499 170.742C502.211 185.126 473.901 194.196 444.814 200.74C428.536 204.402 412.033 207.22 395.514 209.609C385.088 211.118 374.443 211.11 363.9 211.83C360.948 212.032 358.007 212.404 354.32 212.387C346.768 211.973 339.956 211.753 333.146 211.814C329.228 211.848 325.315 212.337 321.399 212.621Z" fill="#C9563F"/>
<path d="M320.646 453.441C331.171 460.886 341.44 468.077 351.686 475.301C367.056 486.137 382.691 496.625 397.674 507.972C407.995 515.789 414.403 527.023 420.403 538.346C421.907 541.185 422.287 545.571 427.237 544.576C431.355 543.748 433.462 540.208 433.199 534.515C432.676 523.203 428.076 513.61 420.885 504.998C404.622 485.524 383.742 472.354 361.52 460.931C349.383 454.692 337.287 448.366 325.277 441.887C322.408 440.339 319.656 438.301 317.43 435.941C316.176 434.612 316.103 432.166 315.499 430.223C317.313 429.907 319.46 428.803 320.888 429.404C329.789 433.155 338.989 436.52 347.226 441.456C364.063 451.545 380.755 461.982 396.749 473.343C411.203 483.611 424.562 495.453 434.471 510.453C441.544 521.159 442.807 533.189 440.659 545.636C439.714 551.11 438.782 556.616 437.32 561.964C434.48 572.357 425.939 577.565 415.585 574.553C388.038 566.541 362.587 554.499 341.859 534.016C329.361 521.667 322.746 506.148 318.275 489.527C314.226 474.473 308.176 460.396 299.464 447.351C293.081 437.793 288.768 427.234 289.233 415.343C289.301 413.597 289.768 411.867 291.331 409.563C292.678 411.196 294.337 412.662 295.318 414.491C299.918 423.069 303.901 432.011 308.974 440.29C311.929 445.113 316.523 448.931 320.646 453.441Z" fill="#C9563F"/>
<path d="M476.876 572.275C472.586 580.564 468.605 588.589 464.31 596.443C463.526 597.878 461.46 598.613 459.986 599.671C459.415 598.098 458.229 596.467 458.373 594.962C459.296 585.319 459.975 575.606 461.725 566.098C468.202 530.903 463.37 498.653 439.471 470.422C420.965 448.561 397.614 433.506 372.397 421.062C358.095 414.004 343.124 408.31 328.559 401.77C323.223 399.373 318.188 396.307 313.015 393.546C313.133 392.812 313.252 392.078 313.37 391.344C315.668 391.256 318.134 390.575 320.238 391.172C337.89 396.181 355.641 400.931 373.045 406.713C399.966 415.657 425.346 427.954 447.963 445.277C466.104 459.171 481.155 475.596 487.56 498.361C493.854 520.731 489.661 542.041 481.066 562.904C479.81 565.951 478.41 568.938 476.876 572.275Z" fill="#C9563F"/>
<path d="M281.923 687.133C281.482 686.852 281.272 686.839 281.178 686.729C279.468 684.72 277.773 682.699 276.074 680.681C278.575 679.684 280.994 678.236 283.59 677.765C301.481 674.515 319.508 671.878 336.444 664.76C341.238 662.745 345.502 663.173 348.833 667.572C359.39 681.512 370.079 695.356 380.38 709.483C382.853 712.874 384.403 717.093 385.715 721.146C388.908 731.004 381.912 738.277 371.615 736.664C343.937 732.329 320.33 719.814 299.407 701.622C293.787 696.736 287.947 692.104 281.923 687.133Z" fill="#C9563F"/>
<path d="M341.61 631.037C338.415 635.127 336.889 639.332 337.374 644.223C338.213 652.707 334.283 658.268 326.841 662.053C316.963 667.075 306.476 669.361 295.536 669.784C289.317 670.024 283.052 670.201 276.868 669.684C273.91 669.436 270.178 668.295 268.373 666.2C261.359 658.061 251.677 656.895 242.205 654.83C237.776 653.865 233.424 652.542 229.14 650.614C233.975 645.374 240.039 645.268 245.757 644.751C273.626 642.233 301.181 638.301 327.227 627.379C330.669 625.936 333.688 623.483 336.896 621.486C339.119 620.103 341.534 616.663 343.893 619.959C345.137 621.697 344.1 625.212 343.743 627.879C343.607 628.896 342.496 629.783 341.61 631.037Z" fill="#C9563F"/>
<path d="M452.919 1189.58C464.145 1189.38 475.826 1189.23 487.836 1189.31C476.568 1189.56 464.972 1189.6 452.919 1189.58Z" fill="#C9563F"/>
<path d="M321.859 212.679C325.315 212.337 329.228 211.849 333.146 211.814C339.956 211.754 346.768 211.974 353.893 212.33C343.578 212.634 332.949 212.686 321.859 212.679Z" fill="#C9563F"/>
<path d="M1850.59 895.516C1870.01 884.122 1889.62 874.043 1910.57 866.816C1926.26 861.403 1942.29 857.831 1958.98 856.542C1977.74 855.093 1995.85 857.035 2013.24 863.899C2028.66 869.987 2041.58 879.532 2049.2 894.819C2051.06 898.559 2051.86 902.832 2053.37 907.59C2054.72 902.167 2056.05 897.137 2057.21 892.067C2059 884.234 2060.75 876.391 2062.35 868.518C2063.17 864.514 2065.38 863.65 2069.33 863.474C2082.53 862.886 2095.7 861.685 2108.89 860.748C2114.52 860.347 2120.15 859.965 2125.79 859.665C2138.52 858.988 2151.26 858.452 2163.98 857.689C2170.34 857.307 2176.67 856.554 2183.83 855.894C2168.53 888.971 2153.51 921.36 2138.55 953.776C2123.56 986.262 2108.27 1018.62 2093.77 1051.32C2079.35 1083.85 2061.71 1114.97 2049.69 1148.55C2050.21 1148.93 2050.74 1149.31 2051.26 1149.69C2058.48 1143.95 2066.25 1138.77 2072.84 1132.38C2119.94 1086.71 2166.75 1040.74 2213.79 995.004C2227.49 981.682 2241.2 968.308 2255.71 955.898C2273.81 940.424 2292.49 925.599 2311.42 911.152C2319.87 904.7 2329.43 899.118 2340.46 898.568C2348.47 898.168 2354.03 893.363 2360.35 889.891C2383.64 877.085 2407.53 865.626 2433.74 860.305C2445.92 857.831 2458.49 855.98 2470.87 856.057C2491.25 856.183 2511.15 859.906 2528.42 871.958C2540.67 880.499 2550.46 890.892 2553.53 906.688C2554.74 901.94 2556.05 897.214 2557.14 892.437C2558.91 884.636 2560.59 876.813 2562.21 868.978C2563.03 865.035 2564.91 863.603 2569.28 863.443C2582.5 862.959 2595.68 861.691 2608.87 860.755C2614.34 860.367 2619.8 860.001 2625.27 859.706C2638 859.021 2650.74 858.463 2663.47 857.695C2669.86 857.309 2676.23 856.577 2683.7 855.903C2661.06 905.101 2638.49 953.658 2616.34 1002.41C2594.23 1051.09 2570.32 1098.97 2549.21 1148.1C2549.82 1148.54 2550.43 1148.98 2551.04 1149.41C2556.11 1145.66 2561.48 1142.23 2566.22 1138.09C2615.84 1094.8 2660.76 1046.67 2707.81 1000.73C2725.4 983.563 2743.44 966.801 2761.99 950.68C2778.06 936.717 2794.88 923.573 2811.9 910.764C2820.27 904.458 2829.78 899.557 2840.59 898.367C2842.64 898.141 2844.77 898.54 2846.86 898.707C2853.72 899.253 2860.58 899.825 2868.28 900.455C2862.98 905.31 2858.07 909.864 2853.1 914.358C2847.43 919.493 2841.55 924.408 2836.04 929.711C2814.93 950.019 2793.88 970.385 2772.92 990.841C2741.69 1021.32 2710.53 1051.86 2679.39 1082.43C2669.3 1092.34 2659.7 1102.77 2649.34 1112.37C2622.96 1136.83 2595.6 1160.07 2563.62 1177.14C2549.61 1184.62 2534.99 1190.92 2519.15 1192.53C2498.08 1194.68 2477.72 1191.71 2460.7 1177.69C2447.15 1166.53 2439.18 1152.07 2438.39 1134.23C2438.08 1127.19 2438.34 1120.12 2438.34 1112.03C2434.22 1117.85 2430.79 1123.03 2427.04 1127.96C2402.62 1159.98 2371.04 1181.81 2331.73 1190.43C2304.39 1196.42 2277.07 1194.46 2252.43 1178.82C2229.78 1164.44 2215.72 1144.03 2211.33 1117.45C2209.75 1107.91 2208.17 1098.12 2208.62 1088.54C2209.25 1075.21 2211.8 1061.97 2213.53 1048.66C2212.94 1049.12 2212.03 1049.7 2211.29 1050.45C2197.47 1064.43 2183.82 1078.57 2169.86 1092.41C2140.31 1121.72 2109.74 1149.82 2073.83 1171.39C2057.08 1181.45 2039.56 1190.22 2019.96 1192.33C1992.8 1195.25 1966.07 1190.26 1947.55 1162.7C1940.87 1152.77 1937.85 1141.6 1938.24 1129.54C1938.41 1124.05 1938.27 1118.55 1938.27 1112.04C1934.49 1117.46 1931.34 1122.26 1927.92 1126.85C1904.72 1157.97 1874.45 1179.34 1837.01 1189.19C1809.35 1196.47 1781.54 1195.4 1755.88 1180.84C1731.41 1166.95 1716.31 1145.74 1711.31 1118.01C1706.42 1090.93 1709.14 1064.24 1717.52 1038.09C1717.8 1037.24 1718.01 1036.36 1717.49 1034.99C1708.2 1044.7 1698.92 1054.42 1689.61 1064.11C1686.26 1067.59 1682.64 1070.83 1679.46 1074.46C1674.75 1079.83 1668.77 1082.66 1662.34 1085.6C1656.93 1088.08 1652.74 1093.42 1648.29 1097.79C1635.13 1110.73 1622.41 1124.13 1608.94 1136.73C1598.31 1146.66 1587.14 1156.09 1575.63 1165C1560.85 1176.45 1545.12 1186.69 1526.63 1191.05C1507.2 1195.64 1488.55 1192.84 1472.14 1181.03C1452.1 1166.62 1441.57 1146.08 1436.24 1122.44C1432.97 1107.95 1432.37 1093.18 1433.37 1078.58C1435.15 1052.67 1440.98 1027.44 1449.57 1002.88C1465.79 956.555 1488.66 913.432 1513.33 871.25C1527.38 847.237 1542.04 823.534 1557.42 800.358C1586.82 756.067 1616.7 712.084 1646.87 668.316C1660.83 648.071 1675.96 628.634 1690.54 608.819C1690.88 608.354 1691.02 607.74 1690.39 606.509C1686.55 610.633 1682.51 614.588 1678.9 618.91C1666.26 634.067 1653.63 649.236 1641.25 664.611C1622.05 688.476 1602.29 711.953 1584.14 736.602C1552.22 779.938 1520.51 823.468 1490.23 867.95C1447.24 931.099 1406.01 995.413 1369.4 1062.58C1354.91 1089.16 1339.77 1115.4 1324.39 1141.48C1316.3 1155.2 1306.28 1167.67 1294.38 1178.37C1276.71 1194.26 1260.04 1197.95 1238.4 1186.8C1224.84 1179.81 1217.32 1167.22 1211.36 1153.76C1205.82 1141.25 1203.24 1128 1201.02 1114.49C1196.65 1087.88 1201.67 1062.6 1209.9 1037.68C1225.34 990.882 1247 946.803 1270.79 903.846C1293.42 862.99 1317.13 822.721 1340.95 782.535C1357.1 755.27 1374.26 728.596 1390.96 701.652C1391.43 700.885 1391.82 700.064 1391.32 698.589C1388.84 701.854 1386.25 705.049 1383.89 708.397C1356.29 747.483 1328.26 786.277 1301.29 825.79C1277.72 860.31 1255.27 895.593 1232.48 930.638C1219.27 950.942 1206.57 971.578 1193.27 991.819C1179.16 1013.31 1165.04 1034.82 1150.09 1055.73C1138.32 1072.19 1125.62 1088.03 1112.71 1103.62C1102.77 1115.61 1092.48 1127.43 1081.24 1138.17C1061.13 1157.39 1039.45 1174.68 1013.21 1185.2C1000.55 1190.28 987.54 1192.97 973.751 1192.95C958.083 1192.92 942.834 1190.92 928.553 1184.67C900.854 1172.55 880.602 1152.99 872.355 1123.18C869.539 1113 867.428 1102.18 867.618 1091.7C868.064 1067.23 874.647 1044.28 890.085 1024.65C904.1 1006.82 921.269 993.41 943.284 986.507C956.241 982.444 969.425 982.501 982.643 982.892C998.371 983.358 1013.12 987.678 1024.74 998.673C1038.62 1011.81 1043.48 1028.27 1040.64 1047.3C1039.02 1058.17 1034.91 1067.53 1027.09 1075.13C1019.6 1082.41 1010.29 1086.77 1000.5 1089.77C987.211 1093.85 973.564 1096.79 960.333 1101.04C950.637 1104.16 942.518 1109.78 939.438 1120.48C936.089 1132.12 940.673 1141.08 949.444 1147.99C966.274 1161.26 984.424 1163.6 1004.04 1153.89C1016.24 1147.85 1026.91 1139.83 1036.7 1130.6C1068.52 1100.56 1093.81 1065.26 1117.19 1028.61C1136.09 999 1153.86 968.668 1172.17 938.681C1181.58 923.274 1191.77 908.298 1200.4 892.473C1222.43 852.117 1250.36 815.791 1277.13 778.698C1296.65 751.661 1317.24 725.396 1337.58 698.968C1350.18 682.607 1362.87 666.298 1376.15 650.49C1390.22 633.74 1404.82 617.431 1419.57 601.271C1430.64 589.145 1441.92 577.165 1453.79 565.84C1466.68 553.547 1479.93 541.402 1497.16 535.222C1508.83 531.035 1521.58 535.113 1528.89 544.84C1533.15 550.507 1532.93 557.184 1530.9 563.106C1523.07 585.845 1514.9 608.473 1506.27 630.919C1498.46 651.251 1490.13 671.4 1481.59 691.437C1468.43 722.278 1454.47 752.782 1441.6 783.741C1422.81 828.942 1404.34 874.284 1386.37 919.821C1370.82 959.241 1355.55 998.794 1341.34 1038.71C1331.42 1066.54 1323.48 1095.07 1314.74 1123.31C1313.98 1125.75 1313.82 1128.37 1314.03 1131.14C1319.63 1119.07 1325.17 1106.98 1330.85 1094.95C1355.39 1042.92 1381.53 991.716 1409.72 941.553C1439.26 889.003 1470.49 837.497 1505.01 788.082C1526.37 757.509 1548.81 727.69 1571.04 697.731C1577.82 688.587 1585.58 680.17 1592.74 671.299C1604.22 657.082 1615.11 642.363 1627.08 628.58C1646.81 605.865 1666.47 583.064 1689.18 563.119C1700.5 553.181 1711.88 543.469 1725.58 536.959C1735.56 532.214 1745.66 532.076 1755.24 537.973C1758.41 539.925 1761.64 542.6 1763.41 545.752C1764.88 548.38 1765.46 552.69 1764.35 555.396C1754.04 580.462 1743.44 605.412 1732.62 630.261C1707.8 687.255 1682.11 743.882 1658.05 801.197C1628.23 872.252 1600.39 944.1 1576.11 1017.29C1566.01 1047.76 1556.88 1078.47 1549.91 1109.79C1547.6 1120.19 1546.88 1130.94 1545.43 1141.53C1545.94 1141.81 1546.45 1142.1 1546.96 1142.38C1552.28 1138.4 1557.94 1134.79 1562.87 1130.38C1582.06 1113.2 1601.1 1095.86 1620.03 1078.4C1632.75 1066.67 1645.42 1054.87 1657.71 1042.69C1687.15 1013.53 1715.92 983.672 1745.81 954.984C1765.28 936.301 1784.93 917.58 1808.12 903.28C1816.71 897.984 1825.54 893.155 1836.08 893.76C1840.81 894.031 1845.49 894.985 1850.59 895.516ZM1396.79 692.507C1396.9 692.23 1397.01 691.953 1397.11 691.676C1396.9 691.629 1396.69 691.582 1396.48 691.535C1396.44 691.96 1396.4 692.385 1395.78 692.757C1395.64 693.107 1395.49 693.457 1394.74 694.071C1393.94 695.098 1393.14 696.124 1392.35 697.151C1392.75 697.397 1393.15 697.643 1393.56 697.89C1394.13 696.505 1394.71 695.121 1395.83 693.729C1395.99 693.399 1396.14 693.069 1396.79 692.507ZM2319.47 1158.67C2328.02 1154.91 2337 1151.89 2345.05 1147.25C2372.81 1131.25 2395.64 1109.22 2416.62 1085.43C2434.11 1065.6 2450.87 1045.07 2467.01 1024.13C2483.61 1002.57 2498.72 979.906 2510.35 955.167C2515.47 944.265 2520.53 933.243 2517.21 920.583C2512.91 904.146 2493.6 892.809 2477.46 902.056C2469.2 906.787 2460.98 912.229 2454.26 918.878C2440.33 932.653 2426.71 946.87 2414.26 961.973C2398.92 980.572 2384.6 1000.04 2370.38 1019.53C2349.49 1048.17 2329.35 1077.36 2314.18 1109.58C2307.48 1123.81 2302.04 1138.39 2303.3 1154.67C2303.62 1158.74 2305.12 1159.99 2308.77 1159.64C2312.05 1159.32 2315.33 1158.99 2319.47 1158.67ZM1834.22 1073.11C1827.47 1085.37 1820.22 1097.39 1814.12 1109.96C1807.41 1123.77 1802.14 1138.14 1803.33 1154.06C1803.62 1157.99 1804.57 1159.73 1808.81 1159.72C1821.32 1159.68 1832.14 1154.64 1842.64 1148.72C1871.64 1132.38 1895.25 1109.55 1917.15 1085.02C1933.45 1066.76 1948.83 1047.62 1963.89 1028.3C1982.38 1004.6 1999.05 979.627 2011.84 952.308C2015.53 944.431 2018.58 936.194 2018.28 927.137C2017.59 906.676 1995.13 892.025 1978.21 901.817C1969.01 907.146 1960.21 913.571 1952.34 920.726C1933.14 938.175 1916.81 958.264 1900.93 978.738C1877.43 1009.02 1854.97 1040.02 1834.22 1073.11ZM1695.06 602.968C1694.75 602.636 1694.44 602.304 1694.13 601.973C1693.85 602.63 1693.58 603.287 1693.3 603.944C1693.78 603.813 1694.25 603.681 1695.06 602.968ZM1698.45 597.603C1698.59 597.816 1698.74 598.03 1698.88 598.244C1698.85 597.905 1698.81 597.566 1698.45 597.603Z" fill="#C9563F"/>
<path d="M2319.04 1158.66C2315.33 1158.99 2312.05 1159.32 2308.77 1159.64C2305.12 1159.99 2303.62 1158.74 2303.3 1154.67C2302.04 1138.39 2307.48 1123.81 2314.18 1109.58C2329.35 1077.36 2349.49 1048.17 2370.38 1019.53C2384.6 1000.04 2398.92 980.572 2414.26 961.973C2426.71 946.87 2440.33 932.653 2454.26 918.878C2460.98 912.229 2469.2 906.787 2477.46 902.056C2493.6 892.809 2512.91 904.146 2517.21 920.583C2520.53 933.243 2515.47 944.265 2510.35 955.167C2498.72 979.906 2483.61 1002.57 2467.01 1024.13C2450.87 1045.07 2434.11 1065.6 2416.62 1085.43C2395.64 1109.22 2372.81 1131.25 2345.05 1147.25C2337 1151.88 2328.02 1154.9 2319.04 1158.66Z" fill="#FFFFFE"/>
<path d="M1834.35 1072.77C1854.97 1040.02 1877.43 1009.02 1900.93 978.738C1916.81 958.264 1933.14 938.175 1952.34 920.726C1960.21 913.571 1969.01 907.146 1978.21 901.817C1995.13 892.025 2017.59 906.676 2018.28 927.137C2018.58 936.194 2015.53 944.431 2011.84 952.308C1999.05 979.627 1982.38 1004.6 1963.89 1028.3C1948.83 1047.62 1933.45 1066.76 1917.15 1085.02C1895.25 1109.55 1871.64 1132.38 1842.64 1148.72C1832.14 1154.64 1821.32 1159.68 1808.81 1159.72C1804.57 1159.73 1803.62 1157.99 1803.33 1154.06C1802.14 1138.14 1807.41 1123.77 1814.12 1109.96C1820.22 1097.39 1827.47 1085.37 1834.35 1072.77Z" fill="#FFFFFE"/>
<path d="M1395.28 693.737C1394.7 695.121 1394.13 696.505 1393.56 697.89C1393.15 697.644 1392.75 697.397 1392.35 697.151C1393.14 696.125 1393.94 695.098 1395.03 693.921C1395.31 693.77 1395.28 693.737 1395.28 693.737Z" fill="white"/>
<path d="M1694.89 603.259C1694.25 603.681 1693.78 603.812 1693.3 603.944C1693.58 603.287 1693.85 602.63 1694.13 601.973C1694.44 602.304 1694.75 602.636 1694.89 603.259Z" fill="white"/>
<path d="M1396.36 692.81C1396.4 692.385 1396.44 691.96 1396.48 691.535C1396.69 691.582 1396.9 691.629 1397.11 691.676C1397.01 691.953 1396.9 692.23 1396.56 692.642C1396.32 692.777 1396.36 692.81 1396.36 692.81Z" fill="white"/>
<path d="M1698.61 597.415C1698.81 597.566 1698.85 597.905 1698.88 598.244C1698.74 598.03 1698.59 597.817 1698.61 597.415Z" fill="white"/>
<path d="M1395.33 693.788C1395.49 693.457 1395.63 693.107 1396.07 692.784C1396.36 692.81 1396.32 692.777 1396.31 692.758C1396.14 693.069 1395.99 693.399 1395.56 693.733C1395.28 693.737 1395.31 693.77 1395.33 693.788Z" fill="white"/>
<path d="M151.843 1504.77V1498.47L157.543 1496.97C161.543 1495.77 164.143 1493.97 165.343 1491.57C166.543 1489.17 167.243 1485.87 167.443 1481.67C167.643 1470.27 167.743 1458.77 167.743 1447.17C167.743 1435.37 167.743 1423.57 167.743 1411.77V1399.47C167.743 1387.87 167.743 1376.27 167.743 1364.67C167.743 1353.07 167.643 1341.47 167.443 1329.87C167.243 1325.67 166.643 1322.47 165.643 1320.27C164.643 1317.87 162.243 1316.07 158.443 1314.87L151.843 1312.77V1306.47H296.143L298.243 1357.17H290.143L274.543 1327.47C272.543 1323.67 270.343 1320.77 267.943 1318.77C265.543 1316.57 262.043 1315.47 257.443 1315.47H211.243C211.043 1328.87 210.843 1342.67 210.643 1356.87C210.643 1370.87 210.643 1384.87 210.643 1398.87H239.443C244.043 1398.87 247.443 1397.87 249.643 1395.87C251.843 1393.67 253.943 1390.67 255.943 1386.87L261.943 1375.77H268.543V1430.67H261.943L255.943 1419.87C253.743 1415.87 251.543 1412.87 249.343 1410.87C247.343 1408.67 244.043 1407.57 239.443 1407.57H210.643C210.643 1420.77 210.643 1433.47 210.643 1445.67C210.643 1457.67 210.743 1469.47 210.943 1481.07C210.943 1489.27 214.643 1494.37 222.043 1496.37L231.043 1498.47V1504.77H151.843ZM405.418 1509.87C390.418 1509.87 377.118 1507.17 365.518 1501.77C354.118 1496.37 345.118 1487.87 338.518 1476.27C332.118 1464.47 328.918 1448.97 328.918 1429.77V1397.37C328.918 1386.17 328.918 1374.87 328.918 1363.47C328.918 1352.07 328.818 1340.57 328.618 1328.97C328.618 1321.17 324.918 1316.27 317.518 1314.27L310.918 1312.77V1306.47H391.918V1312.77L383.518 1314.57C375.918 1316.37 372.118 1321.37 372.118 1329.57C371.918 1340.77 371.818 1352.07 371.818 1363.47C371.818 1374.67 371.818 1385.97 371.818 1397.37V1435.47C371.818 1454.87 375.718 1468.87 383.518 1477.47C391.518 1486.07 402.818 1490.37 417.418 1490.37C432.818 1490.37 444.818 1485.77 453.418 1476.57C462.218 1467.17 466.618 1453.27 466.618 1434.87V1330.47C466.618 1326.47 465.818 1322.97 464.218 1319.97C462.618 1316.97 459.818 1315.07 455.818 1314.27L448.618 1312.77V1306.47H494.818V1312.77L486.418 1314.57C482.618 1315.37 480.018 1317.17 478.618 1319.97C477.218 1322.77 476.518 1326.17 476.518 1330.17V1433.07C476.518 1457.87 470.018 1476.87 457.018 1490.07C444.018 1503.27 426.818 1509.87 405.418 1509.87ZM566.134 1509.87C555.134 1509.87 543.934 1508.47 532.534 1505.67C521.334 1503.07 511.934 1499.57 504.334 1495.17L506.134 1453.47H514.834L524.134 1474.17C526.934 1479.97 529.834 1484.77 532.834 1488.57C535.834 1492.37 539.834 1495.27 544.834 1497.27C548.234 1498.67 551.434 1499.67 554.434 1500.27C557.634 1500.67 561.134 1500.87 564.934 1500.87C577.134 1500.87 586.734 1497.77 593.734 1491.57C600.934 1485.17 604.534 1476.77 604.534 1466.37C604.534 1456.97 602.034 1449.57 597.034 1444.17C592.234 1438.77 584.434 1433.57 573.634 1428.57L561.334 1423.17C544.534 1415.77 531.234 1407.17 521.434 1397.37C511.834 1387.57 507.034 1374.57 507.034 1358.37C507.034 1346.37 510.034 1336.17 516.034 1327.77C522.234 1319.17 530.734 1312.57 541.534 1307.97C552.334 1303.37 564.934 1301.07 579.334 1301.07C589.934 1301.07 599.834 1302.47 609.034 1305.27C618.434 1308.07 626.634 1311.87 633.634 1316.67L631.534 1353.87H622.834L611.734 1331.37C608.534 1324.77 605.434 1320.07 602.434 1317.27C599.634 1314.27 596.134 1312.37 591.934 1311.57C589.534 1311.17 587.434 1310.87 585.634 1310.67C584.034 1310.47 581.834 1310.37 579.034 1310.37C569.234 1310.37 560.734 1313.27 553.534 1319.07C546.534 1324.67 543.034 1332.47 543.034 1342.47C543.034 1352.07 545.734 1359.87 551.134 1365.87C556.534 1371.87 564.334 1377.17 574.534 1381.77L588.034 1387.47C607.434 1395.87 621.334 1404.87 629.734 1414.47C638.134 1423.87 642.334 1435.97 642.334 1450.77C642.334 1468.37 635.634 1482.67 622.234 1493.67C609.034 1504.47 590.334 1509.87 566.134 1509.87ZM656.336 1504.77V1498.47L662.336 1496.67C666.336 1495.27 668.936 1493.47 670.136 1491.27C671.536 1488.87 672.236 1485.57 672.236 1481.37V1329.87C672.236 1325.67 671.536 1322.47 670.136 1320.27C668.936 1317.87 666.336 1315.97 662.336 1314.57L656.336 1312.77V1306.47H731.336V1312.77L725.336 1314.57C721.536 1315.97 718.936 1317.87 717.536 1320.27C716.136 1322.47 715.436 1325.67 715.436 1329.87V1481.37C715.436 1485.57 716.136 1488.87 717.536 1491.27C718.936 1493.47 721.536 1495.27 725.336 1496.67L731.336 1498.47V1504.77H656.336ZM833.432 1509.87C821.232 1509.87 809.532 1507.67 798.332 1503.27C787.132 1498.87 777.032 1492.37 768.032 1483.77C759.232 1474.97 752.232 1464.07 747.032 1451.07C741.832 1438.07 739.232 1422.87 739.232 1405.47C739.232 1388.47 741.832 1373.47 747.032 1360.47C752.232 1347.47 759.232 1336.57 768.032 1327.77C777.032 1318.97 787.132 1312.37 798.332 1307.97C809.732 1303.37 821.432 1301.07 833.432 1301.07C845.432 1301.07 857.032 1303.27 868.232 1307.67C879.632 1312.07 889.732 1318.67 898.532 1327.47C907.332 1336.07 914.332 1346.87 919.532 1359.87C924.732 1372.87 927.332 1388.07 927.332 1405.47C927.332 1422.47 924.732 1437.47 919.532 1450.47C914.332 1463.47 907.332 1474.37 898.532 1483.17C889.732 1491.97 879.732 1498.67 868.532 1503.27C857.332 1507.67 845.632 1509.87 833.432 1509.87ZM833.432 1500.87C844.832 1500.87 854.032 1497.97 861.032 1492.17C868.032 1486.17 873.132 1476.17 876.332 1462.17C879.532 1448.17 881.132 1429.27 881.132 1405.47C881.132 1381.67 879.532 1362.87 876.332 1349.07C873.132 1335.07 868.032 1325.17 861.032 1319.37C854.032 1313.37 844.832 1310.37 833.432 1310.37C822.232 1310.37 813.032 1313.37 805.832 1319.37C798.832 1325.17 793.732 1335.07 790.532 1349.07C787.332 1362.87 785.732 1381.67 785.732 1405.47C785.732 1429.27 787.332 1448.17 790.532 1462.17C793.732 1476.17 798.832 1486.17 805.832 1492.17C813.032 1497.97 822.232 1500.87 833.432 1500.87ZM938.256 1504.77V1498.47L946.956 1496.07C950.756 1495.07 953.356 1493.17 954.756 1490.37C956.356 1487.57 957.156 1484.17 957.156 1480.17V1334.97C955.356 1331.17 953.756 1328.37 952.356 1326.57C951.156 1324.57 949.856 1322.87 948.456 1321.47C947.056 1320.07 945.156 1318.47 942.756 1316.67L937.356 1312.77V1306.47H988.656L1088.26 1442.67V1331.37C1088.26 1327.37 1087.56 1323.87 1086.16 1320.87C1084.96 1317.87 1082.36 1315.87 1078.36 1314.87L1069.36 1312.77V1306.47H1114.06V1312.77L1106.56 1314.87C1102.76 1316.07 1100.36 1318.17 1099.36 1321.17C1098.56 1323.97 1098.16 1327.37 1098.16 1331.37V1505.97H1081.36L967.056 1348.77V1479.87C967.056 1484.07 967.656 1487.57 968.856 1490.37C970.056 1493.17 972.556 1495.07 976.356 1496.07L984.456 1498.47V1504.77H938.256ZM1300.05 1509.87C1280.65 1509.87 1263.15 1505.87 1247.55 1497.87C1231.95 1489.87 1219.55 1478.07 1210.35 1462.47C1201.35 1446.87 1196.85 1427.87 1196.85 1405.47C1196.85 1388.67 1199.55 1373.77 1204.95 1360.77C1210.55 1347.77 1218.15 1336.87 1227.75 1328.07C1237.55 1319.07 1248.75 1312.37 1261.35 1307.97C1273.95 1303.37 1287.35 1301.07 1301.55 1301.07C1312.55 1301.07 1322.85 1302.37 1332.45 1304.97C1342.05 1307.37 1351.25 1310.97 1360.05 1315.77L1361.25 1355.07H1353.15L1340.55 1331.37C1338.55 1327.37 1336.35 1323.77 1333.95 1320.57C1331.75 1317.37 1328.85 1315.07 1325.25 1313.67C1320.25 1311.27 1314.35 1310.07 1307.55 1310.07C1295.75 1310.07 1284.95 1313.07 1275.15 1319.07C1265.55 1325.07 1257.85 1335.07 1252.05 1349.07C1246.25 1362.87 1243.35 1381.77 1243.35 1405.77C1243.35 1429.57 1246.05 1448.47 1251.45 1462.47C1257.05 1476.47 1264.55 1486.47 1273.95 1492.47C1283.35 1498.27 1293.95 1501.17 1305.75 1501.17C1311.15 1501.17 1315.55 1500.77 1318.95 1499.97C1322.35 1499.17 1325.75 1498.07 1329.15 1496.67C1333.15 1495.07 1336.25 1492.77 1338.45 1489.77C1340.65 1486.57 1342.55 1482.97 1344.15 1478.97L1355.55 1451.67H1363.65L1362.45 1494.87C1353.85 1499.67 1344.35 1503.37 1333.95 1505.97C1323.55 1508.57 1312.25 1509.87 1300.05 1509.87ZM1378.21 1504.77V1498.47L1384.51 1496.67C1388.51 1495.47 1391.01 1493.77 1392.01 1491.57C1393.21 1489.17 1393.81 1485.87 1393.81 1481.67C1394.01 1470.07 1394.11 1458.47 1394.11 1446.87C1394.11 1435.27 1394.11 1423.57 1394.11 1411.77V1399.47C1394.11 1387.87 1394.11 1376.27 1394.11 1364.67C1394.11 1353.07 1394.01 1341.47 1393.81 1329.87C1393.81 1325.67 1393.31 1322.47 1392.31 1320.27C1391.31 1317.87 1388.81 1316.07 1384.81 1314.87L1378.21 1312.77V1306.47H1462.21C1485.61 1306.47 1503.61 1310.97 1516.21 1319.97C1529.01 1328.77 1535.41 1341.17 1535.41 1357.17C1535.41 1365.97 1531.91 1374.87 1524.91 1383.87C1518.11 1392.87 1507.61 1399.77 1493.41 1404.57L1534.21 1484.07C1537.61 1490.67 1542.91 1495.17 1550.11 1497.57L1555.81 1498.77V1504.77H1502.71L1458.01 1411.17H1436.41C1436.41 1425.37 1436.41 1438.17 1436.41 1449.57C1436.41 1460.97 1436.51 1471.67 1436.71 1481.67C1436.71 1485.67 1437.31 1488.87 1438.51 1491.27C1439.91 1493.67 1442.51 1495.37 1446.31 1496.37L1453.51 1498.47V1504.77H1378.21ZM1436.41 1402.47H1452.61C1466.81 1402.47 1477.21 1398.87 1483.81 1391.67C1490.41 1384.47 1493.71 1373.47 1493.71 1358.67C1493.71 1343.87 1490.51 1332.97 1484.11 1325.97C1477.91 1318.77 1467.81 1315.17 1453.81 1315.17H1436.71C1436.71 1322.97 1436.61 1330.97 1436.41 1339.17C1436.41 1347.17 1436.41 1356.27 1436.41 1366.47C1436.41 1376.47 1436.41 1388.47 1436.41 1402.47ZM1565.71 1504.77V1498.47L1571.71 1496.37C1575.31 1495.37 1577.81 1493.67 1579.21 1491.27C1580.61 1488.67 1581.41 1485.17 1581.61 1480.77V1329.87C1581.41 1325.67 1580.71 1322.47 1579.51 1320.27C1578.31 1317.87 1575.81 1316.07 1572.01 1314.87L1565.71 1312.77V1306.47H1708.51L1710.61 1354.47H1702.21L1690.21 1327.47C1688.61 1323.67 1686.81 1320.77 1684.81 1318.77C1682.81 1316.57 1679.81 1315.47 1675.81 1315.47H1624.81C1624.61 1327.87 1624.51 1340.67 1624.51 1353.87C1624.51 1366.87 1624.51 1381.57 1624.51 1397.97H1654.21C1658.21 1397.97 1661.21 1396.97 1663.21 1394.97C1665.41 1392.77 1667.41 1389.87 1669.21 1386.27L1674.31 1374.87H1680.91V1430.37H1674.31L1668.91 1418.97C1667.31 1415.37 1665.51 1412.47 1663.51 1410.27C1661.51 1408.07 1658.51 1406.97 1654.51 1406.97H1624.51C1624.51 1421.37 1624.51 1433.77 1624.51 1444.17C1624.51 1454.57 1624.51 1463.87 1624.51 1472.07C1624.71 1480.07 1624.81 1487.97 1624.81 1495.77H1682.41C1686.41 1495.77 1689.51 1494.77 1691.71 1492.77C1693.91 1490.57 1695.71 1487.57 1697.11 1483.77L1708.21 1456.77H1716.61L1714.51 1504.77H1565.71ZM1727.02 1504.77V1498.47L1735.12 1496.07C1739.32 1494.87 1742.52 1493.07 1744.72 1490.67C1747.12 1488.27 1749.02 1484.97 1750.42 1480.77L1811.02 1305.57H1835.92L1896.22 1481.97C1897.82 1486.37 1899.62 1489.77 1901.62 1492.17C1903.62 1494.37 1906.82 1496.17 1911.22 1497.57L1915.72 1498.77V1504.77H1839.52V1498.77L1844.62 1497.27C1849.02 1495.87 1851.62 1493.67 1852.42 1490.67C1853.42 1487.67 1853.22 1483.97 1851.82 1479.57L1839.22 1440.87H1772.92L1760.02 1478.97C1758.62 1483.37 1758.22 1486.97 1758.82 1489.77C1759.42 1492.57 1761.92 1494.77 1766.32 1496.37L1772.92 1498.47V1504.77H1727.02ZM1775.92 1432.17H1836.52L1807.12 1341.87L1775.92 1432.17ZM1946.05 1504.77V1498.47L1958.05 1496.07C1966.45 1494.27 1970.65 1489.37 1970.65 1481.37V1399.47C1970.65 1385.47 1970.65 1371.47 1970.65 1357.47C1970.65 1343.47 1970.55 1329.47 1970.35 1315.47H1946.65C1940.25 1315.47 1935.55 1317.17 1932.55 1320.57C1929.55 1323.97 1926.55 1328.77 1923.55 1334.97L1913.05 1357.17H1904.65L1906.15 1306.47H2078.35L2079.85 1357.17H2071.45L2060.95 1334.97C2057.95 1328.77 2054.95 1323.97 2051.95 1320.57C2048.95 1317.17 2044.25 1315.47 2037.85 1315.47H2013.85V1481.37C2013.85 1489.57 2018.05 1494.47 2026.45 1496.07L2038.75 1498.47V1504.77H1946.05ZM2092.76 1504.77V1498.47L2098.76 1496.67C2102.76 1495.27 2105.36 1493.47 2106.56 1491.27C2107.96 1488.87 2108.66 1485.57 2108.66 1481.37V1329.87C2108.66 1325.67 2107.96 1322.47 2106.56 1320.27C2105.36 1317.87 2102.76 1315.97 2098.76 1314.57L2092.76 1312.77V1306.47H2167.76V1312.77L2161.76 1314.57C2157.96 1315.97 2155.36 1317.87 2153.96 1320.27C2152.56 1322.47 2151.86 1325.67 2151.86 1329.87V1481.37C2151.86 1485.57 2152.56 1488.87 2153.96 1491.27C2155.36 1493.47 2157.96 1495.27 2161.76 1496.67L2167.76 1498.47V1504.77H2092.76ZM2269.86 1509.87C2257.66 1509.87 2245.96 1507.67 2234.76 1503.27C2223.56 1498.87 2213.46 1492.37 2204.46 1483.77C2195.66 1474.97 2188.66 1464.07 2183.46 1451.07C2178.26 1438.07 2175.66 1422.87 2175.66 1405.47C2175.66 1388.47 2178.26 1373.47 2183.46 1360.47C2188.66 1347.47 2195.66 1336.57 2204.46 1327.77C2213.46 1318.97 2223.56 1312.37 2234.76 1307.97C2246.16 1303.37 2257.86 1301.07 2269.86 1301.07C2281.86 1301.07 2293.46 1303.27 2304.66 1307.67C2316.06 1312.07 2326.16 1318.67 2334.96 1327.47C2343.76 1336.07 2350.76 1346.87 2355.96 1359.87C2361.16 1372.87 2363.76 1388.07 2363.76 1405.47C2363.76 1422.47 2361.16 1437.47 2355.96 1450.47C2350.76 1463.47 2343.76 1474.37 2334.96 1483.17C2326.16 1491.97 2316.16 1498.67 2304.96 1503.27C2293.76 1507.67 2282.06 1509.87 2269.86 1509.87ZM2269.86 1500.87C2281.26 1500.87 2290.46 1497.97 2297.46 1492.17C2304.46 1486.17 2309.56 1476.17 2312.76 1462.17C2315.96 1448.17 2317.56 1429.27 2317.56 1405.47C2317.56 1381.67 2315.96 1362.87 2312.76 1349.07C2309.56 1335.07 2304.46 1325.17 2297.46 1319.37C2290.46 1313.37 2281.26 1310.37 2269.86 1310.37C2258.66 1310.37 2249.46 1313.37 2242.26 1319.37C2235.26 1325.17 2230.16 1335.07 2226.96 1349.07C2223.76 1362.87 2222.16 1381.67 2222.16 1405.47C2222.16 1429.27 2223.76 1448.17 2226.96 1462.17C2230.16 1476.17 2235.26 1486.17 2242.26 1492.17C2249.46 1497.97 2258.66 1500.87 2269.86 1500.87ZM2374.68 1504.77V1498.47L2383.38 1496.07C2387.18 1495.07 2389.78 1493.17 2391.18 1490.37C2392.78 1487.57 2393.58 1484.17 2393.58 1480.17V1334.97C2391.78 1331.17 2390.18 1328.37 2388.78 1326.57C2387.58 1324.57 2386.28 1322.87 2384.88 1321.47C2383.48 1320.07 2381.58 1318.47 2379.18 1316.67L2373.78 1312.77V1306.47H2425.08L2524.68 1442.67V1331.37C2524.68 1327.37 2523.98 1323.87 2522.58 1320.87C2521.38 1317.87 2518.78 1315.87 2514.78 1314.87L2505.78 1312.77V1306.47H2550.48V1312.77L2542.98 1314.87C2539.18 1316.07 2536.78 1318.17 2535.78 1321.17C2534.98 1323.97 2534.58 1327.37 2534.58 1331.37V1505.97H2517.78L2403.48 1348.77V1479.87C2403.48 1484.07 2404.08 1487.57 2405.28 1490.37C2406.48 1493.17 2408.98 1495.07 2412.78 1496.07L2420.88 1498.47V1504.77H2374.68ZM2628.93 1509.87C2617.93 1509.87 2606.73 1508.47 2595.33 1505.67C2584.13 1503.07 2574.73 1499.57 2567.13 1495.17L2568.93 1453.47H2577.63L2586.93 1474.17C2589.73 1479.97 2592.63 1484.77 2595.63 1488.57C2598.63 1492.37 2602.63 1495.27 2607.63 1497.27C2611.03 1498.67 2614.23 1499.67 2617.23 1500.27C2620.43 1500.67 2623.93 1500.87 2627.73 1500.87C2639.93 1500.87 2649.53 1497.77 2656.53 1491.57C2663.73 1485.17 2667.33 1476.77 2667.33 1466.37C2667.33 1456.97 2664.83 1449.57 2659.83 1444.17C2655.03 1438.77 2647.23 1433.57 2636.43 1428.57L2624.13 1423.17C2607.33 1415.77 2594.03 1407.17 2584.23 1397.37C2574.63 1387.57 2569.83 1374.57 2569.83 1358.37C2569.83 1346.37 2572.83 1336.17 2578.83 1327.77C2585.03 1319.17 2593.53 1312.57 2604.33 1307.97C2615.13 1303.37 2627.73 1301.07 2642.13 1301.07C2652.73 1301.07 2662.63 1302.47 2671.83 1305.27C2681.23 1308.07 2689.43 1311.87 2696.43 1316.67L2694.33 1353.87H2685.63L2674.53 1331.37C2671.33 1324.77 2668.23 1320.07 2665.23 1317.27C2662.43 1314.27 2658.93 1312.37 2654.73 1311.57C2652.33 1311.17 2650.23 1310.87 2648.43 1310.67C2646.83 1310.47 2644.63 1310.37 2641.83 1310.37C2632.03 1310.37 2623.53 1313.27 2616.33 1319.07C2609.33 1324.67 2605.83 1332.47 2605.83 1342.47C2605.83 1352.07 2608.53 1359.87 2613.93 1365.87C2619.33 1371.87 2627.13 1377.17 2637.33 1381.77L2650.83 1387.47C2670.23 1395.87 2684.13 1404.87 2692.53 1414.47C2700.93 1423.87 2705.13 1435.97 2705.13 1450.77C2705.13 1468.37 2698.43 1482.67 2685.03 1493.67C2671.83 1504.47 2653.13 1509.87 2628.93 1509.87Z" fill="#272727"/>
</svg>
