<svg width="3364" height="1867" viewBox="0 0 3364 1867" fill="none" xmlns="http://www.w3.org/2000/svg">
<path d="M530.662 1395.11C520.416 1394.48 510.168 1393.87 499.922 1393.23C493.128 1392.81 486.314 1392.57 479.547 1391.87C466.118 1390.5 452.652 1389.28 439.315 1387.24C421.289 1384.49 403.147 1381.96 385.449 1377.7C348.22 1368.74 312.166 1356.68 278.985 1336.64C261.438 1326.04 244.46 1315.01 229.461 1301.05C219.772 1292.04 209.522 1283.51 200.692 1273.71C183.439 1254.55 168.43 1233.77 155.492 1211.29C135.67 1176.83 123.767 1139.72 115.647 1101.23C111.919 1083.57 109.764 1065.56 107.051 1047.69C105.027 1034.35 103.207 1020.98 101.377 1007.61C98.8878 989.43 96.6574 971.212 93.9875 953.059C89.8929 925.218 84.2573 897.716 75.8927 870.782C63.8237 831.92 45.4267 796.3 21.5703 763.466C14.6234 753.905 6.89415 744.912 0 734.586C7.65126 737.39 15.4768 739.797 22.9218 743.069C47.389 753.825 69.5142 768.082 89.5913 785.943C119.946 812.947 138.034 846.988 148.056 885.504C155.709 914.916 161.774 944.753 168.131 974.489C177.653 1019.02 185.299 1063.98 198.675 1107.63C208.396 1139.35 220.16 1170.17 238.752 1197.93C261.177 1231.42 290.924 1256.81 325.75 1276.68C355.449 1293.62 387.123 1305.39 420.382 1312.73C434.291 1315.8 448.561 1317.73 462.771 1318.83C486.806 1320.67 510.917 1322.2 535.009 1322.4C551.853 1322.53 568.713 1320.15 585.572 1319C616.828 1316.87 647.547 1311.33 677.845 1303.66C707.858 1296.07 737.305 1286.76 763.724 1269.88C797.29 1248.42 819.748 1218.8 827.916 1179.6C832.577 1157.23 828.942 1135.18 819.562 1114.36C806.21 1084.72 786.684 1059.37 762.776 1037.66C738.383 1015.5 709.348 1001.49 677.218 994.597C661.24 991.17 644.901 989.04 628.613 987.552C611.18 985.96 593.559 984.565 576.123 985.357C555.118 986.312 534.227 989.705 513.276 991.946C507.5 992.565 501.692 993.011 495.888 993.171C494.182 993.219 492.441 992.014 490.716 991.383C491.489 989.325 491.659 986.253 493.134 985.377C501.093 980.652 509.052 975.653 517.61 972.261C539.367 963.638 562.256 959.834 585.42 956.658C613.989 952.741 642.655 951.536 671.346 951.417C693.504 951.325 715.713 952.742 737.818 954.502C756.858 956.018 775.775 959.044 794.763 961.264C824.591 964.751 854.58 966.481 884.521 964.672C908.996 963.194 933.307 959.097 955.269 947.06C969.554 939.229 979.895 927.466 981.747 910.893C984.197 888.957 974.919 871.099 951.933 861.865C938.927 856.64 925.274 854.238 911.308 853.713C897.093 853.179 882.864 852.319 868.655 852.534C847.226 852.857 825.813 854.54 804.387 854.655C766.612 854.859 731.365 845.65 699.731 824.299C695.567 821.489 691.16 819.039 687.031 816.184C685.819 815.346 685.175 813.689 684.271 812.407C685.731 811.645 687.196 810.235 688.649 810.247C692.483 810.278 696.432 810.458 700.123 811.406C722.355 817.121 744.826 818.47 767.624 816.076C784.751 814.278 801.95 813.132 819.057 811.176C831.104 809.799 843.027 807.377 855.051 805.756C862.187 804.793 869.446 804.751 876.584 803.801C884.774 802.712 892.861 800.858 901.049 799.75C906.993 798.946 913.024 798.544 919.025 798.441C930.648 798.242 942.291 798.738 953.902 798.308C981.659 797.279 1008.52 801.49 1034.07 812.324C1061.3 823.866 1081.67 842.714 1092.8 870.647C1102.44 894.853 1098.83 917.584 1084.15 938.525C1066.81 963.276 1043.11 980.506 1014.98 990.472C989.854 999.374 963.758 1005.52 938.197 1013.24C923.497 1017.68 908.611 1021.9 894.549 1027.94C880.779 1033.86 878.686 1045.56 887.844 1057.36C890.445 1060.71 893.771 1063.58 897.072 1066.29C910.549 1077.38 924.935 1087.5 937.503 1099.53C953.958 1115.28 962.361 1135.44 964.533 1158.24C968.621 1201.16 955.632 1239.03 929.437 1272.28C917.405 1287.56 902.498 1300.35 884.929 1309.63C866.379 1319.43 848.557 1330.72 829.581 1339.57C789.304 1358.35 747.177 1371.96 703.442 1380.16C682.269 1384.12 660.994 1387.63 639.667 1390.65C628.374 1392.24 616.869 1392.32 605.461 1393.11C594.822 1393.84 584.186 1394.61 572.656 1394.98C558.063 1394.77 544.363 1394.94 530.662 1395.11Z" fill="#FF5432"/>
<path d="M633.651 447.862C627.91 445.036 622.212 442.845 617.428 439.389C611.276 434.943 611.976 428.971 619.118 426.695C626.926 424.208 635.194 422.533 643.362 421.984C651.82 421.416 660.393 422.74 668.923 423.014C674.859 423.206 680.814 422.812 686.746 423.047C703.433 423.708 720.109 424.678 736.799 425.218C739.51 425.306 742.439 424.156 744.933 422.91C746.033 422.36 747.149 419.886 746.802 418.719C744.914 412.372 747.061 407.212 752.042 403.934C758.087 399.955 764.598 396.311 771.406 393.976C777.628 391.841 782.781 394.556 786.059 402.34C791.483 415.221 796.617 428.401 799.982 441.926C803.595 456.443 805.648 471.436 807.216 486.345C808.517 498.714 808.21 511.259 808.47 523.729C809.854 589.959 787.337 647.95 749.726 701.655C717.011 748.368 676.879 788.062 636.6 827.746C620.37 843.737 603.112 858.707 585.997 873.772C567.319 890.212 548.161 906.106 529.405 922.459C511.645 937.943 493.758 953.313 476.602 969.451C451.297 993.257 425.941 1017.07 401.803 1042.04C375.145 1069.61 350.966 1099.35 335.002 1134.73C327.84 1150.61 323.542 1167.24 321.662 1184.74C319.222 1207.47 324.869 1228.71 330.655 1250.11C332.131 1255.57 333.49 1261.06 334.409 1266.71C315.902 1246.17 303.532 1222.43 295.932 1196.05C290.163 1176.03 288.56 1155.5 290.19 1134.97C292.642 1104.09 303.982 1076.13 321.828 1050.87C339.856 1025.34 360.646 1002.21 383.551 981.004C399.683 966.067 415.805 951.091 432.512 936.81C453.922 918.51 476.092 901.102 497.601 882.915C516.764 866.711 535.954 850.484 554.251 833.326C574.037 814.772 593.53 795.794 611.828 775.79C634.888 750.579 656.784 724.315 675.903 695.833C695.295 666.945 711.771 636.721 721.867 603.255C726.386 588.275 728.822 572.887 727.2 557.436C726.049 546.48 722.685 535.654 719.382 525.059C716.776 516.694 708.802 515.858 701.594 515.912C671.897 516.136 643.371 510.03 615.486 500.481C610.268 498.694 605.286 495.838 600.682 492.749C596.285 489.797 596.25 485.821 601.225 483.45C606.989 480.704 613.557 479.032 619.935 478.32C632.249 476.944 644.676 476.57 657.056 475.781C657.25 475.769 657.489 475.83 657.633 475.739C660.93 473.671 665.862 472.294 667.131 469.345C669.173 464.594 664.026 461.53 660.532 459.729C651.97 455.316 642.941 451.806 633.651 447.862Z" fill="#FF5432"/>
<path d="M396.052 18.4287C402.316 31.1577 397.913 42.2449 391.35 52.5076C384.061 63.905 375.245 74.3443 368.219 85.8857C364.115 92.6277 361.258 100.499 359.553 108.24C357.299 118.463 363.273 125.901 371.372 131.123C387.823 141.729 405.691 143.251 424.146 137.497C427.569 136.43 430.421 133.53 434.885 130.587C430.177 127.139 426.993 124.38 423.42 122.287C417.738 118.958 411.726 116.199 405.979 112.975C393.734 106.106 392.951 92.7459 400.473 82.1241C408.904 70.2194 421.227 64.1478 434.77 60.7943C457.122 55.2593 478.384 58.4028 496.86 72.6884C511.912 84.3264 520.147 99.7131 518.99 119.46C517.279 148.66 499.683 165.459 474.459 175.328C446.926 186.101 418.053 187.82 388.729 185.35C374.442 184.146 360.442 182.018 347.069 176.894C328.005 169.589 312.953 158.121 307.249 137.195C302.111 118.348 307.356 101.96 319.074 87.3495C325.998 78.7168 333.946 70.9128 341.252 62.5765C344.433 58.9472 347.79 55.2258 349.866 50.9615C351.264 48.0882 352.025 42.615 350.437 41.1398C348.315 39.1686 343.172 38.6769 340.157 39.7929C332.972 42.4522 326.382 46.6706 319.347 49.7973C313.401 52.4397 307.269 54.7803 301.028 56.6006C296.284 57.9844 290.663 56.9205 288.814 52.4846C287.402 49.0957 288.24 43.451 290.278 40.1819C297.055 29.3112 308.212 23.195 319.003 17.1212C329.054 11.4641 339.239 5.57742 350.079 1.89756C366.829 -3.78839 387.809 3.76196 396.052 18.4287Z" fill="#FF5432"/>
<path d="M728.485 297.494C732.412 298.165 735.88 298.565 739.171 299.555C756.954 304.905 761.37 322.307 748.776 335.868C739.611 345.738 728.508 352.723 716.594 358.438C686.941 372.664 655.624 382.112 623.601 389.113C606.173 392.924 588.556 396.158 570.865 398.394C554.36 400.48 537.656 401.125 521.018 401.987C507.004 402.714 492.925 403.648 478.936 403.056C453.853 401.995 428.58 401.619 404.313 393.827C397.13 391.521 389.953 388.905 385.48 382.134C382.39 377.458 382.985 373.195 388.2 371.25C396.037 368.329 404.196 365.854 412.434 364.523C423.868 362.675 435.493 361.981 447.051 360.951C453.636 360.364 460.251 360.113 466.85 359.671C483.852 358.534 500.876 357.651 517.849 356.175C576.228 351.097 631.771 335.809 684.328 309.713C698.019 302.916 712.201 297.264 728.485 297.494Z" fill="#FF5432"/>
<path d="M530.451 268.192C569.501 259.367 605.639 243.933 641.614 227.975C653.521 222.693 666.022 219.56 679.314 220.05C689.978 220.443 698.391 226.235 701.87 236.128C705.694 247.004 699.528 254.589 692.925 261.294C683.062 271.312 670.841 278.147 657.956 283.704C623.872 298.405 588.378 308.517 551.938 315.098C535.653 318.039 519.086 319.78 502.568 320.973C482.771 322.403 462.893 323.057 443.041 323.316C426.021 323.538 408.912 323.601 391.982 322.123C375.975 320.727 359.732 319.074 344.883 311.827C339.595 309.246 333.253 306.375 333.677 299.843C334.08 293.622 340.648 290.974 345.976 289.792C356.466 287.463 367.18 286.01 377.866 284.736C390.162 283.27 402.525 282.353 414.865 281.273C420.488 280.781 426.125 280.461 431.758 280.082C443.955 279.26 456.232 279.062 468.333 277.5C488.93 274.841 509.417 271.327 530.451 268.192Z" fill="#FF5432"/>
<path d="M376.946 249.368C365.319 248.703 353.629 248.585 342.082 247.237C326.424 245.409 310.741 243.26 295.355 239.929C290.033 238.777 284.742 234.428 280.911 230.203C275.819 224.59 277.634 219.855 284.958 217.837C292.157 215.853 299.497 214.045 306.894 213.186C323.606 211.243 340.378 209.79 357.149 208.415C369.334 207.416 381.572 207.062 393.755 206.045C404.901 205.115 416.076 204.124 427.112 202.367C444.005 199.678 460.829 196.509 477.611 193.183C510.662 186.635 542.101 175.284 572.504 160.88C589.861 152.657 607.554 145.333 627.323 146.257C635.39 146.634 643.072 148.494 648.383 155.495C653.085 161.693 652.044 171.366 646.394 179.094C639.434 188.613 629.81 194.795 619.838 200.251C589.008 217.122 555.805 227.759 521.691 235.433C502.599 239.729 483.244 243.034 463.871 245.836C451.642 247.605 439.158 247.596 426.792 248.441C423.33 248.677 419.881 249.114 415.556 249.094C406.699 248.609 398.71 248.351 390.723 248.422C386.128 248.462 381.538 249.035 376.946 249.368Z" fill="#FF5432"/>
<path d="M376.062 531.81C388.406 540.541 400.45 548.975 412.467 557.447C430.493 570.155 448.83 582.457 466.403 595.765C478.507 604.932 486.023 618.108 493.06 631.388C494.824 634.718 495.269 639.862 501.075 638.695C505.905 637.724 508.375 633.573 508.067 626.895C507.454 613.628 502.06 602.377 493.625 592.277C474.552 569.437 450.063 553.991 424 540.593C409.765 533.276 395.579 525.858 381.493 518.258C378.129 516.442 374.901 514.052 372.291 511.285C370.819 509.725 370.734 506.857 370.025 504.579C372.153 504.208 374.671 502.913 376.346 503.618C386.785 508.018 397.576 511.963 407.236 517.752C426.982 529.586 446.56 541.826 465.317 555.151C482.27 567.193 497.938 581.082 509.56 598.674C517.855 611.231 519.336 625.34 516.817 639.938C515.709 646.358 514.615 652.816 512.901 659.089C509.569 671.278 499.552 677.385 487.409 673.853C455.101 664.457 425.251 650.333 400.941 626.31C386.283 611.826 378.525 593.626 373.282 574.131C368.533 556.476 361.437 539.966 351.219 524.667C343.733 513.456 338.675 501.073 339.22 487.126C339.3 485.079 339.847 483.05 341.681 480.348C343.26 482.263 345.207 483.982 346.357 486.128C351.751 496.188 356.423 506.675 362.373 516.385C365.839 522.041 371.226 526.52 376.062 531.81Z" fill="#FF5432"/>
<path d="M559.295 671.182C554.263 680.903 549.595 690.315 544.557 699.527C543.637 701.21 541.215 702.071 539.486 703.312C538.816 701.468 537.425 699.554 537.594 697.79C538.676 686.48 539.473 675.088 541.525 663.936C549.122 622.659 543.454 584.835 515.425 551.725C493.721 526.086 466.334 508.429 436.759 493.835C419.984 485.557 402.426 478.879 385.344 471.208C379.085 468.397 373.18 464.801 367.114 461.563C367.252 460.702 367.391 459.841 367.53 458.98C370.225 458.877 373.117 458.078 375.584 458.778C396.288 464.654 417.107 470.224 437.519 477.005C469.093 487.495 498.859 501.918 525.385 522.234C546.661 538.529 564.313 557.794 571.825 584.493C579.207 610.729 574.29 635.722 564.208 660.191C562.736 663.764 561.094 667.268 559.295 671.182Z" fill="#FF5432"/>
<path d="M330.647 805.889C330.13 805.56 329.884 805.546 329.774 805.416C327.769 803.06 325.78 800.689 323.788 798.322C326.721 797.154 329.558 795.456 332.603 794.903C353.586 791.091 374.729 787.999 394.592 779.65C400.215 777.287 405.215 777.789 409.122 782.948C421.503 799.298 434.04 815.534 446.121 832.102C449.022 836.08 450.839 841.028 452.378 845.782C456.122 857.343 447.918 865.873 435.842 863.981C403.379 858.897 375.693 844.22 351.153 822.883C344.562 817.153 337.713 811.72 330.647 805.889Z" fill="#FF5432"/>
<path d="M400.649 740.1C396.902 744.897 395.113 749.828 395.681 755.565C396.666 765.515 392.057 772.037 383.328 776.475C371.744 782.366 359.444 785.047 346.612 785.543C339.319 785.825 331.971 786.032 324.718 785.425C321.249 785.135 316.872 783.796 314.755 781.34C306.529 771.794 295.174 770.427 284.065 768.005C278.87 766.872 273.766 765.321 268.741 763.059C274.413 756.914 281.525 756.79 288.23 756.184C320.916 753.23 353.233 748.619 383.781 735.81C387.818 734.117 391.359 731.239 395.121 728.898C397.729 727.275 400.56 723.241 403.327 727.107C404.786 729.145 403.57 733.268 403.152 736.395C402.992 737.588 401.688 738.628 400.649 740.1Z" fill="#FF5432"/>
<path d="M531.197 1395.17C544.362 1394.94 558.063 1394.77 572.149 1394.86C558.933 1395.15 545.332 1395.19 531.197 1395.17Z" fill="#FF5432"/>
<path d="M377.486 249.438C381.539 249.036 386.129 248.463 390.724 248.423C398.71 248.352 406.699 248.61 415.057 249.027C402.959 249.385 390.493 249.445 377.486 249.438Z" fill="#FF5432"/>
<path d="M2170.42 1050.29C2193.2 1036.93 2216.2 1025.1 2240.78 1016.63C2259.18 1010.28 2277.97 1006.09 2297.55 1004.58C2319.56 1002.88 2340.79 1005.16 2361.19 1013.21C2379.28 1020.35 2394.43 1031.54 2403.36 1049.47C2405.55 1053.86 2406.48 1058.87 2408.26 1064.45C2409.84 1058.09 2411.4 1052.19 2412.75 1046.24C2414.85 1037.06 2416.91 1027.86 2418.79 1018.62C2419.75 1013.93 2422.34 1012.91 2426.97 1012.71C2442.45 1012.02 2457.9 1010.61 2473.37 1009.51C2479.97 1009.04 2486.58 1008.59 2493.19 1008.24C2508.12 1007.45 2523.06 1006.82 2537.98 1005.92C2545.44 1005.48 2552.87 1004.59 2561.27 1003.82C2543.31 1042.61 2525.7 1080.6 2508.15 1118.62C2490.57 1156.72 2472.64 1194.67 2455.63 1233.02C2438.72 1271.17 2418.04 1307.67 2403.94 1347.05C2404.55 1347.5 2405.16 1347.95 2405.78 1348.4C2414.25 1341.66 2423.36 1335.58 2431.09 1328.09C2486.33 1274.53 2541.22 1220.61 2596.39 1166.97C2612.46 1151.35 2628.54 1135.66 2645.56 1121.11C2666.79 1102.96 2688.7 1085.57 2710.9 1068.63C2720.81 1061.06 2732.03 1054.51 2744.96 1053.87C2754.35 1053.4 2760.88 1047.76 2768.28 1043.69C2795.61 1028.67 2823.63 1015.23 2854.36 1008.99C2868.65 1006.09 2883.39 1003.92 2897.91 1004.01C2921.81 1004.16 2945.15 1008.52 2965.41 1022.66C2979.77 1032.68 2991.26 1044.86 2994.86 1063.39C2996.28 1057.82 2997.81 1052.28 2999.09 1046.68C3001.17 1037.53 3003.14 1028.35 3005.04 1019.16C3005.99 1014.54 3008.2 1012.86 3013.33 1012.67C3028.83 1012.1 3044.29 1010.62 3059.76 1009.52C3066.17 1009.06 3072.58 1008.63 3079 1008.29C3093.93 1007.49 3108.87 1006.83 3123.79 1005.93C3131.29 1005.48 3138.77 1004.62 3147.52 1003.83C3120.97 1061.53 3094.5 1118.48 3068.52 1175.66C3042.59 1232.75 3014.54 1288.9 2989.79 1346.53C2990.51 1347.04 2991.22 1347.55 2991.94 1348.07C2997.89 1343.66 3004.18 1339.64 3009.74 1334.79C3067.93 1284.02 3120.62 1227.57 3175.8 1173.69C3196.43 1153.55 3217.59 1133.89 3239.35 1114.99C3258.19 1098.61 3277.92 1083.19 3297.88 1068.17C3307.7 1060.78 3318.85 1055.03 3331.53 1053.63C3333.93 1053.37 3336.43 1053.83 3338.88 1054.03C3346.93 1054.67 3354.97 1055.34 3364 1056.08C3357.79 1061.77 3352.03 1067.12 3346.2 1072.39C3339.55 1078.41 3332.65 1084.17 3326.19 1090.39C3301.43 1114.21 3276.75 1138.1 3252.16 1162.09C3215.54 1197.83 3178.99 1233.65 3142.47 1269.51C3130.64 1281.13 3119.38 1293.36 3107.23 1304.62C3076.28 1333.3 3044.19 1360.56 3006.69 1380.59C2990.26 1389.36 2973.12 1396.74 2954.54 1398.64C2929.82 1401.16 2905.94 1397.67 2885.98 1381.23C2870.09 1368.14 2860.74 1351.18 2859.82 1330.25C2859.45 1322 2859.76 1313.71 2859.76 1304.22C2854.93 1311.05 2850.91 1317.12 2846.5 1322.9C2817.87 1360.46 2780.82 1386.06 2734.72 1396.17C2702.65 1403.2 2670.61 1400.9 2641.72 1382.56C2615.15 1365.69 2598.66 1341.75 2593.51 1310.58C2591.66 1299.39 2589.81 1287.91 2590.34 1276.67C2591.08 1261.04 2594.06 1245.52 2596.09 1229.9C2595.4 1230.44 2594.33 1231.12 2593.46 1232C2577.26 1248.4 2561.24 1264.98 2544.87 1281.22C2510.22 1315.58 2474.37 1348.55 2432.25 1373.84C2412.61 1385.64 2392.05 1395.92 2369.07 1398.4C2337.21 1401.82 2305.86 1395.98 2284.14 1363.65C2276.31 1352 2272.77 1338.9 2273.22 1324.76C2273.43 1318.32 2273.26 1311.86 2273.26 1304.24C2268.83 1310.59 2265.14 1316.22 2261.12 1321.6C2233.91 1358.1 2198.41 1383.17 2154.5 1394.72C2122.05 1403.26 2089.44 1402 2059.35 1384.92C2030.65 1368.63 2012.94 1343.75 2007.07 1311.23C2001.34 1279.48 2004.53 1248.17 2014.36 1217.5C2014.68 1216.5 2014.93 1215.48 2014.32 1213.86C2003.42 1225.25 1992.55 1236.66 1981.63 1248.02C1977.7 1252.11 1973.45 1255.9 1969.72 1260.15C1964.2 1266.45 1957.18 1269.78 1949.65 1273.23C1943.3 1276.13 1938.38 1282.4 1933.17 1287.52C1917.73 1302.69 1902.81 1318.41 1887.01 1333.19C1874.54 1344.84 1861.44 1355.9 1847.95 1366.35C1830.61 1379.77 1812.16 1391.78 1790.48 1396.9C1767.69 1402.28 1745.82 1399 1726.57 1385.15C1703.07 1368.24 1690.71 1344.16 1684.46 1316.43C1680.63 1299.43 1679.92 1282.11 1681.1 1264.99C1683.18 1234.6 1690.02 1205.01 1700.1 1176.2C1719.12 1121.88 1745.94 1071.3 1774.88 1021.83C1791.36 993.665 1808.55 965.866 1826.59 938.684C1861.07 886.738 1896.11 835.153 1931.5 783.821C1947.87 760.077 1965.61 737.281 1982.71 714.041C1983.12 713.496 1983.28 712.776 1982.54 711.332C1978.04 716.168 1973.29 720.808 1969.06 725.876C1954.24 743.653 1939.42 761.443 1924.91 779.476C1902.38 807.465 1879.22 835 1857.93 863.908C1820.49 914.734 1783.3 965.788 1747.78 1017.96C1697.36 1092.02 1649.01 1167.45 1606.07 1246.22C1589.08 1277.4 1571.33 1308.17 1553.29 1338.76C1543.79 1354.85 1532.04 1369.48 1518.09 1382.03C1497.37 1400.67 1477.81 1405 1452.44 1391.91C1436.53 1383.71 1427.7 1368.95 1420.72 1353.16C1414.22 1338.49 1411.2 1322.96 1408.6 1307.11C1403.47 1275.89 1409.36 1246.25 1419.01 1217.02C1437.12 1162.14 1462.51 1110.44 1490.42 1060.06C1516.96 1012.14 1544.77 964.911 1572.7 917.78C1591.65 885.803 1611.77 854.519 1631.35 822.919C1631.91 822.019 1632.37 821.056 1631.78 819.326C1628.87 823.156 1625.84 826.902 1623.07 830.829C1590.7 876.67 1557.83 922.17 1526.19 968.511C1498.55 1009 1472.22 1050.38 1445.48 1091.48C1430 1115.29 1415.11 1139.5 1399.51 1163.23C1382.95 1188.44 1366.39 1213.67 1348.86 1238.19C1335.05 1257.5 1320.16 1276.07 1305.01 1294.36C1293.37 1308.42 1281.29 1322.28 1268.11 1334.88C1244.52 1357.43 1219.1 1377.7 1188.33 1390.04C1173.47 1396 1158.22 1399.15 1142.04 1399.13C1123.67 1399.1 1105.78 1396.74 1089.03 1389.41C1056.55 1375.2 1032.8 1352.27 1023.12 1317.3C1019.82 1305.35 1017.34 1292.66 1017.57 1280.37C1018.09 1251.67 1025.81 1224.76 1043.92 1201.74C1060.36 1180.83 1080.49 1165.1 1106.31 1157C1121.51 1152.24 1136.97 1152.31 1152.47 1152.77C1170.92 1153.31 1188.22 1158.38 1201.84 1171.27C1218.12 1186.68 1223.83 1205.99 1220.5 1228.3C1218.6 1241.05 1213.77 1252.03 1204.6 1260.95C1195.82 1269.48 1184.9 1274.6 1173.42 1278.12C1157.83 1282.9 1141.82 1286.35 1126.31 1291.34C1114.93 1294.99 1105.41 1301.58 1101.8 1314.14C1097.87 1327.79 1103.25 1338.29 1113.54 1346.4C1133.27 1361.96 1154.56 1364.71 1177.57 1353.31C1191.87 1346.23 1204.39 1336.83 1215.87 1326C1253.19 1290.77 1282.85 1249.37 1310.28 1206.39C1332.44 1171.66 1353.28 1136.08 1374.75 1100.91C1385.79 1082.84 1397.74 1065.28 1407.87 1046.72C1433.7 999.388 1466.46 956.785 1497.86 913.281C1520.74 881.571 1544.89 850.766 1568.76 819.771C1583.53 800.582 1598.42 781.454 1613.99 762.914C1630.49 743.27 1647.62 724.142 1664.91 705.189C1677.89 690.967 1691.12 676.917 1705.05 663.634C1720.16 649.216 1735.71 634.972 1755.92 627.724C1769.61 622.813 1784.56 627.597 1793.13 639.005C1798.12 645.651 1797.87 653.482 1795.48 660.427C1786.31 687.096 1776.72 713.635 1766.6 739.96C1757.43 763.807 1747.67 787.438 1737.65 810.938C1722.21 847.109 1705.84 882.885 1690.75 919.194C1668.71 972.208 1647.05 1025.39 1625.98 1078.79C1607.74 1125.03 1589.83 1171.42 1573.16 1218.23C1561.53 1250.87 1552.22 1284.33 1541.96 1317.45C1541.08 1320.31 1540.88 1323.39 1541.13 1326.63C1547.7 1312.48 1554.2 1298.3 1560.86 1284.19C1589.64 1223.17 1620.3 1163.11 1653.36 1104.28C1688 1042.65 1724.63 982.241 1765.12 924.286C1790.17 888.429 1816.49 853.457 1842.56 818.32C1850.52 807.595 1859.62 797.724 1868.01 787.319C1881.47 770.646 1894.24 753.382 1908.28 737.217C1931.42 710.576 1954.49 683.835 1981.12 660.443C1994.39 648.787 2007.75 637.397 2023.81 629.762C2035.52 624.196 2047.37 624.034 2058.6 630.951C2062.31 633.241 2066.11 636.378 2068.17 640.074C2069.9 643.157 2070.58 648.211 2069.28 651.385C2057.19 680.783 2044.76 710.045 2032.07 739.189C2002.95 806.033 1972.82 872.447 1944.61 939.668C1909.64 1023 1876.99 1107.27 1848.51 1193.11C1836.66 1228.84 1825.96 1264.86 1817.79 1301.59C1815.07 1313.79 1814.22 1326.4 1812.52 1338.82C1813.12 1339.15 1813.72 1339.49 1814.32 1339.82C1820.57 1335.15 1827.2 1330.92 1832.98 1325.74C1855.49 1305.6 1877.82 1285.26 1900.02 1264.78C1914.93 1251.02 1929.79 1237.18 1944.21 1222.9C1978.74 1188.7 2012.48 1153.68 2047.54 1120.03C2070.37 1098.12 2093.41 1076.17 2120.62 1059.39C2130.69 1053.18 2141.05 1047.52 2153.41 1048.23C2158.95 1048.55 2164.45 1049.67 2170.42 1050.29ZM1638.2 812.193C1638.32 811.868 1638.45 811.543 1638.58 811.218C1638.33 811.163 1638.08 811.108 1637.83 811.053C1637.78 811.551 1637.73 812.05 1637.01 812.487C1636.84 812.897 1636.67 813.307 1635.79 814.028C1634.85 815.232 1633.92 816.435 1632.99 817.639C1633.46 817.928 1633.93 818.217 1634.4 818.506C1635.08 816.882 1635.75 815.259 1637.07 813.626C1637.25 813.239 1637.44 812.852 1638.2 812.193ZM2720.35 1358.92C2730.38 1354.51 2740.91 1350.97 2750.34 1345.53C2782.9 1326.76 2809.67 1300.93 2834.29 1273.02C2854.8 1249.77 2874.46 1225.69 2893.38 1201.13C2912.86 1175.85 2930.57 1149.26 2944.21 1120.25C2950.22 1107.46 2956.15 1094.54 2952.26 1079.69C2947.22 1060.41 2924.57 1047.11 2905.63 1057.96C2895.95 1063.51 2886.31 1069.89 2878.43 1077.69C2862.09 1093.84 2846.12 1110.52 2831.51 1128.23C2813.52 1150.04 2796.73 1172.87 2780.05 1195.73C2755.55 1229.33 2731.94 1263.56 2714.14 1301.35C2706.29 1318.04 2699.9 1335.14 2701.38 1354.23C2701.75 1359 2703.52 1360.47 2707.79 1360.06C2711.64 1359.69 2715.49 1359.3 2720.35 1358.92ZM2151.22 1258.58C2143.31 1272.96 2134.81 1287.05 2127.65 1301.8C2119.78 1317.99 2113.61 1334.85 2115 1353.52C2115.34 1358.13 2116.45 1360.17 2121.43 1360.15C2136.1 1360.11 2148.79 1354.19 2161.11 1347.25C2195.12 1328.09 2222.8 1301.32 2248.49 1272.55C2267.61 1251.13 2285.64 1228.68 2303.31 1206.03C2324.99 1178.23 2344.55 1148.94 2359.54 1116.9C2363.87 1107.66 2367.45 1098 2367.09 1087.37C2366.29 1063.38 2339.95 1046.19 2320.11 1057.68C2309.31 1063.93 2298.99 1071.46 2289.76 1079.85C2267.25 1100.32 2248.1 1123.88 2229.46 1147.89C2201.9 1183.41 2175.57 1219.77 2151.22 1258.58ZM1988.01 707.178C1987.65 706.789 1987.29 706.4 1986.93 706.012C1986.6 706.782 1986.28 707.553 1985.95 708.323C1986.51 708.169 1987.07 708.015 1988.01 707.178ZM1991.99 700.886C1992.16 701.137 1992.33 701.388 1992.5 701.638C1992.46 701.241 1992.42 700.843 1991.99 700.886Z" fill="#FF5432"/>
<path d="M2719.85 1358.92C2715.49 1359.3 2711.64 1359.69 2707.79 1360.06C2703.52 1360.47 2701.75 1359 2701.38 1354.23C2699.9 1335.14 2706.29 1318.04 2714.14 1301.35C2731.94 1263.56 2755.55 1229.33 2780.05 1195.73C2796.73 1172.87 2813.52 1150.04 2831.51 1128.23C2846.12 1110.52 2862.09 1093.84 2878.43 1077.69C2886.31 1069.89 2895.95 1063.51 2905.63 1057.96C2924.57 1047.11 2947.22 1060.41 2952.26 1079.69C2956.15 1094.54 2950.22 1107.46 2944.21 1120.25C2930.57 1149.26 2912.86 1175.85 2893.38 1201.13C2874.46 1225.69 2854.8 1249.77 2834.29 1273.02C2809.67 1300.93 2782.9 1326.76 2750.34 1345.53C2740.91 1350.97 2730.38 1354.51 2719.85 1358.92Z" fill="#FFFFFE"/>
<path d="M2151.38 1258.18C2175.57 1219.77 2201.9 1183.41 2229.46 1147.89C2248.1 1123.88 2267.25 1100.32 2289.76 1079.86C2298.99 1071.46 2309.31 1063.93 2320.11 1057.68C2339.95 1046.19 2366.29 1063.38 2367.09 1087.37C2367.45 1098 2363.87 1107.66 2359.54 1116.9C2344.55 1148.94 2324.99 1178.23 2303.31 1206.03C2285.64 1228.68 2267.61 1251.13 2248.49 1272.55C2222.8 1301.32 2195.12 1328.09 2161.11 1347.25C2148.79 1354.19 2136.1 1360.11 2121.43 1360.15C2116.45 1360.17 2115.34 1358.13 2115 1353.52C2113.61 1334.85 2119.78 1317.99 2127.65 1301.8C2134.81 1287.05 2143.31 1272.96 2151.38 1258.18Z" fill="#FFFFFE"/>
<path d="M1636.43 813.635C1635.75 815.259 1635.08 816.882 1634.4 818.506C1633.93 818.217 1633.46 817.928 1632.99 817.64C1633.92 816.436 1634.85 815.232 1636.13 813.851C1636.47 813.674 1636.43 813.635 1636.43 813.635Z" fill="white"/>
<path d="M1987.82 707.52C1987.07 708.015 1986.51 708.169 1985.95 708.323C1986.28 707.552 1986.6 706.782 1986.93 706.011C1987.29 706.4 1987.65 706.789 1987.82 707.52Z" fill="white"/>
<path d="M1637.69 812.548C1637.74 812.049 1637.78 811.551 1637.83 811.052C1638.08 811.107 1638.33 811.163 1638.58 811.218C1638.45 811.543 1638.32 811.868 1637.92 812.351C1637.65 812.509 1637.69 812.548 1637.69 812.548Z" fill="white"/>
<path d="M1992.18 700.666C1992.42 700.843 1992.46 701.241 1992.5 701.638C1992.33 701.388 1992.16 701.137 1992.18 700.666Z" fill="white"/>
<path d="M1636.48 813.696C1636.67 813.307 1636.84 812.897 1637.35 812.518C1637.69 812.549 1637.65 812.51 1637.63 812.488C1637.44 812.853 1637.25 813.24 1636.75 813.631C1636.43 813.636 1636.47 813.674 1636.48 813.696Z" fill="white"/>
<path d="M204.026 1740.88V1734.27L210.011 1732.69C214.211 1731.43 216.941 1729.54 218.201 1727.02C219.461 1724.5 220.196 1721.04 220.406 1716.63C220.616 1704.66 220.721 1692.58 220.721 1680.4C220.721 1668.01 220.721 1655.62 220.721 1643.23V1630.32C220.721 1618.14 220.721 1605.96 220.721 1593.78C220.721 1581.6 220.616 1569.42 220.406 1557.24C220.196 1552.83 219.566 1549.47 218.516 1547.16C217.466 1544.64 214.946 1542.75 210.956 1541.49L204.026 1539.28V1532.67H355.541L357.746 1585.9H349.241L332.861 1554.72C330.761 1550.73 328.451 1547.68 325.931 1545.58C323.411 1543.27 319.736 1542.12 314.906 1542.12H266.396C266.186 1556.19 265.976 1570.68 265.766 1585.59C265.766 1600.29 265.766 1614.99 265.766 1629.69H296.006C300.836 1629.69 304.406 1628.64 306.716 1626.54C309.026 1624.23 311.231 1621.08 313.331 1617.09L319.631 1605.43H326.561V1663.08H319.631L313.331 1651.74C311.021 1647.54 308.711 1644.39 306.401 1642.29C304.301 1639.98 300.836 1638.82 296.006 1638.82H265.766C265.766 1652.68 265.766 1666.02 265.766 1678.83C265.766 1691.43 265.871 1703.82 266.081 1716C266.081 1724.61 269.966 1729.96 277.736 1732.06L287.186 1734.27V1740.88H204.026ZM486.03 1746.24C470.28 1746.24 456.315 1743.4 444.135 1737.73C432.165 1732.06 422.715 1723.14 415.785 1710.96C409.065 1698.57 405.705 1682.29 405.705 1662.13V1628.11C405.705 1616.35 405.705 1604.49 405.705 1592.52C405.705 1580.55 405.6 1568.47 405.39 1556.29C405.39 1548.1 401.505 1542.96 393.735 1540.86L386.805 1539.28V1532.67H471.855V1539.28L463.035 1541.17C455.055 1543.06 451.065 1548.31 451.065 1556.92C450.855 1568.68 450.75 1580.55 450.75 1592.52C450.75 1604.28 450.75 1616.14 450.75 1628.11V1668.12C450.75 1688.49 454.845 1703.19 463.035 1712.22C471.435 1721.25 483.3 1725.76 498.63 1725.76C514.8 1725.76 527.4 1720.93 536.43 1711.27C545.67 1701.4 550.29 1686.81 550.29 1667.49V1557.87C550.29 1553.67 549.45 1549.99 547.77 1546.84C546.09 1543.69 543.15 1541.7 538.95 1540.86L531.39 1539.28V1532.67H579.9V1539.28L571.08 1541.17C567.09 1542.01 564.36 1543.9 562.89 1546.84C561.42 1549.78 560.685 1553.35 560.685 1557.55V1665.6C560.685 1691.64 553.86 1711.59 540.21 1725.45C526.56 1739.31 508.5 1746.24 486.03 1746.24ZM670.531 1746.24C658.981 1746.24 647.221 1744.77 635.251 1741.83C623.491 1739.1 613.621 1735.42 605.641 1730.8L607.531 1687.02H616.666L626.431 1708.75C629.371 1714.84 632.416 1719.88 635.566 1723.87C638.716 1727.86 642.916 1730.91 648.166 1733.01C651.736 1734.48 655.096 1735.53 658.246 1736.16C661.606 1736.58 665.281 1736.79 669.271 1736.79C682.081 1736.79 692.161 1733.53 699.511 1727.02C707.071 1720.3 710.851 1711.48 710.851 1700.56C710.851 1690.69 708.226 1682.92 702.976 1677.25C697.936 1671.58 689.746 1666.12 678.406 1660.87L665.491 1655.2C647.851 1647.43 633.886 1638.4 623.596 1628.11C613.516 1617.82 608.476 1604.17 608.476 1587.16C608.476 1574.56 611.626 1563.85 617.926 1555.03C624.436 1546 633.361 1539.07 644.701 1534.24C656.041 1529.41 669.271 1527 684.391 1527C695.521 1527 705.916 1528.47 715.576 1531.41C725.446 1534.35 734.056 1538.34 741.406 1543.38L739.201 1582.44H730.066L718.411 1558.81C715.051 1551.88 711.796 1546.95 708.646 1544.01C705.706 1540.86 702.031 1538.86 697.621 1538.02C695.101 1537.6 692.896 1537.29 691.006 1537.08C689.326 1536.87 687.016 1536.76 684.076 1536.76C673.786 1536.76 664.861 1539.81 657.301 1545.9C649.951 1551.78 646.276 1559.97 646.276 1570.47C646.276 1580.55 649.111 1588.74 654.781 1595.04C660.451 1601.34 668.641 1606.9 679.351 1611.73L693.526 1617.72C713.896 1626.54 728.491 1635.99 737.311 1646.07C746.131 1655.94 750.541 1668.64 750.541 1684.18C750.541 1702.66 743.506 1717.68 729.436 1729.23C715.576 1740.57 695.941 1746.24 670.531 1746.24ZM780.993 1740.88V1734.27L787.293 1732.38C791.493 1730.91 794.223 1729.02 795.483 1726.71C796.953 1724.19 797.688 1720.72 797.688 1716.31V1557.24C797.688 1552.83 796.953 1549.47 795.483 1547.16C794.223 1544.64 791.493 1542.64 787.293 1541.17L780.993 1539.28V1532.67H859.743V1539.28L853.443 1541.17C849.453 1542.64 846.723 1544.64 845.253 1547.16C843.783 1549.47 843.048 1552.83 843.048 1557.24V1716.31C843.048 1720.72 843.783 1724.19 845.253 1726.71C846.723 1729.02 849.453 1730.91 853.443 1732.38L859.743 1734.27V1740.88H780.993ZM982.694 1746.24C969.884 1746.24 957.599 1743.93 945.839 1739.31C934.079 1734.69 923.474 1727.86 914.024 1718.83C904.784 1709.59 897.434 1698.15 891.974 1684.5C886.514 1670.85 883.784 1654.89 883.784 1636.62C883.784 1618.77 886.514 1603.02 891.974 1589.37C897.434 1575.72 904.784 1564.27 914.024 1555.03C923.474 1545.79 934.079 1538.86 945.839 1534.24C957.809 1529.41 970.094 1527 982.694 1527C995.294 1527 1007.47 1529.31 1019.23 1533.93C1031.2 1538.55 1041.81 1545.48 1051.05 1554.72C1060.29 1563.75 1067.64 1575.09 1073.1 1588.74C1078.56 1602.39 1081.29 1618.35 1081.29 1636.62C1081.29 1654.47 1078.56 1670.22 1073.1 1683.87C1067.64 1697.52 1060.29 1708.96 1051.05 1718.2C1041.81 1727.44 1031.31 1734.48 1019.55 1739.31C1007.79 1743.93 995.504 1746.24 982.694 1746.24ZM982.694 1736.79C994.664 1736.79 1004.32 1733.74 1011.67 1727.65C1019.02 1721.35 1024.38 1710.85 1027.74 1696.15C1031.1 1681.45 1032.78 1661.61 1032.78 1636.62C1032.78 1611.63 1031.1 1591.89 1027.74 1577.4C1024.38 1562.7 1019.02 1552.3 1011.67 1546.21C1004.32 1539.91 994.664 1536.76 982.694 1536.76C970.934 1536.76 961.274 1539.91 953.714 1546.21C946.364 1552.3 941.009 1562.7 937.649 1577.4C934.289 1591.89 932.609 1611.63 932.609 1636.62C932.609 1661.61 934.289 1681.45 937.649 1696.15C941.009 1710.85 946.364 1721.35 953.714 1727.65C961.274 1733.74 970.934 1736.79 982.694 1736.79ZM1108.51 1740.88V1734.27L1117.64 1731.75C1121.63 1730.7 1124.36 1728.7 1125.83 1725.76C1127.51 1722.82 1128.35 1719.25 1128.35 1715.05V1562.59C1126.46 1558.6 1124.78 1555.66 1123.31 1553.77C1122.05 1551.67 1120.69 1549.89 1119.22 1548.42C1117.75 1546.95 1115.75 1545.27 1113.23 1543.38L1107.56 1539.28V1532.67H1161.43L1266.01 1675.68V1558.81C1266.01 1554.61 1265.27 1550.94 1263.8 1547.79C1262.54 1544.64 1259.81 1542.54 1255.61 1541.49L1246.16 1539.28V1532.67H1293.1V1539.28L1285.22 1541.49C1281.23 1542.75 1278.71 1544.95 1277.66 1548.1C1276.82 1551.04 1276.4 1554.61 1276.4 1558.81V1742.14H1258.76L1138.75 1577.08V1714.74C1138.75 1719.15 1139.38 1722.82 1140.64 1725.76C1141.9 1728.7 1144.52 1730.7 1148.51 1731.75L1157.02 1734.27V1740.88H1108.51ZM1519.89 1746.24C1499.52 1746.24 1481.15 1742.04 1464.77 1733.64C1448.39 1725.24 1435.37 1712.85 1425.71 1696.47C1416.26 1680.09 1411.53 1660.14 1411.53 1636.62C1411.53 1618.98 1414.37 1603.33 1420.04 1589.68C1425.92 1576.03 1433.9 1564.59 1443.98 1555.35C1454.27 1545.9 1466.03 1538.86 1479.26 1534.24C1492.49 1529.41 1506.56 1527 1521.47 1527C1533.02 1527 1543.83 1528.36 1553.91 1531.09C1563.99 1533.61 1573.65 1537.39 1582.89 1542.43L1584.15 1583.7H1575.65L1562.42 1558.81C1560.32 1554.61 1558.01 1550.83 1555.49 1547.47C1553.18 1544.11 1550.13 1541.7 1546.35 1540.23C1541.1 1537.71 1534.91 1536.45 1527.77 1536.45C1515.38 1536.45 1504.04 1539.6 1493.75 1545.9C1483.67 1552.2 1475.58 1562.7 1469.49 1577.4C1463.4 1591.89 1460.36 1611.73 1460.36 1636.93C1460.36 1661.92 1463.19 1681.77 1468.86 1696.47C1474.74 1711.17 1482.62 1721.67 1492.49 1727.97C1502.36 1734.06 1513.49 1737.1 1525.88 1737.1C1531.55 1737.1 1536.17 1736.68 1539.74 1735.84C1543.31 1735 1546.88 1733.85 1550.45 1732.38C1554.65 1730.7 1557.9 1728.28 1560.21 1725.13C1562.52 1721.77 1564.52 1717.99 1566.2 1713.79L1578.17 1685.13H1586.67L1585.41 1730.49C1576.38 1735.53 1566.41 1739.41 1555.49 1742.14C1544.57 1744.87 1532.7 1746.24 1519.89 1746.24ZM1617.71 1740.88V1734.27L1624.33 1732.38C1628.53 1731.12 1631.15 1729.33 1632.2 1727.02C1633.46 1724.5 1634.09 1721.04 1634.09 1716.63C1634.3 1704.45 1634.41 1692.27 1634.41 1680.09C1634.41 1667.91 1634.41 1655.62 1634.41 1643.23V1630.32C1634.41 1618.14 1634.41 1605.96 1634.41 1593.78C1634.41 1581.6 1634.3 1569.42 1634.09 1557.24C1634.09 1552.83 1633.57 1549.47 1632.52 1547.16C1631.47 1544.64 1628.84 1542.75 1624.64 1541.49L1617.71 1539.28V1532.67H1705.91C1730.48 1532.67 1749.38 1537.39 1762.61 1546.84C1776.05 1556.08 1782.77 1569.1 1782.77 1585.9C1782.77 1595.14 1779.1 1604.49 1771.75 1613.94C1764.61 1623.39 1753.58 1630.63 1738.67 1635.67L1781.51 1719.15C1785.08 1726.08 1790.65 1730.8 1798.21 1733.32L1804.19 1734.58V1740.88H1748.44L1701.5 1642.6H1678.82C1678.82 1657.51 1678.82 1670.95 1678.82 1682.92C1678.82 1694.89 1678.93 1706.13 1679.14 1716.63C1679.14 1720.83 1679.77 1724.19 1681.03 1726.71C1682.5 1729.23 1685.23 1731.01 1689.22 1732.06L1696.78 1734.27V1740.88H1617.71ZM1678.82 1633.47H1695.83C1710.74 1633.47 1721.66 1629.69 1728.59 1622.13C1735.52 1614.57 1738.99 1603.02 1738.99 1587.48C1738.99 1571.94 1735.63 1560.49 1728.91 1553.14C1722.4 1545.58 1711.79 1541.8 1697.09 1541.8H1679.14C1679.14 1549.99 1679.03 1558.39 1678.82 1567C1678.82 1575.4 1678.82 1584.96 1678.82 1595.67C1678.82 1606.17 1678.82 1618.77 1678.82 1633.47ZM1830.34 1740.88V1734.27L1836.64 1732.06C1840.42 1731.01 1843.04 1729.23 1844.51 1726.71C1845.98 1723.98 1846.82 1720.3 1847.03 1715.68V1557.24C1846.82 1552.83 1846.09 1549.47 1844.83 1547.16C1843.57 1544.64 1840.94 1542.75 1836.95 1541.49L1830.34 1539.28V1532.67H1980.28L1982.48 1583.07H1973.66L1961.06 1554.72C1959.38 1550.73 1957.49 1547.68 1955.39 1545.58C1953.29 1543.27 1950.14 1542.12 1945.94 1542.12H1892.39C1892.18 1555.14 1892.08 1568.58 1892.08 1582.44C1892.08 1596.09 1892.08 1611.52 1892.08 1628.74H1923.26C1927.46 1628.74 1930.61 1627.69 1932.71 1625.59C1935.02 1623.28 1937.12 1620.24 1939.01 1616.46L1944.37 1604.49H1951.3V1662.76H1944.37L1938.7 1650.79C1937.02 1647.01 1935.13 1643.97 1933.03 1641.66C1930.93 1639.35 1927.78 1638.19 1923.58 1638.19H1892.08C1892.08 1653.31 1892.08 1666.33 1892.08 1677.25C1892.08 1688.17 1892.08 1697.94 1892.08 1706.55C1892.29 1714.95 1892.39 1723.24 1892.39 1731.43H1952.87C1957.07 1731.43 1960.33 1730.38 1962.64 1728.28C1964.95 1725.97 1966.84 1722.82 1968.31 1718.83L1979.96 1690.48H1988.78L1986.58 1740.88H1830.34ZM2015.47 1740.88V1734.27L2023.97 1731.75C2028.38 1730.49 2031.74 1728.6 2034.05 1726.08C2036.57 1723.56 2038.57 1720.09 2040.04 1715.68L2103.67 1531.72H2129.81L2193.13 1716.94C2194.81 1721.56 2196.7 1725.13 2198.8 1727.65C2200.9 1729.96 2204.26 1731.85 2208.88 1733.32L2213.6 1734.58V1740.88H2133.59V1734.58L2138.95 1733.01C2143.57 1731.54 2146.3 1729.23 2147.14 1726.08C2148.19 1722.93 2147.98 1719.04 2146.51 1714.42L2133.28 1673.79H2063.66L2050.12 1713.79C2048.65 1718.41 2048.23 1722.19 2048.86 1725.13C2049.49 1728.07 2052.11 1730.38 2056.73 1732.06L2063.66 1734.27V1740.88H2015.47ZM2066.81 1664.65H2130.44L2099.57 1569.84L2066.81 1664.65ZM2261.2 1740.88V1734.27L2273.8 1731.75C2282.62 1729.86 2287.03 1724.71 2287.03 1716.31V1630.32C2287.03 1615.62 2287.03 1600.92 2287.03 1586.22C2287.03 1571.52 2286.92 1556.82 2286.71 1542.12H2261.83C2255.11 1542.12 2250.17 1543.9 2247.02 1547.47C2243.87 1551.04 2240.72 1556.08 2237.57 1562.59L2226.55 1585.9H2217.73L2219.3 1532.67H2400.11L2401.69 1585.9H2392.87L2381.84 1562.59C2378.69 1556.08 2375.54 1551.04 2372.39 1547.47C2369.24 1543.9 2364.31 1542.12 2357.59 1542.12H2332.39V1716.31C2332.39 1724.92 2336.8 1730.07 2345.62 1731.75L2358.53 1734.27V1740.88H2261.2ZM2430.99 1740.88V1734.27L2437.29 1732.38C2441.49 1730.91 2444.22 1729.02 2445.48 1726.71C2446.95 1724.19 2447.69 1720.72 2447.69 1716.31V1557.24C2447.69 1552.83 2446.95 1549.47 2445.48 1547.16C2444.22 1544.64 2441.49 1542.64 2437.29 1541.17L2430.99 1539.28V1532.67H2509.74V1539.28L2503.44 1541.17C2499.45 1542.64 2496.72 1544.64 2495.25 1547.16C2493.78 1549.47 2493.05 1552.83 2493.05 1557.24V1716.31C2493.05 1720.72 2493.78 1724.19 2495.25 1726.71C2496.72 1729.02 2499.45 1730.91 2503.44 1732.38L2509.74 1734.27V1740.88H2430.99ZM2632.69 1746.24C2619.88 1746.24 2607.6 1743.93 2595.84 1739.31C2584.08 1734.69 2573.47 1727.86 2564.02 1718.83C2554.78 1709.59 2547.43 1698.15 2541.97 1684.5C2536.51 1670.85 2533.78 1654.89 2533.78 1636.62C2533.78 1618.77 2536.51 1603.02 2541.97 1589.37C2547.43 1575.72 2554.78 1564.27 2564.02 1555.03C2573.47 1545.79 2584.08 1538.86 2595.84 1534.24C2607.81 1529.41 2620.09 1527 2632.69 1527C2645.29 1527 2657.47 1529.31 2669.23 1533.93C2681.2 1538.55 2691.81 1545.48 2701.05 1554.72C2710.29 1563.75 2717.64 1575.09 2723.1 1588.74C2728.56 1602.39 2731.29 1618.35 2731.29 1636.62C2731.29 1654.47 2728.56 1670.22 2723.1 1683.87C2717.64 1697.52 2710.29 1708.96 2701.05 1718.2C2691.81 1727.44 2681.31 1734.48 2669.55 1739.31C2657.79 1743.93 2645.5 1746.24 2632.69 1746.24ZM2632.69 1736.79C2644.66 1736.79 2654.32 1733.74 2661.67 1727.65C2669.02 1721.35 2674.38 1710.85 2677.74 1696.15C2681.1 1681.45 2682.78 1661.61 2682.78 1636.62C2682.78 1611.63 2681.1 1591.89 2677.74 1577.4C2674.38 1562.7 2669.02 1552.3 2661.67 1546.21C2654.32 1539.91 2644.66 1536.76 2632.69 1536.76C2620.93 1536.76 2611.27 1539.91 2603.71 1546.21C2596.36 1552.3 2591.01 1562.7 2587.65 1577.4C2584.29 1591.89 2582.61 1611.63 2582.61 1636.62C2582.61 1661.61 2584.29 1681.45 2587.65 1696.15C2591.01 1710.85 2596.36 1721.35 2603.71 1727.65C2611.27 1733.74 2620.93 1736.79 2632.69 1736.79ZM2758.51 1740.88V1734.27L2767.64 1731.75C2771.63 1730.7 2774.36 1728.7 2775.83 1725.76C2777.51 1722.82 2778.35 1719.25 2778.35 1715.05V1562.59C2776.46 1558.6 2774.78 1555.66 2773.31 1553.77C2772.05 1551.67 2770.69 1549.89 2769.22 1548.42C2767.75 1546.95 2765.75 1545.27 2763.23 1543.38L2757.56 1539.28V1532.67H2811.43L2916.01 1675.68V1558.81C2916.01 1554.61 2915.27 1550.94 2913.8 1547.79C2912.54 1544.64 2909.81 1542.54 2905.61 1541.49L2896.16 1539.28V1532.67H2943.1V1539.28L2935.22 1541.49C2931.23 1542.75 2928.71 1544.95 2927.66 1548.1C2926.82 1551.04 2926.4 1554.61 2926.4 1558.81V1742.14H2908.76L2788.75 1577.08V1714.74C2788.75 1719.15 2789.38 1722.82 2790.64 1725.76C2791.9 1728.7 2794.52 1730.7 2798.51 1731.75L2807.02 1734.27V1740.88H2758.51ZM3041.21 1746.24C3029.66 1746.24 3017.9 1744.77 3005.93 1741.83C2994.17 1739.1 2984.3 1735.42 2976.32 1730.8L2978.21 1687.02H2987.35L2997.11 1708.75C3000.05 1714.84 3003.1 1719.88 3006.25 1723.87C3009.4 1727.86 3013.6 1730.91 3018.85 1733.01C3022.42 1734.48 3025.78 1735.53 3028.93 1736.16C3032.29 1736.58 3035.96 1736.79 3039.95 1736.79C3052.76 1736.79 3062.84 1733.53 3070.19 1727.02C3077.75 1720.3 3081.53 1711.48 3081.53 1700.56C3081.53 1690.69 3078.91 1682.92 3073.66 1677.25C3068.62 1671.58 3060.43 1666.12 3049.09 1660.87L3036.17 1655.2C3018.53 1647.43 3004.57 1638.4 2994.28 1628.11C2984.2 1617.82 2979.16 1604.17 2979.16 1587.16C2979.16 1574.56 2982.31 1563.85 2988.61 1555.03C2995.12 1546 3004.04 1539.07 3015.38 1534.24C3026.72 1529.41 3039.95 1527 3055.07 1527C3066.2 1527 3076.6 1528.47 3086.26 1531.41C3096.13 1534.35 3104.74 1538.34 3112.09 1543.38L3109.88 1582.44H3100.75L3089.09 1558.81C3085.73 1551.88 3082.48 1546.95 3079.33 1544.01C3076.39 1540.86 3072.71 1538.86 3068.3 1538.02C3065.78 1537.6 3063.58 1537.29 3061.69 1537.08C3060.01 1536.87 3057.7 1536.76 3054.76 1536.76C3044.47 1536.76 3035.54 1539.81 3027.98 1545.9C3020.63 1551.78 3016.96 1559.97 3016.96 1570.47C3016.96 1580.55 3019.79 1588.74 3025.46 1595.04C3031.13 1601.34 3039.32 1606.9 3050.03 1611.73L3064.21 1617.72C3084.58 1626.54 3099.17 1635.99 3107.99 1646.07C3116.81 1655.94 3121.22 1668.64 3121.22 1684.18C3121.22 1702.66 3114.19 1717.68 3100.12 1729.23C3086.26 1740.57 3066.62 1746.24 3041.21 1746.24Z" fill="#272727"/>
</svg>
