<svg width="9518" height="3174" viewBox="0 0 9518 3174" fill="none" xmlns="http://www.w3.org/2000/svg">
<path d="M1178.4 3172.67C1155.65 3171.25 1132.89 3169.84 1110.14 3168.39C1095.05 3167.43 1079.92 3166.88 1064.89 3165.31C1035.07 3162.18 1005.17 3159.4 975.554 3154.78C935.524 3148.53 895.237 3142.77 855.936 3133.08C773.264 3112.69 693.201 3085.28 619.52 3039.7C580.553 3015.6 542.855 2990.52 509.546 2958.77C488.031 2938.26 465.269 2918.86 445.662 2896.58C407.351 2853.02 374.02 2805.77 345.29 2754.63C301.272 2676.28 274.841 2591.88 256.808 2504.35C248.53 2464.18 243.744 2423.23 237.72 2382.58C233.225 2352.24 229.184 2321.84 225.12 2291.44C219.592 2250.1 214.64 2208.67 208.711 2167.38C199.618 2104.07 187.104 2041.53 168.529 1980.28C141.728 1891.9 100.875 1810.89 47.8996 1736.23C32.473 1714.48 15.3093 1694.03 0 1670.55C16.9906 1676.92 34.3681 1682.4 50.9005 1689.84C105.233 1714.3 154.365 1746.72 198.948 1787.34C266.354 1848.75 306.521 1926.16 328.777 2013.75C345.772 2080.64 359.238 2148.5 373.356 2216.12C394.501 2317.4 411.478 2419.63 441.182 2518.9C462.77 2591.05 488.894 2661.13 530.179 2724.26C579.976 2800.41 646.033 2858.17 723.369 2903.34C789.317 2941.86 859.653 2968.63 933.508 2985.32C964.398 2992.3 996.083 2996.7 1027.64 2999.19C1081.01 3003.39 1134.55 3006.87 1188.05 3007.31C1225.46 3007.61 1262.89 3002.21 1300.34 2999.59C1369.74 2994.73 1437.96 2982.15 1505.24 2964.71C1571.88 2947.43 1637.28 2926.26 1695.94 2887.87C1770.48 2839.08 1820.35 2771.73 1838.49 2682.57C1848.84 2631.7 1840.77 2581.55 1819.94 2534.2C1790.29 2466.79 1746.93 2409.16 1693.84 2359.77C1639.67 2309.39 1575.2 2277.52 1503.85 2261.85C1468.37 2254.05 1432.08 2249.21 1395.91 2245.83C1357.2 2242.21 1318.07 2239.03 1279.35 2240.83C1232.71 2243.01 1186.32 2250.72 1139.79 2255.82C1126.97 2257.22 1114.07 2258.24 1101.18 2258.61C1097.39 2258.71 1093.53 2255.97 1089.7 2254.54C1091.41 2249.86 1091.79 2242.87 1095.06 2240.88C1112.74 2230.13 1130.41 2218.77 1149.42 2211.05C1197.73 2191.44 1248.56 2182.79 1299.99 2175.57C1363.44 2166.66 1427.1 2163.92 1490.81 2163.65C1540.01 2163.44 1589.33 2166.66 1638.42 2170.67C1680.7 2174.12 1722.71 2181 1764.87 2186.04C1831.11 2193.97 1897.7 2197.91 1964.19 2193.79C2018.54 2190.43 2072.52 2181.12 2121.29 2153.74C2153.01 2135.93 2175.98 2109.18 2180.09 2071.49C2185.53 2021.61 2164.92 1980.99 2113.88 1959.99C2085 1948.12 2054.69 1942.65 2023.67 1941.46C1992.11 1940.24 1960.51 1938.29 1928.96 1938.78C1881.37 1939.51 1833.82 1943.34 1786.24 1943.6C1702.36 1944.06 1624.09 1923.12 1553.84 1874.57C1544.59 1868.18 1534.81 1862.6 1525.63 1856.11C1522.95 1854.21 1521.51 1850.44 1519.51 1847.52C1522.75 1845.79 1526 1842.58 1529.23 1842.61C1537.74 1842.68 1546.51 1843.09 1554.71 1845.25C1604.08 1858.24 1653.98 1861.31 1704.6 1855.87C1742.63 1851.78 1780.83 1849.17 1818.82 1844.72C1845.57 1841.59 1872.05 1836.08 1898.74 1832.4C1914.59 1830.21 1930.71 1830.11 1946.56 1827.95C1964.75 1825.47 1982.71 1821.26 2000.89 1818.74C2014.09 1816.91 2027.48 1816 2040.81 1815.76C2066.62 1815.31 2092.47 1816.44 2118.26 1815.46C2179.89 1813.12 2239.53 1822.7 2296.28 1847.33C2356.74 1873.58 2401.99 1916.44 2426.7 1979.97C2448.11 2035.02 2440.08 2086.71 2407.5 2134.33C2368.98 2190.62 2316.37 2229.8 2253.9 2252.47C2198.09 2272.71 2140.14 2286.69 2083.38 2304.25C2050.74 2314.35 2017.68 2323.95 1986.46 2337.69C1955.88 2351.14 1951.23 2377.75 1971.57 2404.58C1977.34 2412.2 1984.73 2418.72 1992.06 2424.89C2021.99 2450.11 2053.93 2473.13 2081.84 2500.48C2118.38 2536.3 2137.04 2582.14 2141.87 2634C2150.94 2731.6 2122.1 2817.71 2063.93 2893.34C2037.21 2928.07 2004.11 2957.17 1965.09 2978.28C1923.9 3000.56 1884.32 3026.24 1842.19 3046.36C1752.75 3089.07 1659.2 3120.03 1562.08 3138.66C1515.06 3147.68 1467.82 3155.66 1420.46 3162.52C1395.38 3166.15 1369.83 3166.33 1344.5 3168.12C1320.88 3169.79 1297.26 3171.52 1271.65 3172.37C1239.25 3171.89 1208.83 3172.28 1178.4 3172.67Z" fill="#8F6F24"/>
<path d="M1407.1 1018.5C1394.35 1012.07 1381.7 1007.09 1371.07 999.23C1357.41 989.122 1358.97 975.539 1374.83 970.364C1392.16 964.706 1410.53 960.898 1428.66 959.65C1447.45 958.355 1466.48 961.369 1485.43 961.993C1498.61 962.428 1511.83 961.532 1525.01 962.065C1562.06 963.571 1599.09 965.776 1636.15 967.002C1642.17 967.201 1648.68 964.59 1654.22 961.754C1656.66 960.502 1659.14 954.877 1658.36 952.222C1654.18 937.791 1658.94 926.055 1670 918.601C1683.43 909.552 1697.88 901.265 1713 895.955C1726.82 891.099 1738.26 897.276 1745.54 914.975C1757.59 944.269 1768.98 974.241 1776.46 1005C1784.48 1038.01 1789.04 1072.11 1792.52 1106.01C1795.41 1134.14 1794.73 1162.67 1795.31 1191.03C1798.38 1341.65 1748.38 1473.53 1664.86 1595.66C1592.21 1701.89 1503.09 1792.16 1413.65 1882.41C1377.61 1918.77 1339.28 1952.82 1301.28 1987.08C1259.8 2024.46 1217.26 2060.61 1175.61 2097.8C1136.17 2133.01 1096.45 2167.96 1058.36 2204.66C1002.16 2258.8 945.854 2312.96 892.252 2369.74C833.054 2432.44 779.365 2500.06 743.912 2580.53C728.008 2616.63 718.466 2654.46 714.291 2694.27C708.873 2745.95 721.411 2794.26 734.261 2842.93C737.536 2855.34 740.557 2867.83 742.595 2880.67C701.499 2833.96 674.029 2779.97 657.153 2719.99C644.343 2674.46 640.785 2627.75 644.401 2581.08C649.849 2510.85 675.03 2447.26 714.658 2389.81C754.691 2331.77 800.858 2279.16 851.721 2230.94C887.548 2196.97 923.349 2162.91 960.445 2130.43C1007.99 2088.82 1057.22 2049.23 1104.98 2007.87C1147.54 1971.02 1190.15 1934.12 1230.78 1895.1C1274.72 1852.9 1318.01 1809.74 1358.64 1764.25C1409.85 1706.92 1458.47 1647.19 1500.93 1582.42C1543.99 1516.72 1580.57 1447.99 1603 1371.88C1613.03 1337.82 1618.44 1302.82 1614.84 1267.68C1612.28 1242.77 1604.81 1218.15 1597.48 1194.06C1591.69 1175.03 1573.98 1173.13 1557.98 1173.26C1492.03 1173.76 1428.68 1159.88 1366.76 1138.16C1355.18 1134.1 1344.11 1127.6 1333.89 1120.58C1324.12 1113.86 1324.05 1104.82 1335.1 1099.43C1347.89 1093.19 1362.48 1089.39 1376.64 1087.76C1403.99 1084.63 1431.58 1083.79 1459.07 1081.99C1459.51 1081.96 1460.03 1082.1 1460.36 1081.9C1467.68 1077.19 1478.63 1074.06 1481.44 1067.35C1485.98 1056.55 1474.55 1049.58 1466.79 1045.49C1447.78 1035.45 1427.73 1027.47 1407.1 1018.5Z" fill="#8F6F24"/>
<path d="M879.482 41.9092C893.391 70.8568 883.617 96.0706 869.04 119.409C852.853 145.329 833.279 169.069 817.676 195.316C808.562 210.647 802.218 228.549 798.432 246.154C793.427 269.402 806.694 286.317 824.68 298.191C861.21 322.31 900.888 325.773 941.868 312.688C949.47 310.258 955.803 303.664 965.718 296.973C955.262 289.132 948.19 282.857 940.254 278.095C927.64 270.526 914.289 264.251 901.526 256.922C874.335 241.297 872.598 210.915 889.3 186.761C908.022 159.689 935.387 145.881 965.461 138.254C1015.1 125.667 1062.31 132.816 1103.34 165.303C1136.76 191.77 1155.05 226.761 1152.48 271.668C1148.68 338.072 1109.61 376.277 1053.59 398.72C992.452 423.219 928.34 427.129 863.222 421.511C831.494 418.773 800.405 413.935 770.708 402.282C728.375 385.667 694.953 359.59 682.284 311.999C670.877 269.14 682.523 231.871 708.543 198.644C723.917 179.013 741.569 161.265 757.792 142.307C764.858 134.054 772.311 125.591 776.921 115.893C780.025 109.359 781.715 96.9124 778.19 93.5575C773.475 89.0748 762.058 87.9566 755.362 90.4943C739.408 96.5421 724.773 106.135 709.148 113.246C695.947 119.255 682.328 124.578 668.469 128.718C657.937 131.865 645.453 129.445 641.347 119.357C638.21 111.65 640.074 98.8135 644.601 91.3789C659.649 66.6576 684.424 52.7487 708.387 38.9359C730.707 26.0708 753.32 12.6838 777.396 4.31519C814.589 -8.61521 861.177 8.55534 879.482 41.9092Z" fill="#8F6F24"/>
<path d="M1617.69 676.54C1626.41 678.067 1634.11 678.977 1641.42 681.229C1680.91 693.394 1690.72 732.97 1662.75 763.809C1642.4 786.255 1617.74 802.141 1591.28 815.136C1525.43 847.487 1455.89 868.976 1384.78 884.898C1346.08 893.563 1306.96 900.918 1267.68 906.003C1231.02 910.746 1193.93 912.212 1156.98 914.174C1125.86 915.824 1094.6 917.949 1063.54 916.604C1007.84 914.192 951.715 913.336 897.826 895.615C881.875 890.371 865.939 884.423 856.005 869.023C849.143 858.389 850.463 848.695 862.047 844.274C879.449 837.629 897.569 832.001 915.859 828.976C941.251 824.772 967.067 823.195 992.731 820.852C1007.35 819.517 1022.04 818.944 1036.7 817.939C1074.45 815.353 1112.26 813.348 1149.95 809.989C1279.59 798.441 1402.93 763.675 1519.64 704.329C1550.04 688.871 1581.53 676.018 1617.69 676.54Z" fill="#8F6F24"/>
<path d="M1177.93 609.903C1264.65 589.832 1344.9 554.735 1424.78 518.445C1451.23 506.433 1478.99 499.306 1508.5 500.42C1532.18 501.315 1550.86 514.484 1558.59 536.985C1567.08 561.717 1553.39 578.97 1538.72 594.217C1516.82 616.997 1489.68 632.542 1461.07 645.181C1385.39 678.61 1306.57 701.607 1225.65 716.572C1189.48 723.26 1152.7 727.22 1116.01 729.933C1072.05 733.186 1027.91 734.673 983.828 735.261C946.032 735.765 908.04 735.91 870.444 732.552C834.9 729.375 798.831 725.617 765.855 709.133C754.111 703.265 740.031 696.737 740.971 681.881C741.867 667.733 756.45 661.712 768.281 659.021C791.577 653.73 815.369 650.422 839.1 647.524C866.403 644.191 893.855 642.106 921.26 639.65C933.744 638.533 946.264 637.804 958.773 636.941C985.855 635.073 1013.12 634.623 1039.99 631.069C1085.73 625.023 1131.22 617.033 1177.93 609.903Z" fill="#8F6F24"/>
<path d="M837.054 567.099C811.238 565.583 785.277 565.318 759.635 562.25C724.864 558.094 690.038 553.208 655.873 545.632C644.056 543.01 632.305 533.119 623.797 523.512C612.492 510.749 616.521 499.981 632.784 495.393C648.771 490.881 665.071 486.768 681.497 484.814C718.607 480.396 755.852 477.092 793.093 473.966C820.153 471.692 847.329 470.887 874.382 468.576C899.136 466.462 923.947 464.206 948.454 460.209C985.967 454.094 1023.33 446.888 1060.59 439.326C1133.99 424.434 1203.8 398.618 1271.32 365.864C1309.86 347.164 1349.15 330.506 1393.05 332.61C1410.96 333.466 1428.02 337.698 1439.81 353.62C1450.26 367.714 1447.94 389.711 1435.4 407.286C1419.94 428.931 1398.57 442.992 1376.43 455.4C1307.96 493.765 1234.23 517.956 1158.48 535.408C1116.08 545.175 1073.1 552.694 1030.08 559.066C1002.93 563.088 975.206 563.07 947.743 564.988C940.054 565.529 932.398 566.519 922.794 566.472C903.125 565.373 885.383 564.785 867.651 564.945C857.445 565.039 847.253 566.341 837.054 567.099Z" fill="#8F6F24"/>
<path d="M835.092 1209.4C862.504 1229.26 889.249 1248.44 915.936 1267.71C955.966 1296.61 996.681 1324.58 1035.71 1354.85C1062.59 1375.7 1079.27 1405.66 1094.9 1435.86C1098.82 1443.43 1099.81 1455.13 1112.7 1452.48C1123.43 1450.27 1128.91 1440.83 1128.22 1425.64C1126.86 1395.47 1114.89 1369.89 1096.16 1346.92C1053.8 1294.97 999.42 1259.85 941.545 1229.38C909.933 1212.74 878.434 1195.87 847.155 1178.59C839.68 1174.46 832.513 1169.02 826.718 1162.73C823.45 1159.18 823.261 1152.66 821.687 1147.48C826.413 1146.64 832.002 1143.69 835.723 1145.29C858.903 1155.3 882.866 1164.27 904.319 1177.44C948.168 1204.35 991.64 1232.19 1033.29 1262.49C1070.94 1289.87 1105.73 1321.46 1131.54 1361.46C1149.96 1390.02 1153.25 1422.1 1147.65 1455.3C1145.2 1469.9 1142.77 1484.59 1138.96 1498.86C1131.56 1526.58 1109.32 1540.46 1082.35 1532.43C1010.61 1511.06 944.323 1478.94 890.337 1424.31C857.789 1391.37 840.562 1349.98 828.919 1305.65C818.372 1265.5 802.617 1227.95 779.927 1193.16C763.301 1167.67 752.069 1139.5 753.28 1107.79C753.458 1103.13 754.673 1098.52 758.746 1092.37C762.253 1096.73 766.573 1100.64 769.13 1105.52C781.106 1128.4 791.482 1152.25 804.695 1174.33C812.392 1187.19 824.353 1197.37 835.092 1209.4Z" fill="#8F6F24"/>
<path d="M1241.98 1526.35C1230.81 1548.46 1220.44 1569.87 1209.26 1590.82C1207.22 1594.64 1201.83 1596.6 1198 1599.42C1196.51 1595.23 1193.42 1590.88 1193.79 1586.87C1196.2 1561.15 1197.97 1535.24 1202.53 1509.88C1219.39 1416.01 1206.81 1329.99 1144.56 1254.7C1096.37 1196.39 1035.55 1156.24 969.878 1123.05C932.627 1104.22 893.637 1089.03 855.704 1071.59C841.806 1065.2 828.694 1057.02 815.22 1049.65C815.529 1047.7 815.837 1045.74 816.145 1043.78C822.13 1043.55 828.553 1041.73 834.033 1043.32C880.008 1056.68 926.236 1069.35 971.565 1084.77C1041.68 1108.63 1107.78 1141.43 1166.68 1187.63C1213.93 1224.68 1253.13 1268.5 1269.81 1329.21C1286.2 1388.88 1275.28 1445.72 1252.9 1501.36C1249.62 1509.49 1245.98 1517.45 1241.98 1526.35Z" fill="#8F6F24"/>
<path d="M734.243 1832.7C733.093 1831.95 732.549 1831.92 732.302 1831.63C727.852 1826.27 723.434 1820.88 719.01 1815.49C725.523 1812.84 731.823 1808.97 738.584 1807.71C785.179 1799.05 832.132 1792.01 876.239 1773.03C888.726 1767.66 899.828 1768.8 908.504 1780.53C935.999 1817.71 963.839 1854.63 990.667 1892.31C997.109 1901.36 1001.14 1912.61 1004.56 1923.42C1012.88 1949.72 994.657 1969.11 967.84 1964.81C895.752 1953.25 834.272 1919.87 779.778 1871.35C765.144 1858.32 749.932 1845.96 734.243 1832.7Z" fill="#8F6F24"/>
<path d="M889.691 1683.08C881.371 1693.99 877.396 1705.21 878.658 1718.25C880.845 1740.89 870.61 1755.72 851.228 1765.81C825.503 1779.21 798.189 1785.3 769.696 1786.43C753.502 1787.07 737.184 1787.55 721.077 1786.16C713.374 1785.5 703.654 1782.46 698.953 1776.87C680.685 1755.16 655.47 1752.06 630.8 1746.55C619.267 1743.97 607.929 1740.44 596.773 1735.3C609.369 1721.33 625.16 1721.04 640.049 1719.67C712.634 1712.95 784.399 1702.46 852.233 1673.33C861.199 1669.48 869.062 1662.94 877.414 1657.61C883.207 1653.92 889.496 1644.75 895.64 1653.54C898.878 1658.18 896.176 1667.55 895.248 1674.66C894.896 1677.38 891.998 1679.74 889.691 1683.08Z" fill="#8F6F24"/>
<path d="M1179.59 3172.81C1208.82 3172.29 1239.25 3171.9 1270.53 3172.1C1241.18 3172.77 1210.98 3172.86 1179.59 3172.81Z" fill="#8F6F24"/>
<path d="M838.255 567.256C847.253 566.342 857.444 565.04 867.651 564.949C885.386 564.786 903.125 565.373 921.684 566.324C894.82 567.136 867.135 567.274 838.255 567.256Z" fill="#8F6F24"/>
<path d="M3062.08 3073.09C3097.56 3073.09 3128.1 3067.28 3153.7 3055.64C3179.29 3043.43 3206.05 3024.23 3233.98 2998.05L3300.29 3066.11C3235.72 3137.66 3157.19 3173.44 3064.7 3173.44C2972.79 3173.44 2896.29 3143.77 2835.21 3084.44C2774.72 3025.1 2744.47 2950.06 2744.47 2859.32C2744.47 2768.57 2775.3 2692.95 2836.96 2632.46C2899.2 2571.96 2977.44 2541.71 3071.68 2541.71C3166.5 2541.71 3245.61 2576.61 3309 2646.42L3243.57 2717.97C3214.49 2690.05 3186.86 2670.56 3160.68 2659.51C3135.09 2648.45 3104.84 2642.93 3069.93 2642.93C3008.27 2642.93 2956.5 2663 2914.62 2703.13C2872.73 2742.69 2851.79 2793.59 2851.79 2855.83C2851.79 2917.49 2872.44 2969.26 2913.75 3011.14C2955.63 3052.44 3005.07 3073.09 3062.08 3073.09ZM4096.35 2754.61C4096.35 2855.25 4052.43 2918.65 3964.59 2944.83L4124.27 3166.46H3993.38L3847.67 2961.41H3712.42V3166.46H3609.46V2556.55H3836.32C3929.4 2556.55 3996 2572.25 4036.14 2603.66C4076.28 2635.07 4096.35 2685.39 4096.35 2754.61ZM3840.69 2868.05C3898.86 2868.05 3938.41 2859.03 3959.35 2841C3980.3 2822.96 3990.77 2794.17 3990.77 2754.61C3990.77 2714.48 3980 2687.14 3958.48 2672.59C3936.96 2657.47 3898.57 2649.91 3843.3 2649.91H3712.42V2868.05H3840.69ZM4855.94 2556.55V2653.4H4530.47V2814.82H4822.78V2906.44H4530.47V3069.6H4866.41V3166.46H4427.51V2556.55H4855.94ZM5268.05 3027.72L5206.97 3166.46H5097.03L5365.78 2556.55H5475.72L5744.47 3166.46H5634.53L5573.45 3027.72H5268.05ZM5531.57 2932.61L5420.75 2681.32L5309.93 2932.61H5531.57ZM6242.88 2650.78V3166.46H6139.92V2650.78H5954.93V2556.55H6427.86V2650.78H6242.88ZM6722.35 2556.55H6825.31V3166.46H6722.35V2556.55ZM7611.96 2700.52C7570.66 2657.47 7519.76 2635.95 7459.26 2635.95C7398.76 2635.95 7347.57 2657.47 7305.69 2700.52C7264.39 2743.56 7243.74 2795.91 7243.74 2857.57C7243.74 2918.65 7264.39 2970.72 7305.69 3013.76C7347.57 3056.81 7398.76 3078.33 7459.26 3078.33C7519.76 3078.33 7570.66 3056.81 7611.96 3013.76C7653.84 2970.72 7674.78 2918.65 7674.78 2857.57C7674.78 2795.91 7653.84 2743.56 7611.96 2700.52ZM7687.87 3082.69C7626.21 3142.61 7550.01 3172.56 7459.26 3172.56C7368.51 3172.56 7292.31 3142.61 7230.65 3082.69C7168.99 3022.2 7138.16 2947.16 7138.16 2857.57C7138.16 2767.41 7168.99 2692.37 7230.65 2632.46C7292.31 2571.96 7368.51 2541.71 7459.26 2541.71C7550.01 2541.71 7626.21 2571.96 7687.87 2632.46C7749.53 2692.37 7780.36 2767.41 7780.36 2857.57C7780.36 2947.16 7749.53 3022.2 7687.87 3082.69ZM8550.69 2556.55H8653.65V3166.46H8541.96L8196.43 2721.46V3166.46H8093.47V2556.55H8196.43L8550.69 3012.02V2556.55ZM9190.25 2636.82C9160.58 2636.82 9136.15 2642.93 9116.95 2655.14C9097.76 2667.36 9088.16 2685.97 9088.16 2710.99C9088.16 2735.42 9097.76 2754.32 9116.95 2767.7C9136.15 2780.5 9176.87 2794.46 9239.11 2809.58C9301.94 2824.71 9349.05 2845.94 9380.47 2873.28C9412.46 2900.62 9428.46 2941.05 9428.46 2994.56C9428.46 3047.5 9408.39 3090.55 9368.25 3123.7C9328.11 3156.86 9275.47 3173.44 9210.32 3173.44C9114.92 3173.44 9030.28 3140.57 8956.4 3074.84L9020.97 2997.18C9082.63 3050.7 9146.62 3077.46 9212.93 3077.46C9246.09 3077.46 9272.27 3070.48 9291.47 3056.52C9311.24 3041.97 9321.13 3023.07 9321.13 2999.8C9321.13 2975.95 9311.83 2957.63 9293.21 2944.83C9275.18 2931.45 9243.76 2919.53 9198.97 2909.06C9154.18 2898 9120.15 2888.11 9096.88 2879.39C9073.62 2870.08 9052.96 2858.16 9034.93 2843.61C8998.87 2816.27 8980.83 2774.39 8980.83 2717.97C8980.83 2661.54 9001.19 2618.21 9041.91 2587.96C9083.21 2557.13 9134.11 2541.71 9194.61 2541.71C9233.58 2541.71 9272.27 2548.11 9310.66 2560.91C9349.05 2573.71 9382.21 2591.74 9410.13 2615.01L9355.16 2692.66C9337.13 2676.38 9312.7 2663 9281.87 2652.53C9251.04 2642.05 9220.5 2636.82 9190.25 2636.82Z" fill="#121859"/>
<mask id="mask0_57_102" style="mask-type:luminance" maskUnits="userSpaceOnUse" x="2653" y="688" width="6865" height="1441">
<path d="M9517.17 688.418H2653.02V2128.12H9517.17V688.418Z" fill="white"/>
</mask>
<g mask="url(#mask0_57_102)">
<path d="M3797.52 793.627V830.543C3764.57 831.773 3739.35 836.695 3721.9 845.309C3705.41 852.692 3694.27 867.458 3688.45 889.608C3682.64 910.526 3679.73 943.75 3679.73 989.279V1904.79C3679.73 1949.08 3682.64 1982.31 3688.45 2004.46C3694.27 2026.61 3705.41 2041.37 3721.9 2048.76C3739.35 2056.14 3764.57 2061.06 3797.52 2063.52V2100.44C3775.21 2097.97 3747.12 2096.75 3713.18 2096.75C3680.22 2095.52 3646.77 2094.9 3612.83 2094.9C3575.02 2094.9 3539.62 2095.52 3506.67 2096.75C3473.72 2096.75 3447.04 2097.97 3426.68 2100.44V2063.52C3459.64 2061.06 3484.36 2056.14 3500.85 2048.76C3518.3 2041.37 3529.94 2026.61 3535.75 2004.46C3541.57 1982.31 3544.48 1949.08 3544.48 1904.79V889.608L3550.3 895.145L3194.01 2109.67H3170.74L2804.26 911.757V1886.33C2804.26 1930.63 2807.17 1965.7 2812.99 1991.54C2819.77 2016.15 2832.38 2033.99 2850.8 2045.06C2870.19 2054.91 2898.79 2061.06 2936.6 2063.52V2100.44C2919.15 2097.97 2896.36 2096.75 2868.25 2096.75C2840.13 2095.52 2813.47 2094.9 2788.27 2094.9C2764.03 2094.9 2739.3 2095.52 2714.1 2096.75C2689.86 2096.75 2669.5 2097.97 2653.02 2100.44V2063.52C2685.98 2061.06 2710.7 2054.91 2727.19 2045.06C2744.64 2033.99 2756.27 2016.15 2762.09 1991.54C2767.91 1965.7 2770.81 1930.63 2770.81 1886.33V989.279C2770.81 943.75 2767.91 910.526 2762.09 889.608C2756.27 867.458 2744.64 852.692 2727.19 845.309C2710.7 836.695 2685.98 831.773 2653.02 830.543V793.627C2669.5 794.858 2689.86 796.088 2714.1 797.319C2739.3 798.549 2764.03 799.165 2788.27 799.165C2809.59 799.165 2831.41 798.549 2853.71 797.319C2876.98 796.088 2896.36 794.858 2911.88 793.627L3242 1897.4L3217.27 1912.17L3544.48 799.165C3556.11 799.165 3567.25 799.165 3577.93 799.165C3589.56 799.165 3601.2 799.165 3612.83 799.165C3646.77 799.165 3680.22 798.549 3713.18 797.319C3747.12 796.088 3775.21 794.858 3797.52 793.627ZM4042.16 2113.36C4002.4 2113.36 3967.99 2104.13 3938.91 2085.67C3909.82 2065.98 3887.51 2038.91 3872.01 2004.46C3857.47 1970 3850.2 1930.01 3850.2 1884.48C3850.2 1830.34 3859.88 1786.04 3879.28 1751.58C3899.64 1717.13 3925.32 1689.45 3956.36 1668.53C3987.36 1647.61 4019.85 1630.38 4053.79 1616.85C4088.7 1602.08 4121.65 1588.54 4152.68 1576.24C4183.69 1562.7 4208.91 1547.32 4228.31 1530.09C4248.67 1512.86 4258.85 1490.1 4258.85 1461.8V1347.36C4258.85 1295.68 4252.53 1256.3 4239.94 1229.23C4228.31 1202.16 4212.31 1184.32 4191.95 1175.7C4171.59 1165.86 4148.79 1160.94 4123.6 1160.94C4099.34 1160.94 4073.17 1165.25 4045.07 1173.86C4017.9 1182.47 3996.09 1200.31 3979.63 1227.39C3998.04 1232.31 4014.03 1244.61 4027.62 1264.3C4041.17 1283.99 4047.98 1309.22 4047.98 1339.98C4047.98 1370.74 4040.21 1395.35 4024.71 1413.81C4009.18 1431.04 3989.31 1439.65 3965.08 1439.65C3936.96 1439.65 3916.1 1428.58 3902.55 1406.42C3889.93 1383.05 3883.64 1357.21 3883.64 1328.9C3883.64 1296.91 3889.93 1271.07 3902.55 1251.38C3915.14 1231.69 3931.14 1213.24 3950.54 1196.01C3972.82 1176.32 4001.44 1159.71 4036.34 1146.17C4072.21 1131.41 4112.43 1124.02 4157.05 1124.02C4196.78 1124.02 4230.72 1130.18 4258.85 1142.48C4286.94 1153.55 4310.21 1170.17 4328.65 1192.32C4353.84 1221.85 4370.33 1258.15 4378.1 1301.21C4385.83 1343.05 4389.73 1393.5 4389.73 1452.57V1965.7C4389.73 1996.46 4393.1 2018.61 4399.91 2032.14C4407.65 2045.68 4419.28 2052.45 4434.81 2052.45C4445.46 2052.45 4455.64 2049.37 4465.35 2043.22C4475.04 2037.06 4486.67 2027.22 4500.26 2013.69L4516.25 2045.06C4495.89 2064.75 4476.49 2081.36 4458.08 2094.9C4439.64 2107.2 4414.92 2113.36 4383.91 2113.36C4355.79 2113.36 4332.52 2107.2 4314.11 2094.9C4295.67 2082.6 4281.62 2064.75 4271.93 2041.37C4263.21 2016.76 4258.85 1986 4258.85 1949.08C4232.67 2004.46 4201.14 2045.68 4164.32 2072.75C4128.43 2099.82 4087.71 2113.36 4042.16 2113.36ZM4094.51 2039.53C4126.51 2039.53 4156.06 2027.84 4183.22 2004.46C4211.32 1981.08 4236.54 1946.01 4258.85 1899.25V1537.48C4247.21 1558.4 4230.23 1576.24 4207.95 1591C4185.64 1604.54 4161.41 1618.69 4135.23 1633.46C4109.06 1646.99 4083.84 1663.61 4059.61 1683.29C4036.34 1701.75 4016.94 1726.36 4001.44 1757.12C3985.91 1787.89 3978.17 1827.88 3978.17 1877.1C3978.17 1926.32 3988.35 1965.7 4008.71 1995.23C4030.03 2024.76 4058.62 2039.53 4094.51 2039.53ZM4708.27 2113.36C4668.51 2113.36 4634.11 2104.13 4605.02 2085.67C4575.94 2065.98 4553.63 2038.91 4538.12 2004.46C4523.58 1970 4516.31 1930.01 4516.31 1884.48C4516.31 1830.34 4526 1786.04 4545.4 1751.58C4565.76 1717.13 4591.44 1689.45 4622.47 1668.53C4653.51 1647.61 4685.97 1630.38 4719.91 1616.85C4754.81 1602.08 4787.76 1588.54 4818.8 1576.24C4849.83 1562.7 4875.02 1547.32 4894.42 1530.09C4914.78 1512.86 4924.96 1490.1 4924.96 1461.8V1347.36C4924.96 1295.68 4918.65 1256.3 4906.05 1229.23C4894.42 1202.16 4878.42 1184.32 4858.06 1175.7C4837.7 1165.86 4814.93 1160.94 4789.71 1160.94C4765.49 1160.94 4739.31 1165.25 4711.18 1173.86C4684.05 1182.47 4662.23 1200.31 4645.74 1227.39C4664.15 1232.31 4680.15 1244.61 4693.73 1264.3C4707.31 1283.99 4714.09 1309.22 4714.09 1339.98C4714.09 1370.74 4706.33 1395.35 4690.82 1413.81C4675.32 1431.04 4655.43 1439.65 4631.2 1439.65C4603.07 1439.65 4582.25 1428.58 4568.66 1406.42C4556.07 1383.05 4549.76 1357.21 4549.76 1328.9C4549.76 1296.91 4556.07 1271.07 4568.66 1251.38C4581.26 1231.69 4597.26 1213.24 4616.66 1196.01C4638.96 1176.32 4667.55 1159.71 4702.46 1146.17C4738.32 1131.41 4778.57 1124.02 4823.16 1124.02C4862.92 1124.02 4896.83 1130.18 4924.96 1142.48C4953.09 1153.55 4976.35 1170.17 4994.77 1192.32C5019.98 1221.85 5036.44 1258.15 5044.21 1301.21C5051.98 1343.05 5055.84 1393.5 5055.84 1452.57V1965.7C5055.84 1996.46 5059.25 2018.61 5066.02 2032.14C5073.79 2045.68 5085.42 2052.45 5100.93 2052.45C5111.6 2052.45 5121.78 2049.37 5131.47 2043.22C5141.15 2037.06 5152.79 2027.22 5166.37 2013.69L5182.37 2045.06C5162.01 2064.75 5142.61 2081.36 5124.2 2094.9C5105.78 2107.2 5081.06 2113.36 5050.03 2113.36C5021.9 2113.36 4998.63 2107.2 4980.22 2094.9C4961.81 2082.6 4947.73 2064.75 4938.05 2041.37C4929.32 2016.76 4924.96 1986 4924.96 1949.08C4898.78 2004.46 4867.28 2045.68 4830.43 2072.75C4794.57 2099.82 4753.85 2113.36 4708.27 2113.36ZM4760.63 2039.53C4792.62 2039.53 4822.2 2027.84 4849.34 2004.46C4877.46 1981.08 4902.65 1946.01 4924.96 1899.25V1537.48C4913.33 1558.4 4896.37 1576.24 4874.06 1591C4851.75 1604.54 4827.52 1618.69 4801.35 1633.46C4775.17 1646.99 4749.95 1663.61 4725.73 1683.29C4702.46 1701.75 4683.06 1726.36 4667.55 1757.12C4652.05 1787.89 4644.29 1827.88 4644.29 1877.1C4644.29 1926.32 4654.47 1965.7 4674.83 1995.23C4696.15 2024.76 4724.77 2039.53 4760.63 2039.53ZM6199.4 793.627C6195.53 840.387 6192.62 885.916 6190.67 930.215C6189.71 973.283 6189.22 1006.51 6189.22 1029.89C6189.22 1059.42 6189.71 1087.11 6190.67 1112.95C6191.66 1138.79 6192.62 1161.55 6193.58 1181.24H6160.13C6153.35 1095.1 6144.13 1027.43 6132.5 978.205C6120.87 927.754 6100.51 891.453 6071.42 869.304C6042.33 847.155 5997.25 836.08 5936.17 836.08H5844.55C5811.6 836.08 5786.38 839.772 5768.93 847.155C5752.47 853.308 5741.3 867.458 5735.48 889.608C5729.67 910.526 5726.76 943.75 5726.76 989.279V1904.79C5726.76 1949.08 5730.16 1982.31 5736.94 2004.46C5744.7 2026.61 5759.25 2041.37 5780.57 2048.76C5801.91 2056.14 5832.92 2061.06 5873.64 2063.52V2100.44C5848.45 2097.97 5816.46 2096.75 5777.66 2096.75C5738.89 2095.52 5699.62 2094.9 5659.86 2094.9C5622.05 2094.9 5586.68 2095.52 5553.73 2096.75C5520.75 2096.75 5494.1 2097.97 5473.74 2100.44V2063.52C5506.7 2061.06 5531.42 2056.14 5547.91 2048.76C5565.33 2041.37 5576.97 2026.61 5582.79 2004.46C5588.6 1982.31 5591.51 1949.08 5591.51 1904.79V989.279C5591.51 943.75 5588.6 910.526 5582.79 889.608C5576.97 867.458 5565.33 852.692 5547.91 845.309C5531.42 836.695 5506.7 831.773 5473.74 830.543V793.627C5509.61 794.858 5547.42 796.088 5587.15 797.319C5626.91 797.319 5666.17 797.934 5704.94 799.165C5743.74 799.165 5779.61 799.165 5812.56 799.165C5846.5 799.165 5874.13 799.165 5895.45 799.165C5940.07 799.165 5990.48 799.165 6046.7 799.165C6103.91 797.934 6154.81 796.088 6199.4 793.627ZM5973.98 1443.34C5973.98 1443.34 5973.98 1449.5 5973.98 1461.8C5973.98 1474.1 5973.98 1480.26 5973.98 1480.26H5683.13C5683.13 1480.26 5683.13 1474.1 5683.13 1461.8C5683.13 1449.5 5683.13 1443.34 5683.13 1443.34H5973.98ZM6001.62 1199.7C5997.75 1269.84 5995.8 1323.37 5995.8 1360.28C5996.79 1397.2 5997.25 1431.04 5997.25 1461.8C5997.25 1492.56 5997.75 1526.4 5998.71 1563.32C5999.7 1600.23 6002.11 1653.76 6005.98 1723.9H5972.53C5968.66 1684.52 5963.8 1646.38 5957.99 1609.46C5953.16 1571.32 5941.52 1540.55 5923.08 1517.17C5905.63 1492.56 5875.59 1480.26 5832.92 1480.26V1443.34C5864.91 1443.34 5889.17 1435.34 5905.63 1419.35C5923.08 1402.12 5935.71 1380.58 5943.44 1354.74C5951.21 1328.9 5956.53 1302.45 5959.44 1275.38C5962.35 1247.07 5965.26 1221.85 5968.17 1199.7H6001.62ZM6884.85 1129.56V1901.09C6884.85 1956.47 6892.62 1997.69 6908.12 2024.76C6924.61 2050.6 6953.7 2063.52 6995.38 2063.52V2102.28C6965.33 2098.59 6935.29 2096.75 6905.21 2096.75C6877.11 2096.75 6849.95 2098.59 6823.77 2102.28C6798.58 2105.98 6775.32 2112.74 6753.97 2122.59V1904.79C6729.74 1984.77 6695.33 2041.99 6650.71 2076.44C6607.09 2109.67 6562 2126.28 6515.47 2126.28C6481.55 2126.28 6451.97 2120.13 6426.76 2107.82C6401.57 2095.52 6380.71 2078.29 6364.22 2056.14C6345.81 2031.53 6333.22 1999.54 6326.41 1960.16C6319.63 1920.78 6316.23 1872.18 6316.23 1814.34V1351.05C6316.23 1295.68 6308.5 1255.07 6292.96 1229.23C6277.46 1202.16 6248.38 1188.62 6205.71 1188.62V1149.86C6236.74 1153.55 6266.79 1155.4 6295.87 1155.4C6324 1155.4 6350.67 1153.55 6375.86 1149.86C6402.03 1144.94 6425.8 1138.17 6447.12 1129.56V1854.95C6447.12 1893.09 6449.06 1928.16 6452.93 1960.16C6456.83 1992.15 6466.52 2017.99 6482.02 2037.68C6497.55 2057.37 6522.74 2067.21 6557.64 2067.21C6595.45 2067.21 6628.9 2052.45 6657.99 2022.91C6688.06 1993.38 6711.33 1953.39 6727.79 1902.94C6745.24 1852.49 6753.97 1795.88 6753.97 1733.13V1351.05C6753.97 1295.68 6746.23 1255.07 6730.7 1229.23C6715.2 1202.16 6686.11 1188.62 6643.44 1188.62V1149.86C6674.48 1153.55 6704.52 1155.4 6733.61 1155.4C6761.73 1155.4 6788.4 1153.55 6813.59 1149.86C6839.77 1144.94 6863.53 1138.17 6884.85 1129.56ZM7271.77 1124.02C7310.55 1124.02 7343.53 1132.02 7370.67 1148.02C7397.8 1164.01 7417.7 1178.78 7430.29 1192.32C7462.28 1225.54 7481.68 1203.39 7488.46 1125.87H7521.91C7519.96 1160.32 7518.51 1201.54 7517.55 1249.53C7516.59 1296.29 7516.09 1359.66 7516.09 1439.65H7482.64C7476.83 1394.12 7466.65 1349.82 7452.1 1306.75C7438.52 1263.68 7418.16 1228.61 7391.02 1201.54C7363.89 1173.24 7328.49 1159.09 7284.86 1159.09C7250.92 1159.09 7222.33 1171.39 7199.06 1196.01C7176.75 1219.38 7165.61 1254.46 7165.61 1301.21C7165.61 1338.13 7174.34 1370.13 7191.79 1397.2C7209.24 1423.04 7232.01 1447.65 7260.14 1471.03C7288.27 1493.18 7318.81 1517.79 7351.76 1544.86C7388.61 1574.39 7422.06 1604.54 7452.1 1635.3C7482.15 1666.06 7505.91 1699.9 7523.36 1736.82C7541.77 1773.74 7550.99 1817.42 7550.99 1867.87C7550.99 1924.47 7539.36 1971.85 7516.09 2010C7492.82 2048.14 7462.28 2077.06 7424.47 2096.75C7387.62 2116.43 7346.9 2126.28 7302.31 2126.28C7280.99 2126.28 7260.63 2123.82 7241.24 2118.9C7222.82 2115.2 7204.88 2109.05 7187.43 2100.44C7177.74 2094.28 7167.56 2086.9 7156.89 2078.29C7147.2 2069.67 7137.49 2060.45 7127.8 2050.6C7118.12 2040.76 7109.39 2041.37 7101.63 2052.45C7093.86 2062.29 7088.04 2082.6 7084.17 2113.36H7050.73C7052.67 2073.98 7054.13 2025.99 7055.09 1969.39C7056.05 1912.78 7056.54 1837.72 7056.54 1744.2H7089.99C7096.77 1813.11 7106.48 1873.41 7119.08 1925.09C7131.67 1976.77 7151.56 2017.38 7178.7 2046.91C7205.84 2075.21 7243.65 2089.36 7292.13 2089.36C7311.53 2089.36 7330.91 2083.82 7350.31 2072.75C7370.67 2061.68 7387.62 2043.22 7401.2 2017.38C7414.79 1991.54 7421.56 1957.08 7421.56 1914.01C7421.56 1859.87 7406.06 1815.57 7375.03 1781.12C7343.99 1746.67 7304.73 1710.36 7257.23 1672.22C7222.33 1643.91 7189.38 1615.61 7158.34 1587.31C7128.3 1559.01 7103.57 1527.02 7084.17 1491.33C7065.76 1455.64 7056.54 1412.58 7056.54 1362.13C7056.54 1306.75 7066.23 1261.84 7085.63 1227.39C7105.99 1191.7 7132.66 1165.86 7165.61 1149.86C7198.57 1132.63 7233.96 1124.02 7271.77 1124.02ZM7769.51 688.418C7794.73 688.418 7816.54 700.108 7834.96 723.488C7853.4 746.867 7862.59 774.554 7862.59 806.548C7862.59 838.541 7853.4 866.228 7834.96 889.608C7816.54 912.987 7794.73 924.677 7769.51 924.677C7744.32 924.677 7722.51 912.987 7704.07 889.608C7685.66 866.228 7676.44 838.541 7676.44 806.548C7676.44 774.554 7685.66 746.867 7704.07 723.488C7722.51 700.108 7744.32 688.418 7769.51 688.418ZM7845.13 1129.56V1928.78C7845.13 1980.46 7853.4 2015.53 7869.86 2033.99C7887.31 2052.45 7915.93 2061.68 7955.66 2061.68V2100.44C7939.2 2099.21 7913.98 2097.97 7880.04 2096.75C7847.08 2094.28 7813.64 2093.05 7779.69 2093.05C7746.74 2093.05 7713.29 2094.28 7679.35 2096.75C7645.43 2097.97 7620.22 2099.21 7603.73 2100.44V2061.68C7643.49 2061.68 7671.61 2052.45 7688.07 2033.99C7705.52 2015.53 7714.25 1980.46 7714.25 1928.78V1351.05C7714.25 1295.68 7706.51 1255.07 7690.98 1229.23C7675.48 1202.16 7646.39 1188.62 7603.73 1188.62V1149.86C7634.76 1153.55 7664.81 1155.4 7693.89 1155.4C7722.02 1155.4 7748.69 1153.55 7773.88 1149.86C7800.05 1144.94 7823.82 1138.17 7845.13 1129.56ZM8327.92 1124.02C8389.96 1124.02 8445.72 1141.25 8495.16 1175.7C8544.61 1210.16 8583.88 1264.3 8612.96 1338.13C8643.01 1411.96 8658.04 1507.94 8658.04 1626.07C8658.04 1744.2 8643.01 1840.18 8612.96 1914.01C8583.88 1986.62 8544.61 2040.14 8495.16 2074.6C8445.72 2109.05 8389.96 2126.28 8327.92 2126.28C8266.84 2126.28 8211.09 2109.05 8160.68 2074.6C8111.24 2040.14 8071.48 1986.62 8041.43 1914.01C8012.35 1840.18 7997.8 1744.2 7997.8 1626.07C7997.8 1507.94 8012.35 1411.96 8041.43 1338.13C8071.48 1264.3 8111.24 1210.16 8160.68 1175.7C8211.09 1141.25 8266.84 1124.02 8327.92 1124.02ZM8327.92 1160.94C8272.66 1160.94 8227.08 1197.24 8191.22 1269.84C8156.32 1342.44 8138.87 1461.18 8138.87 1626.07C8138.87 1790.96 8156.32 1909.7 8191.22 1982.31C8227.08 2053.68 8272.66 2089.36 8327.92 2089.36C8383.19 2089.36 8428.27 2053.68 8463.17 1982.31C8499.03 1909.7 8516.98 1790.96 8516.98 1626.07C8516.98 1461.18 8499.03 1342.44 8463.17 1269.84C8428.27 1197.24 8383.19 1160.94 8327.92 1160.94ZM9198.8 1124.02C9235.65 1124.02 9266.19 1130.18 9290.42 1142.48C9315.63 1154.78 9336.49 1172.01 9352.95 1194.16C9371.39 1218.77 9384.48 1249.53 9392.22 1286.45C9399.98 1323.37 9403.85 1373.2 9403.85 1435.96V1928.78C9403.85 1980.46 9412.11 2015.53 9428.57 2033.99C9446.02 2052.45 9474.64 2061.68 9514.38 2061.68V2100.44C9497.91 2099.21 9472.7 2097.97 9438.75 2096.75C9404.84 2094.28 9371.86 2093.05 9339.86 2093.05C9307.87 2093.05 9276.37 2094.28 9245.34 2096.75C9215.29 2097.97 9192.52 2099.21 9176.98 2100.44V2061.68C9211.89 2061.68 9236.61 2052.45 9251.15 2033.99C9265.69 2015.53 9272.97 1980.46 9272.97 1928.78V1395.35C9272.97 1357.21 9270.55 1322.14 9265.69 1290.14C9260.87 1258.15 9249.7 1232.31 9232.25 1212.62C9215.78 1192.93 9190.07 1183.09 9155.17 1183.09C9114.45 1183.09 9078.59 1197.85 9047.55 1227.39C9017.51 1256.92 8993.75 1297.52 8976.3 1349.21C8959.83 1399.66 8951.57 1456.26 8951.57 1519.02V1928.78C8951.57 1980.46 8958.84 2015.53 8973.39 2033.99C8987.93 2052.45 9012.65 2061.68 9047.55 2061.68V2100.44C9032.05 2099.21 9008.78 2097.97 8977.75 2096.75C8947.7 2094.28 8916.67 2093.05 8884.68 2093.05C8852.68 2093.05 8819.73 2094.28 8785.79 2096.75C8751.87 2097.97 8726.66 2099.21 8710.16 2100.44V2061.68C8749.92 2061.68 8778.05 2052.45 8794.51 2033.99C8811.96 2015.53 8820.69 1980.46 8820.69 1928.78V1351.05C8820.69 1295.68 8812.95 1255.07 8797.42 1229.23C8781.92 1202.16 8752.83 1188.62 8710.16 1188.62V1149.86C8741.2 1153.55 8771.24 1155.4 8800.33 1155.4C8828.45 1155.4 8855.13 1153.55 8880.31 1149.86C8906.49 1144.94 8930.25 1138.17 8951.57 1129.56V1347.36C8976.79 1263.68 9011.69 1205.85 9056.28 1173.86C9101.86 1140.63 9149.35 1124.02 9198.8 1124.02Z" fill="#121859"/>
</g>
</svg>
